<?xml version="1.0" standalone="no"?>
<!DOCTYPE svg PUBLIC "-//W3C//DTD SVG 20010904//EN"
 "http://www.w3.org/TR/2001/REC-SVG-20010904/DTD/svg10.dtd">
<svg version="1.0" xmlns="http://www.w3.org/2000/svg"
 width="512.000000pt" height="512.000000pt" viewBox="0 0 512.000000 512.000000"
 preserveAspectRatio="xMidYMid meet">

<g transform="translate(0.000000,512.000000) scale(0.100000,-0.100000)"
fill="#000000" stroke="none">
<path d="M2664 5016 l-34 -34 0 -176 0 -176 29 -32 29 -33 187 0 187 0 29 33
29 32 0 176 0 176 -34 34 -34 34 -177 0 -177 0 -34 -34z"/>
<path d="M3401 5033 c-34 -29 -37 -74 -8 -109 l25 -29 807 0 807 0 24 28 c29
34 31 66 3 101 l-20 26 -809 0 c-755 0 -809 -1 -829 -17z"/>
<path d="M874 5005 c-467 -103 -803 -493 -831 -965 -24 -419 205 -811 582
-995 223 -110 466 -137 706 -81 106 24 201 66 196 85 -2 9 -119 216 -260 459
l-257 444 0 534 0 534 -37 -1 c-21 -1 -65 -7 -99 -14z"/>
<path d="M1170 4541 l0 -481 480 0 c265 0 480 4 480 9 0 39 -36 196 -60 262
-117 321 -371 559 -697 654 -44 13 -108 27 -142 31 l-61 7 0 -482z"/>
<path d="M3399 4691 c-16 -16 -29 -37 -29 -46 0 -24 27 -72 45 -79 9 -3 202
-6 429 -6 l413 0 23 25 c33 35 31 81 -4 112 l-27 23 -410 0 -411 0 -29 -29z"/>
<path d="M2693 4215 c-55 -24 -63 -54 -63 -235 0 -243 7 -250 245 -250 238 0
245 7 245 250 0 243 -7 250 -247 250 -103 -1 -158 -5 -180 -15z"/>
<path d="M3398 4200 c-25 -26 -29 -36 -24 -63 3 -18 16 -40 27 -49 20 -17 74
-18 826 -18 l804 0 24 25 c39 38 27 102 -22 124 -17 8 -256 11 -814 11 l-791
0 -30 -30z"/>
<path d="M1232 3891 c8 -24 444 -771 449 -771 3 0 37 26 75 58 201 169 332
408 369 675 l6 47 -451 0 c-272 0 -450 -4 -448 -9z"/>
<path d="M3401 3873 c-11 -10 -24 -32 -27 -50 -5 -27 -1 -37 24 -63 l30 -30
404 0 c433 0 441 1 465 52 16 31 1 83 -27 98 -11 6 -182 10 -433 10 -380 0
-417 -1 -436 -17z"/>
<path d="M2664 3366 c-33 -33 -34 -36 -34 -114 l0 -79 78 27 c86 31 218 56
335 66 l77 6 0 30 c0 21 -10 40 -34 64 l-34 34 -177 0 -177 0 -34 -34z"/>
<path d="M3412 3393 c-15 -6 -42 -56 -42 -78 0 -9 13 -30 29 -46 l29 -29 792
0 c582 0 797 3 813 12 52 27 62 83 22 123 l-24 25 -803 -1 c-442 0 -809 -3
-816 -6z"/>
<path d="M2978 3100 c-378 -45 -711 -304 -844 -658 -54 -143 -67 -232 -61
-406 4 -125 9 -166 31 -239 100 -333 344 -589 666 -697 219 -74 491 -66 705
19 603 242 835 974 481 1520 -131 203 -361 370 -591 430 -139 37 -256 46 -387
31z m322 -221 c97 -24 239 -95 315 -156 133 -108 243 -280 285 -448 45 -179
20 -398 -65 -570 -103 -206 -301 -370 -520 -430 -94 -26 -284 -31 -385 -11
-318 65 -565 305 -641 624 -28 117 -23 321 11 427 99 314 367 540 691 585 84
11 216 2 309 -21z"/>
<path d="M3010 2740 c-274 -38 -497 -238 -565 -505 -36 -144 -12 -338 61 -475
35 -66 80 -128 87 -120 2 3 18 37 37 75 60 126 191 233 331 270 69 19 199 19
268 0 139 -37 269 -143 332 -270 19 -38 35 -72 37 -75 6 -8 52 56 86 120 70
132 96 312 66 460 -39 189 -206 393 -385 470 -104 44 -250 65 -355 50z m190
-191 c55 -25 105 -71 133 -124 31 -57 30 -173 0 -231 -126 -237 -473 -174
-500 91 -20 194 189 345 367 264z"/>
<path d="M3785 3047 c16 -12 60 -48 97 -79 l67 -58 151 0 c83 0 160 4 170 10
28 15 43 67 27 98 -22 48 -44 52 -302 52 l-240 -1 30 -22z"/>
<path d="M1020 2347 c-14 -7 -33 -28 -42 -47 -17 -33 -18 -105 -18 -1076 0
-573 3 -1055 6 -1073 4 -17 18 -42 32 -56 l25 -25 207 0 207 0 26 26 c15 14
29 40 32 58 3 17 5 507 3 1089 l-3 1059 -33 29 -32 29 -193 0 c-133 0 -200 -4
-217 -13z"/>
<path d="M84 1875 c-45 -31 -44 -28 -42 -913 l3 -844 28 -24 c28 -24 31 -24
233 -24 l206 0 29 29 29 29 0 852 0 852 -29 29 -29 29 -204 0 c-162 0 -208 -3
-224 -15z"/>
<path d="M1950 1578 c-20 -32 -20 -49 -18 -746 l3 -714 28 -24 c28 -24 31 -24
233 -24 l206 0 29 29 29 29 0 470 0 470 -66 47 c-140 100 -274 258 -355 418
-23 44 -46 77 -54 77 -9 0 -24 -15 -35 -32z"/>
<path d="M4024 1333 c-15 -20 -54 -63 -85 -94 l-57 -57 98 -97 98 -97 -20 -34
c-36 -62 -32 -68 297 -388 299 -290 305 -296 345 -296 37 0 49 7 102 58 33 31
92 92 129 135 78 87 86 116 44 165 -14 16 -153 154 -309 306 -266 258 -287
276 -321 276 -19 0 -47 -7 -61 -17 -25 -16 -26 -16 -87 43 -34 33 -80 76 -103
97 l-41 38 -29 -38z"/>
<path d="M3345 912 c-37 -11 -100 -15 -247 -16 l-198 -1 0 -383 0 -384 29 -29
29 -29 202 0 c119 0 209 4 221 10 47 26 49 43 49 460 0 441 9 401 -85 372z"/>
</g>
</svg>
