<?xml version="1.0" standalone="no"?>
<!DOCTYPE svg PUBLIC "-//W3C//DTD SVG 20010904//EN"
 "http://www.w3.org/TR/2001/REC-SVG-20010904/DTD/svg10.dtd">
<svg version="1.0" xmlns="http://www.w3.org/2000/svg"
 width="512.000000pt" height="512.000000pt" viewBox="0 0 512.000000 512.000000"
 preserveAspectRatio="xMidYMid meet">

<g transform="translate(0.000000,512.000000) scale(0.100000,-0.100000)"
fill="#000000" stroke="none">
<path d="M1625 4935 l-25 -24 0 -551 0 -551 25 -24 24 -25 551 0 551 0 26 26
c25 25 26 29 20 117 -10 154 -47 297 -109 421 l-30 59 48 48 48 49 303 0 303
0 0 80 0 80 -336 0 -336 0 -64 -62 c-35 -33 -64 -57 -64 -51 0 20 -167 179
-243 231 -180 124 -414 201 -615 202 -43 0 -58 -5 -77 -25z m290 -166 c169
-40 372 -166 490 -303 l48 -57 -93 -94 c-104 -105 -102 -92 -27 -167 21 -21
42 -38 45 -38 4 0 41 35 84 77 l77 77 26 -56 c25 -54 58 -176 69 -250 l5 -38
-440 0 -439 0 0 439 0 440 38 -5 c20 -3 73 -14 117 -25z"/>
<path d="M3520 4560 l0 -80 320 0 320 0 0 80 0 80 -320 0 -320 0 0 -80z"/>
<path d="M1100 4545 c-293 -47 -576 -227 -747 -476 -46 -67 -110 -200 -138
-286 -153 -468 27 -989 439 -1272 70 -48 240 -126 326 -150 360 -98 770 -5
1027 232 l43 39 40 -36 40 -36 615 0 615 0 0 80 0 80 -582 0 c-682 0 -643 -6
-573 93 113 163 178 354 192 564 6 88 5 92 -20 117 l-26 26 -496 0 -495 0 0
495 0 496 -25 24 c-21 22 -33 25 -87 24 -35 -1 -101 -7 -148 -14z m100 -640
l0 -496 25 -24 24 -25 494 0 494 0 -9 -62 c-17 -127 -76 -278 -151 -387 l-29
-43 -112 111 c-61 61 -116 111 -121 111 -13 0 -105 -92 -105 -104 0 -6 52 -63
116 -127 l116 -116 -72 -57 c-91 -71 -249 -149 -360 -178 -110 -29 -338 -31
-442 -5 -300 75 -550 280 -665 548 -62 143 -76 216 -76 389 0 183 16 259 89
410 146 305 433 508 777 549 4 1 7 -222 7 -494z"/>
<path d="M3520 4240 l0 -80 320 0 320 0 0 80 0 80 -320 0 -320 0 0 -80z"/>
<path d="M4320 4240 l0 -80 320 0 320 0 0 80 0 80 -320 0 -320 0 0 -80z"/>
<path d="M3520 3920 l0 -80 320 0 320 0 0 80 0 80 -320 0 -320 0 0 -80z"/>
<path d="M4320 3920 l0 -80 320 0 320 0 0 80 0 80 -320 0 -320 0 0 -80z"/>
<path d="M3520 3280 l0 -80 320 0 320 0 0 80 0 80 -320 0 -320 0 0 -80z"/>
<path d="M4320 3280 l0 -80 320 0 320 0 0 80 0 80 -320 0 -320 0 0 -80z"/>
<path d="M3520 2960 l0 -80 320 0 320 0 0 80 0 80 -320 0 -320 0 0 -80z"/>
<path d="M4320 2960 l0 -80 320 0 320 0 0 80 0 80 -320 0 -320 0 0 -80z"/>
<path d="M3520 2640 l0 -80 320 0 320 0 0 80 0 80 -320 0 -320 0 0 -80z"/>
<path d="M4320 2640 l0 -80 320 0 320 0 0 80 0 80 -320 0 -320 0 0 -80z"/>
<path d="M160 1225 l0 -1016 25 -24 24 -25 1176 0 1175 0 0 80 0 80 -1120 0
-1120 0 0 960 0 960 -80 0 -80 0 0 -1015z"/>
<path d="M1785 2215 l-25 -24 0 -831 0 -831 25 -24 c24 -25 26 -25 215 -25
189 0 191 0 215 25 l25 24 0 831 0 831 -25 24 c-24 25 -26 25 -215 25 -189 0
-191 0 -215 -25z m295 -855 l0 -720 -80 0 -80 0 0 720 0 720 80 0 80 0 0 -720z"/>
<path d="M2720 1225 l0 -1016 25 -24 24 -25 1096 0 1095 0 0 935 0 936 -25 24
c-16 17 -35 25 -57 25 -29 0 -71 -38 -455 -422 l-423 -422 -183 182 c-166 165
-186 182 -217 182 -32 0 -56 -22 -297 -263 l-263 -262 0 -378 0 -377 -80 0
-80 0 0 960 0 960 -80 0 -80 0 0 -1015z m2080 174 l0 -400 -26 20 c-58 45 -72
37 -271 -161 l-183 -182 -103 102 c-139 136 -135 136 -274 0 l-103 -102 -183
182 c-229 228 -208 223 -353 80 l-104 -102 0 85 0 84 200 200 200 200 183
-183 c166 -165 186 -182 217 -182 32 0 63 29 415 380 209 209 381 380 383 380
1 0 2 -180 2 -401z m-1175 -739 c227 -225 206 -221 351 -78 l104 102 104 -102
c145 -143 124 -148 353 80 l183 182 40 -39 40 -39 0 -223 0 -223 -800 0 -800
0 0 142 0 143 117 117 c65 65 120 118 123 118 2 0 86 -81 185 -180z"/>
<path d="M1145 1895 l-25 -24 0 -671 0 -671 25 -24 c24 -25 26 -25 215 -25
189 0 191 0 215 25 l25 24 0 671 0 671 -25 24 c-24 25 -26 25 -215 25 -189 0
-191 0 -215 -25z m295 -695 l0 -560 -80 0 -80 0 0 560 0 560 80 0 80 0 0 -560z"/>
<path d="M505 1415 l-25 -24 0 -431 0 -431 25 -24 c24 -25 26 -25 215 -25 189
0 191 0 215 25 l25 24 0 431 0 431 -25 24 c-24 25 -26 25 -215 25 -189 0 -191
0 -215 -25z m295 -455 l0 -320 -80 0 -80 0 0 320 0 320 80 0 80 0 0 -320z"/>
</g>
</svg>
