<?xml version="1.0" encoding="UTF-8"?>
<!DOCTYPE svg PUBLIC "-//W3C//DTD SVG 1.1//EN" "http://www.w3.org/Graphics/SVG/1.1/DTD/svg11.dtd">
<svg xmlns="http://www.w3.org/2000/svg" version="1.1" width="50px" height="50px" style="shape-rendering:geometricPrecision; text-rendering:geometricPrecision; image-rendering:optimizeQuality; fill-rule:evenodd; clip-rule:evenodd" xmlns:xlink="http://www.w3.org/1999/xlink">
<g><path style="opacity:0.971" fill="#f6d8ce" d="M 39.5,37.5 C 38.1667,37.5 37.5,38.1667 37.5,39.5C 29.3981,44.4234 21.0648,44.7567 12.5,40.5C 12.5,39.8333 12.1667,39.5 11.5,39.5C 11.5,38.8333 11.1667,38.5 10.5,38.5C 10.1667,37.5 9.5,36.8333 8.5,36.5C 4.90519,29.0127 4.57185,21.346 7.5,13.5C 15.4255,5.10676 24.7589,3.27342 35.5,8C 37.8706,10.706 40.5372,13.0394 43.5,15C 43.4486,20.0498 43.2819,25.2164 43,30.5C 42.3471,33.1392 41.1804,35.4726 39.5,37.5 Z"/></g>
<g><path style="opacity:1" fill="#f1bb18" d="M 37.5,5.5 C 39.5,5.5 41.5,5.5 43.5,5.5C 43.5,6.83333 43.5,8.16667 43.5,9.5C 40.4461,9.64597 38.4461,8.31263 37.5,5.5 Z"/></g>
<g><path style="opacity:0.767" fill="#ed3d53" d="M 7.5,13.5 C 5.66298,13.3605 5.32964,12.6939 6.5,11.5C 7.29755,11.9569 7.63088,12.6236 7.5,13.5 Z"/></g>
<g><path style="opacity:1" fill="#a38985" d="M 34.5,16.5 C 27.7453,15.8771 21.412,16.5437 15.5,18.5C 14.8333,18.1667 14.1667,17.8333 13.5,17.5C 13.6107,16.8826 13.944,16.3826 14.5,16C 21.3464,15.1794 28.013,15.346 34.5,16.5 Z"/></g>
<g><path style="opacity:1" fill="#bed5e6" d="M 34.5,16.5 C 34.1667,17.1667 33.8333,17.8333 33.5,18.5C 30.8908,19.4431 28.8908,21.1097 27.5,23.5C 25.5,24.8333 23.5,24.8333 21.5,23.5C 20.1092,21.1097 18.1092,19.4431 15.5,18.5C 21.412,16.5437 27.7453,15.8771 34.5,16.5 Z"/></g>
<g><path style="opacity:1" fill="#789cc8" d="M 13.5,17.5 C 14.1667,17.8333 14.8333,18.1667 15.5,18.5C 18.1092,19.4431 20.1092,21.1097 21.5,23.5C 19.2149,26.4518 16.5483,29.1185 13.5,31.5C 13.5,26.8333 13.5,22.1667 13.5,17.5 Z"/></g>
<g><path style="opacity:1" fill="#779dc9" d="M 33.5,18.5 C 35.4228,22.0293 36.0894,26.0293 35.5,30.5C 32.1898,28.8536 29.5232,26.5203 27.5,23.5C 28.8908,21.1097 30.8908,19.4431 33.5,18.5 Z"/></g>
<g><path style="opacity:1" fill="#858598" d="M 13.5,17.5 C 13.5,22.1667 13.5,26.8333 13.5,31.5C 13.5,31.8333 13.5,32.1667 13.5,32.5C 11.9532,30.1934 11.2865,27.5267 11.5,24.5C 11.6667,22.5 11.8333,20.5 12,18.5C 12.3826,17.944 12.8826,17.6107 13.5,17.5 Z"/></g>
<g><path style="opacity:1" fill="#83869c" d="M 34.5,16.5 C 35.7498,16.5774 36.5831,17.244 37,18.5C 37.8119,22.6888 37.6453,26.6888 36.5,30.5C 36.1667,30.5 35.8333,30.5 35.5,30.5C 36.0894,26.0293 35.4228,22.0293 33.5,18.5C 33.8333,17.8333 34.1667,17.1667 34.5,16.5 Z"/></g>
<g><path style="opacity:1" fill="#4a79a4" d="M 21.5,23.5 C 23.5,24.8333 25.5,24.8333 27.5,23.5C 29.5232,26.5203 32.1898,28.8536 35.5,30.5C 35.8333,30.5 36.1667,30.5 36.5,30.5C 36.3893,31.1174 36.056,31.6174 35.5,32C 28.1742,32.4997 20.8409,32.6663 13.5,32.5C 13.5,32.1667 13.5,31.8333 13.5,31.5C 16.5483,29.1185 19.2149,26.4518 21.5,23.5 Z"/></g>
<g><path style="opacity:0.883" fill="#facc58" d="M 8.5,36.5 C 9.5,36.8333 10.1667,37.5 10.5,38.5C 10.5,38.8333 10.5,39.1667 10.5,39.5C 10.5,39.8333 10.5,40.1667 10.5,40.5C 8.83333,40.5 7.16667,40.5 5.5,40.5C 5.5,39.1667 5.5,37.8333 5.5,36.5C 6.5,36.5 7.5,36.5 8.5,36.5 Z"/></g>
<g><path style="opacity:0.732" fill="#facc59" d="M 39.5,37.5 C 39.5,38.8333 38.8333,39.5 37.5,39.5C 37.5,38.1667 38.1667,37.5 39.5,37.5 Z"/></g>
<g><path style="opacity:0.62" fill="#ed3d53" d="M 10.5,39.5 C 10.8333,39.5 11.1667,39.5 11.5,39.5C 12.1667,39.5 12.5,39.8333 12.5,40.5C 11.8333,43.1667 11.1667,43.1667 10.5,40.5C 10.5,40.1667 10.5,39.8333 10.5,39.5 Z"/></g>
</svg>
