<?xml version="1.0" encoding="UTF-8"?>
<!DOCTYPE svg PUBLIC "-//W3C//DTD SVG 1.1//EN" "http://www.w3.org/Graphics/SVG/1.1/DTD/svg11.dtd">
<svg xmlns="http://www.w3.org/2000/svg" version="1.1" width="48px" height="48px" style="shape-rendering:geometricPrecision; text-rendering:geometricPrecision; image-rendering:optimizeQuality; fill-rule:evenodd; clip-rule:evenodd" xmlns:xlink="http://www.w3.org/1999/xlink">
<g><path style="opacity:0.931" fill="#17183f" d="M 9.5,31.5 C 10.0312,33.5441 11.1978,35.2107 13,36.5C 13.49,37.7932 13.6567,39.1266 13.5,40.5C 8.77895,38.7849 5.61228,35.4516 4,30.5C 1.08107,18.1759 5.24773,9.34258 16.5,4C 19.4816,3.50204 22.4816,3.33537 25.5,3.5C 25.719,4.67504 25.3857,5.67504 24.5,6.5C 9.78772,9.18108 4.78772,17.5144 9.5,31.5 Z"/></g>
<g><path style="opacity:0.988" fill="#1d2047" d="M 43.5,18.5 C 44.2877,35.3776 36.2877,43.7109 19.5,43.5C 19.5,42.5 19.5,41.5 19.5,40.5C 34.753,40.987 41.5863,33.6536 40,18.5C 38.3186,14.3209 35.4853,11.3209 31.5,9.5C 30.0003,7.49093 30.5003,6.1576 33,5.5C 38.3862,8.25314 41.8862,12.5865 43.5,18.5 Z"/></g>
<g><path style="opacity:0.994" fill="#8cc4f3" d="M 31.5,9.5 C 35.4853,11.3209 38.3186,14.3209 40,18.5C 41.5863,33.6536 34.753,40.987 19.5,40.5C 19.5,41.5 19.5,42.5 19.5,43.5C 36.2877,43.7109 44.2877,35.3776 43.5,18.5C 44.2679,19.2625 44.7679,20.2625 45,21.5C 46.6393,41.1886 37.806,48.6886 18.5,44C 16.8043,42.8236 15.1376,41.657 13.5,40.5C 13.6567,39.1266 13.49,37.7932 13,36.5C 11.1978,35.2107 10.0312,33.5441 9.5,31.5C 9.33499,28.1501 9.50166,24.8168 10,21.5C 10.2321,20.2625 10.7321,19.2625 11.5,18.5C 11.1211,23.2973 11.6211,27.964 13,32.5C 17.0659,33.4637 21.2325,33.797 25.5,33.5C 25.5,32.5 25.5,31.5 25.5,30.5C 21.8333,30.5 18.1667,30.5 14.5,30.5C 14.5,25.8333 14.5,21.1667 14.5,16.5C 20.5368,16.1707 26.5368,16.5041 32.5,17.5C 27.935,21.762 22.935,22.4287 17.5,19.5C 17.1667,20 16.8333,20.5 16.5,21C 21.219,25.4563 26.219,25.623 31.5,21.5C 32.4841,24.4281 32.8174,27.4281 32.5,30.5C 28.4211,30.6691 27.9211,31.6691 31,33.5C 32.8916,33.2231 34.2249,32.2231 35,30.5C 35.6667,25.5 35.6667,20.5 35,15.5C 34.2496,14.8742 33.4162,14.3742 32.5,14C 26.8431,13.5006 21.1764,13.3339 15.5,13.5C 20.1111,9.95002 25.4444,8.61668 31.5,9.5 Z"/></g>
<g><path style="opacity:1" fill="#1b1d43" d="M 15.5,13.5 C 21.1764,13.3339 26.8431,13.5006 32.5,14C 33.4162,14.3742 34.2496,14.8742 35,15.5C 35.6667,20.5 35.6667,25.5 35,30.5C 34.2249,32.2231 32.8916,33.2231 31,33.5C 27.9211,31.6691 28.4211,30.6691 32.5,30.5C 32.8174,27.4281 32.4841,24.4281 31.5,21.5C 26.219,25.623 21.219,25.4563 16.5,21C 16.8333,20.5 17.1667,20 17.5,19.5C 22.935,22.4287 27.935,21.762 32.5,17.5C 26.5368,16.5041 20.5368,16.1707 14.5,16.5C 14.5,21.1667 14.5,25.8333 14.5,30.5C 18.1667,30.5 21.8333,30.5 25.5,30.5C 25.5,31.5 25.5,32.5 25.5,33.5C 21.2325,33.797 17.0659,33.4637 13,32.5C 11.6211,27.964 11.1211,23.2973 11.5,18.5C 10.7564,15.0504 12.0897,13.3838 15.5,13.5 Z"/></g>
</svg>
