<?xml version="1.0" encoding="UTF-8"?>
<!DOCTYPE svg PUBLIC "-//W3C//DTD SVG 1.1//EN" "http://www.w3.org/Graphics/SVG/1.1/DTD/svg11.dtd">
<svg xmlns="http://www.w3.org/2000/svg" version="1.1" width="64px" height="64px" style="shape-rendering:geometricPrecision; text-rendering:geometricPrecision; image-rendering:optimizeQuality; fill-rule:evenodd; clip-rule:evenodd" xmlns:xlink="http://www.w3.org/1999/xlink">
<g><path style="opacity:0.998" fill="#73def3" d="M 30.5,9.5 C 30.1412,11.371 29.1412,12.871 27.5,14C 23.7481,14.2401 20.0814,14.7401 16.5,15.5C 15.1446,11.842 13.6446,12.1754 12,16.5C 11.3333,18.8333 11.3333,21.1667 12,23.5C 12.7697,24.5981 13.603,24.5981 14.5,23.5C 15.2394,27.7464 13.5727,30.413 9.5,31.5C 5.32598,13.3423 12.326,6.00894 30.5,9.5 Z"/></g>
<g><path style="opacity:0.994" fill="#3cd0ee" d="M 30.5,9.5 C 36.5092,9.33385 42.5092,9.50051 48.5,10C 50.3333,11.1667 51.8333,12.6667 53,14.5C 53.499,18.8206 53.6657,23.1539 53.5,27.5C 51.4184,27.6243 49.9184,28.6243 49,30.5C 48.7861,35.8854 48.2861,41.2187 47.5,46.5C 46.9747,47.1924 46.3081,47.6924 45.5,48C 40.5,48.3333 35.5,48.6667 30.5,49C 28.6243,49.9184 27.6243,51.4184 27.5,53.5C 23.1539,53.6657 18.8206,53.499 14.5,53C 12.6667,51.8333 11.1667,50.3333 10,48.5C 9.50058,42.8431 9.33391,37.1764 9.5,31.5C 13.5727,30.413 15.2394,27.7464 14.5,23.5C 14.1107,20.4467 14.7773,17.78 16.5,15.5C 20.0814,14.7401 23.7481,14.2401 27.5,14C 29.1412,12.871 30.1412,11.371 30.5,9.5 Z"/></g>
<g><path style="opacity:1" fill="#f5fcfe" d="M 16.5,15.5 C 14.7773,17.78 14.1107,20.4467 14.5,23.5C 13.603,24.5981 12.7697,24.5981 12,23.5C 11.3333,21.1667 11.3333,18.8333 12,16.5C 13.6446,12.1754 15.1446,11.842 16.5,15.5 Z"/></g>
<g><path style="opacity:1" fill="#fafdfe" d="M 19.5,22.5 C 27.3225,21.3439 35.3225,21.1772 43.5,22C 40.5597,26.7776 36.5597,30.2776 31.5,32.5C 30.062,32.2811 28.7287,31.7811 27.5,31C 25.3329,27.6671 22.6662,24.8337 19.5,22.5 Z"/></g>
<g><path style="opacity:1" fill="#fcfefe" d="M 16.5,24.5 C 19.2971,26.795 21.9638,29.295 24.5,32C 22,34.5 19.5,37 17,39.5C 16.5007,34.5111 16.3341,29.5111 16.5,24.5 Z"/></g>
<g><path style="opacity:1" fill="#fcfefe" d="M 45.5,24.5 C 46.6497,29.3158 46.8163,34.3158 46,39.5C 43.5,37 41,34.5 38.5,32C 41.0386,29.6303 43.3719,27.1303 45.5,24.5 Z"/></g>
<g><path style="opacity:0.98" fill="#2fb1cb" d="M 53.5,27.5 C 53.6663,34.5079 53.4996,41.5079 53,48.5C 51.5,50 50,51.5 48.5,53C 41.5079,53.4996 34.5079,53.6663 27.5,53.5C 27.6243,51.4184 28.6243,49.9184 30.5,49C 35.5,48.6667 40.5,48.3333 45.5,48C 46.3081,47.6924 46.9747,47.1924 47.5,46.5C 48.2861,41.2187 48.7861,35.8854 49,30.5C 49.9184,28.6243 51.4184,27.6243 53.5,27.5 Z"/></g>
<g><path style="opacity:1" fill="#fafdfe" d="M 25.5,34.5 C 29.5068,35.6559 33.5068,35.8225 37.5,35C 39.4049,36.8153 41.0716,38.8153 42.5,41C 35.1667,41.6667 27.8333,41.6667 20.5,41C 22.7655,39.2419 24.4322,37.0752 25.5,34.5 Z"/></g>
<g><path style="opacity:0.256" fill="#000000" d="M 46.5,63.5 C 36.5,63.5 26.5,63.5 16.5,63.5C 15.1225,62.7656 13.6225,62.0989 12,61.5C 11.3828,60.5509 11.5494,59.7175 12.5,59C 25.1667,57 37.8333,57 50.5,59C 51.4506,59.7175 51.6172,60.5509 51,61.5C 49.3775,62.0989 47.8775,62.7656 46.5,63.5 Z"/></g>
</svg>
