<?xml version="1.0" encoding="UTF-8"?>
<!DOCTYPE svg PUBLIC "-//W3C//DTD SVG 1.1//EN" "http://www.w3.org/Graphics/SVG/1.1/DTD/svg11.dtd">
<svg xmlns="http://www.w3.org/2000/svg" version="1.1" width="64px" height="64px" style="shape-rendering:geometricPrecision; text-rendering:geometricPrecision; image-rendering:optimizeQuality; fill-rule:evenodd; clip-rule:evenodd" xmlns:xlink="http://www.w3.org/1999/xlink">
<g><path style="opacity:0.795" fill="#2b66ff" d="M 60.5,21.5 C 59.8333,21.5 59.1667,21.5 58.5,21.5C 56.8105,13.3352 51.8105,10.1685 43.5,12C 40.9774,13.3597 38.9774,15.193 37.5,17.5C 37.1583,16.6618 36.4916,16.3284 35.5,16.5C 36.2483,12.583 38.5817,10.083 42.5,9C 53.3428,6.56645 59.3428,10.7331 60.5,21.5 Z"/></g>
<g><path style="opacity:0.712" fill="#3d5dff" d="M 54.5,21.5 C 53.5,21.5 52.5,21.5 51.5,21.5C 51.8453,18.512 50.512,17.1787 47.5,17.5C 44.488,17.1787 43.1547,18.512 43.5,21.5C 42.5,21.5 41.5,21.5 40.5,21.5C 41.2584,14.8906 44.9251,12.7239 51.5,15C 53.9193,16.5088 54.9193,18.6755 54.5,21.5 Z"/></g>
<g><path style="opacity:0.967" fill="#465bff" d="M 35.5,16.5 C 36.4916,16.3284 37.1583,16.6618 37.5,17.5C 37.5,20.1667 37.5,22.8333 37.5,25.5C 36.6043,24.4937 35.9377,24.4937 35.5,25.5C 34.6618,25.1583 34.3284,24.4916 34.5,23.5C 34.5,22.5 34.5,21.5 34.5,20.5C 25.0833,20.1945 15.75,20.5279 6.5,21.5C 5.16667,21.5 3.83333,21.5 2.5,21.5C 2.9528,20.5416 3.61947,19.7083 4.5,19C 15.0854,19.1079 25.4187,18.2746 35.5,16.5 Z"/></g>
<g><path style="opacity:0.833" fill="#5950ff" d="M 40.5,21.5 C 41.5,21.5 42.5,21.5 43.5,21.5C 43.1547,24.488 44.488,25.8213 47.5,25.5C 50.512,25.8213 51.8453,24.488 51.5,21.5C 52.5,21.5 53.5,21.5 54.5,21.5C 54.2222,23.3464 54.8888,24.6798 56.5,25.5C 58.1112,24.6798 58.7778,23.3464 58.5,21.5C 59.1667,21.5 59.8333,21.5 60.5,21.5C 60.6621,23.5273 60.4955,25.5273 60,27.5C 58.9383,28.0968 57.7716,28.4302 56.5,28.5C 52.2477,28.2273 47.9143,28.0606 43.5,28C 41.0807,26.4912 40.0807,24.3245 40.5,21.5 Z"/></g>
<g><path style="opacity:0.698" fill="#664eff" d="M 2.5,21.5 C 3.83333,21.5 5.16667,21.5 6.5,21.5C 11.1667,25.5 15.8333,29.5 20.5,33.5C 18.3792,33.3253 16.3792,33.6586 14.5,34.5C 14.631,33.7611 14.4643,33.0944 14,32.5C 11,29.8333 8,27.1667 5,24.5C 4.50115,28.4862 4.33449,32.4862 4.5,36.5C 3.83333,36.5 3.16667,36.5 2.5,36.5C 2.5,31.5 2.5,26.5 2.5,21.5 Z"/></g>
<g><path style="opacity:0.937" fill="#95beff" d="M 34.5,23.5 C 34.3284,24.4916 34.6618,25.1583 35.5,25.5C 35.5,26.1667 35.5,26.8333 35.5,27.5C 34.8333,27.8333 34.1667,28.1667 33.5,28.5C 28.3054,28.1795 23.3054,28.5128 18.5,29.5C 16.5212,28.1879 14.8545,26.5212 13.5,24.5C 20.4684,23.503 27.4684,23.1697 34.5,23.5 Z"/></g>
<g><path style="opacity:1" fill="#c7b4ff" d="M 18.5,29.5 C 23.3054,28.5128 28.3054,28.1795 33.5,28.5C 31.1333,30.8622 28.4667,32.8622 25.5,34.5C 22.895,33.2305 20.5616,31.5639 18.5,29.5 Z"/></g>
<g><path style="opacity:0.821" fill="#7147ff" d="M 37.5,25.5 C 40.6451,29.9147 44.9784,32.5814 50.5,33.5C 49.3881,34.2652 48.7214,35.2652 48.5,36.5C 47.8333,36.5 47.1667,36.5 46.5,36.5C 43.9203,34.7604 41.087,33.0937 38,31.5C 37.6174,32.056 37.1174,32.3893 36.5,32.5C 34.6656,33.494 32.9989,33.494 31.5,32.5C 33.5554,31.4412 34.8888,29.7746 35.5,27.5C 35.5,26.8333 35.5,26.1667 35.5,25.5C 35.9377,24.4937 36.6043,24.4937 37.5,25.5 Z"/></g>
<g><path style="opacity:0.939" fill="#893cff" d="M 31.5,32.5 C 32.9989,33.494 34.6656,33.494 36.5,32.5C 36.369,33.2389 36.5357,33.9056 37,34.5C 40,37.1667 43,39.8333 46,42.5C 46.4955,40.5273 46.6621,38.5273 46.5,36.5C 47.1667,36.5 47.8333,36.5 48.5,36.5C 48.5,40.5 48.5,44.5 48.5,48.5C 47.8333,48.5 47.1667,48.5 46.5,48.5C 46.1412,46.629 45.1412,45.129 43.5,44C 39.9084,41.2865 36.4084,38.4532 33,35.5C 28,40.8333 23,40.8333 18,35.5C 17.2917,36.3805 16.4584,37.0472 15.5,37.5C 14.4721,37.0742 13.1388,37.0742 11.5,37.5C 12.1667,36.1667 13.1667,35.1667 14.5,34.5C 16.3792,33.6586 18.3792,33.3253 20.5,33.5C 21.9108,34.9076 23.5775,35.9076 25.5,36.5C 27.7655,35.5684 29.7655,34.2351 31.5,32.5 Z"/></g>
<g><path style="opacity:0.849" fill="#9736ff" d="M 2.5,36.5 C 3.16667,36.5 3.83333,36.5 4.5,36.5C 4.33788,38.5273 4.50454,40.5273 5,42.5C 6.75814,40.2345 8.92481,38.5678 11.5,37.5C 13.1388,37.0742 14.4721,37.0742 15.5,37.5C 12.1919,40.6352 8.69192,43.6352 5,46.5C 4.51722,47.448 4.35055,48.448 4.5,49.5C 3.83333,49.5 3.16667,49.5 2.5,49.5C 2.5,45.1667 2.5,40.8333 2.5,36.5 Z"/></g>
<g><path style="opacity:1" fill="#af2cfe" d="M 17.5,48.5 C 22.8746,48.1718 28.2079,48.5052 33.5,49.5C 30.8333,49.8333 28.1667,50.1667 25.5,50.5C 22.4098,50.4783 19.7432,49.8117 17.5,48.5 Z"/></g>
<g><path style="opacity:0.959" fill="#c025ff" d="M 46.5,48.5 C 47.1667,48.5 47.8333,48.5 48.5,48.5C 48.822,50.7224 48.1554,52.5557 46.5,54C 32.5,54.6667 18.5,54.6667 4.5,54C 2.96317,52.8904 2.2965,51.3904 2.5,49.5C 3.16667,49.5 3.83333,49.5 4.5,49.5C 5.30943,50.4687 6.30943,51.3021 7.5,52C 19.5,52.6667 31.5,52.6667 43.5,52C 45.0557,51.2798 46.0557,50.1132 46.5,48.5 Z"/></g>
</svg>
