<?xml version="1.0" encoding="UTF-8"?>
<!DOCTYPE svg PUBLIC "-//W3C//DTD SVG 1.1//EN" "http://www.w3.org/Graphics/SVG/1.1/DTD/svg11.dtd">
<svg xmlns="http://www.w3.org/2000/svg" version="1.1" width="48px" height="48px" style="shape-rendering:geometricPrecision; text-rendering:geometricPrecision; image-rendering:optimizeQuality; fill-rule:evenodd; clip-rule:evenodd" xmlns:xlink="http://www.w3.org/1999/xlink">
<g><path style="opacity:0.955" fill="#28aeea" d="M 29.5,3.5 C 28.2214,7.302 25.8881,10.4687 22.5,13C 18.6437,13.1773 14.977,13.6773 11.5,14.5C 10.6773,17.977 10.1773,21.6437 10,25.5C 8.42927,27.9229 6.2626,29.2562 3.5,29.5C 1.83333,10.5 10.5,1.83333 29.5,3.5 Z"/></g>
<g><path style="opacity:0.964" fill="#20a1e2" d="M 29.5,3.5 C 33.7936,5.14304 37.127,7.8097 39.5,11.5C 38.1283,12.5116 36.795,13.5116 35.5,14.5C 35.1667,14.5 34.8333,14.5 34.5,14.5C 26.8333,14.5 19.1667,14.5 11.5,14.5C 14.977,13.6773 18.6437,13.1773 22.5,13C 25.8881,10.4687 28.2214,7.302 29.5,3.5 Z"/></g>
<g><path style="opacity:1" fill="#fdfefe" d="M 11.5,14.5 C 19.1667,14.5 26.8333,14.5 34.5,14.5C 34.67,15.8221 34.3366,16.9887 33.5,18C 30.4721,19.8445 27.4721,21.6778 24.5,23.5C 19.9587,21.6426 15.6254,19.3093 11.5,16.5C 11.5,15.8333 11.5,15.1667 11.5,14.5 Z"/></g>
<g><path style="opacity:0.97" fill="#1593dd" d="M 39.5,11.5 C 42.758,14.3695 44.0914,18.0361 43.5,22.5C 41.241,26.0996 38.5743,29.433 35.5,32.5C 35.5,26.5 35.5,20.5 35.5,14.5C 36.795,13.5116 38.1283,12.5116 39.5,11.5 Z"/></g>
<g><path style="opacity:1" fill="#e3ecfd" d="M 11.5,16.5 C 15.6254,19.3093 19.9587,21.6426 24.5,23.5C 24.3893,24.1174 24.056,24.6174 23.5,25C 27.5796,27.0285 31.2463,29.5285 34.5,32.5C 26.8333,32.5 19.1667,32.5 11.5,32.5C 11.5,27.1667 11.5,21.8333 11.5,16.5 Z"/></g>
<g><path style="opacity:1" fill="#cadafc" d="M 34.5,14.5 C 34.8333,14.5 35.1667,14.5 35.5,14.5C 35.5,20.5 35.5,26.5 35.5,32.5C 35.1667,32.5 34.8333,32.5 34.5,32.5C 31.2463,29.5285 27.5796,27.0285 23.5,25C 24.056,24.6174 24.3893,24.1174 24.5,23.5C 27.4721,21.6778 30.4721,19.8445 33.5,18C 34.3366,16.9887 34.67,15.8221 34.5,14.5 Z"/></g>
<g><path style="opacity:0.978" fill="#1c9de2" d="M 11.5,14.5 C 11.5,15.1667 11.5,15.8333 11.5,16.5C 11.5,21.8333 11.5,27.1667 11.5,32.5C 15.3123,33.3238 19.3123,33.8238 23.5,34C 20.8991,37.1117 17.8991,39.6117 14.5,41.5C 9.02519,39.2586 5.35852,35.2586 3.5,29.5C 6.2626,29.2562 8.42927,27.9229 10,25.5C 10.1773,21.6437 10.6773,17.977 11.5,14.5 Z"/></g>
<g><path style="opacity:0.981" fill="#1390dc" d="M 43.5,22.5 C 43.6515,36.0148 36.9849,43.0148 23.5,43.5C 21.1667,43.3333 18.8333,43.1667 16.5,43C 15.5842,42.7216 14.9175,42.2216 14.5,41.5C 17.8991,39.6117 20.8991,37.1117 23.5,34C 19.3123,33.8238 15.3123,33.3238 11.5,32.5C 19.1667,32.5 26.8333,32.5 34.5,32.5C 34.8333,32.5 35.1667,32.5 35.5,32.5C 38.5743,29.433 41.241,26.0996 43.5,22.5 Z"/></g>
</svg>
