<?xml version="1.0" encoding="UTF-8"?>
<!DOCTYPE svg PUBLIC "-//W3C//DTD SVG 1.1//EN" "http://www.w3.org/Graphics/SVG/1.1/DTD/svg11.dtd">
<svg xmlns="http://www.w3.org/2000/svg" version="1.1" width="512px" height="512px" style="shape-rendering:geometricPrecision; text-rendering:geometricPrecision; image-rendering:optimizeQuality; fill-rule:evenodd; clip-rule:evenodd" xmlns:xlink="http://www.w3.org/1999/xlink">
<g><path style="opacity:0.998" fill="#09b0ee" d="M 251.5,6.5 C 249.516,43.6126 248.849,80.9459 249.5,118.5C 256.022,118.177 262.355,118.51 268.5,119.5C 251.703,118.817 235.036,119.817 218.5,122.5C 217.502,85.0037 217.168,47.337 217.5,9.5C 228.586,7.32635 239.919,6.32635 251.5,6.5 Z"/></g>
<g><path style="opacity:0.997" fill="#01abeb" d="M 251.5,6.5 C 271.475,5.93076 291.142,7.93076 310.5,12.5C 310.5,51.1667 310.5,89.8333 310.5,128.5C 296.859,123.842 282.859,120.842 268.5,119.5C 262.355,118.51 256.022,118.177 249.5,118.5C 248.849,80.9459 249.516,43.6126 251.5,6.5 Z"/></g>
<g><path style="opacity:0.997" fill="#0ab2ee" d="M 217.5,9.5 C 217.168,47.337 217.502,85.0037 218.5,122.5C 206.573,126.289 194.906,130.956 183.5,136.5C 182.501,97.0035 182.168,57.3368 182.5,17.5C 193.738,13.4426 205.405,10.7759 217.5,9.5 Z"/></g>
<g><path style="opacity:0.997" fill="#01a5e6" d="M 310.5,12.5 C 331.666,16.8863 351.666,24.2196 370.5,34.5C 370.5,79.8333 370.5,125.167 370.5,170.5C 369.609,169.89 368.609,169.557 367.5,169.5C 352.108,150.769 333.108,137.102 310.5,128.5C 310.5,89.8333 310.5,51.1667 310.5,12.5 Z"/></g>
<g><path style="opacity:0.997" fill="#11b6ef" d="M 182.5,17.5 C 182.168,57.3368 182.501,97.0035 183.5,136.5C 170.351,144.31 158.684,153.977 148.5,165.5C 147.833,120.833 147.167,76.1667 146.5,31.5C 157.785,25.1985 169.785,20.5318 182.5,17.5 Z"/></g>
<g><path style="opacity:0.998" fill="#17b9f0" d="M 146.5,31.5 C 147.167,76.1667 147.833,120.833 148.5,165.5C 115.364,209.263 107.864,257.263 126,309.5C 131.703,323.338 139.203,336.004 148.5,347.5C 147.508,392.636 147.175,437.636 147.5,482.5C 135.171,477.343 123.838,470.676 113.5,462.5C 113.5,325.167 113.5,187.833 113.5,50.5C 123.676,42.9066 134.676,36.5733 146.5,31.5 Z"/></g>
<g><path style="opacity:0.997" fill="#009fe2" d="M 370.5,34.5 C 392.735,45.7382 412.735,60.0715 430.5,77.5C 430.832,128.669 430.499,179.669 429.5,230.5C 427.5,228.833 425.5,227.167 423.5,225.5C 405.497,207.497 387.83,189.164 370.5,170.5C 370.5,125.167 370.5,79.8333 370.5,34.5 Z"/></g>
<g><path style="opacity:0.999" fill="#19bbf1" d="M 113.5,50.5 C 113.5,187.833 113.5,325.167 113.5,462.5C 109.268,460.6 105.601,457.933 102.5,454.5C 102.5,322.5 102.5,190.5 102.5,58.5C 105.952,55.6007 109.618,52.9341 113.5,50.5 Z"/></g>
<g><path style="opacity:0.998" fill="#1cbcf1" d="M 102.5,58.5 C 102.5,190.5 102.5,322.5 102.5,454.5C 90.9463,446.618 80.613,437.284 71.5,426.5C 72.4995,313.001 72.8328,199.335 72.5,85.5C 81.8775,75.7882 91.8775,66.7882 102.5,58.5 Z"/></g>
<g><path style="opacity:0.995" fill="#0099dd" d="M 430.5,77.5 C 492.076,140.24 515.743,215.24 501.5,302.5C 494.492,294.493 486.826,287.159 478.5,280.5C 467.14,267.806 455.14,255.806 442.5,244.5C 438.167,239.833 433.833,235.167 429.5,230.5C 430.499,179.669 430.832,128.669 430.5,77.5 Z"/></g>
<g><path style="opacity:0.997" fill="#22bff2" d="M 72.5,85.5 C 72.8328,199.335 72.4995,313.001 71.5,426.5C 57.9655,412.433 46.6322,396.767 37.5,379.5C 37.5,297.5 37.5,215.5 37.5,133.5C 47.2224,116.044 58.8891,100.044 72.5,85.5 Z"/></g>
<g><path style="opacity:1" fill="#fefefe" d="M 268.5,119.5 C 282.859,120.842 296.859,123.842 310.5,128.5C 333.108,137.102 352.108,150.769 367.5,169.5C 380.082,185.004 388.082,202.67 391.5,222.5C 366.167,222.5 340.833,222.5 315.5,222.5C 314.59,219.008 312.924,216.008 310.5,213.5C 305.402,205.735 298.736,199.735 290.5,195.5C 271.285,185.32 251.285,183.82 230.5,191C 211.926,198.736 199.926,212.236 194.5,231.5C 188.458,252.084 189.624,272.417 198,292.5C 199.844,295.528 201.678,298.528 203.5,301.5C 206.833,306.833 211.167,311.167 216.5,314.5C 223.694,319.761 231.694,323.428 240.5,325.5C 261.693,329.308 281.359,325.474 299.5,314C 306.604,308.414 311.938,301.58 315.5,293.5C 294.34,292.503 273.007,292.169 251.5,292.5C 251.5,277.833 251.5,263.167 251.5,248.5C 299.167,248.5 346.833,248.5 394.5,248.5C 394.585,257.895 393.918,267.228 392.5,276.5C 390.151,287.891 387.151,299.225 383.5,310.5C 373.474,335.527 357.474,355.86 335.5,371.5C 313.773,385.41 290.106,393.076 264.5,394.5C 227.788,396.303 194.788,386.303 165.5,364.5C 159.5,359.167 153.833,353.5 148.5,347.5C 139.203,336.004 131.703,323.338 126,309.5C 107.864,257.263 115.364,209.263 148.5,165.5C 158.684,153.977 170.351,144.31 183.5,136.5C 194.906,130.956 206.573,126.289 218.5,122.5C 235.036,119.817 251.703,118.817 268.5,119.5 Z"/></g>
<g><path style="opacity:0.989" fill="#27c2f2" d="M 37.5,133.5 C 37.5,215.5 37.5,297.5 37.5,379.5C 10.361,331.365 0.194383,279.698 7,224.5C 11.1044,192.019 21.2711,161.686 37.5,133.5 Z"/></g>
<g><path style="opacity:1" fill="#057097" d="M 290.5,195.5 C 285.931,201.576 280.764,207.242 275,212.5C 274.667,211.5 274.333,210.5 274,209.5C 270,213.5 266,217.5 262,221.5C 261.667,220.5 261.333,219.5 261,218.5C 251,228.5 241,238.5 231,248.5C 230.667,247.167 230.333,245.833 230,244.5C 220.298,254.369 210.465,264.036 200.5,273.5C 200.649,272.448 200.483,271.448 200,270.5C 198.333,272.167 196.667,273.833 195,275.5C 194.769,267.805 194.269,260.138 193.5,252.5C 194.428,245.538 194.761,238.538 194.5,231.5C 199.926,212.236 211.926,198.736 230.5,191C 251.285,183.82 271.285,185.32 290.5,195.5 Z"/></g>
<g><path style="opacity:1" fill="#01749f" d="M 290.5,195.5 C 298.736,199.735 305.402,205.735 310.5,213.5C 306.598,215.893 303.098,218.893 300,222.5C 299.667,221.5 299.333,220.5 299,219.5C 295,223.5 291,227.5 287,231.5C 286.667,230.167 286.333,228.833 286,227.5C 282.333,231.167 278.667,234.833 275,238.5C 274.667,237.5 274.333,236.5 274,235.5C 269.963,239.369 266.13,243.369 262.5,247.5C 258.5,247.5 254.5,247.5 250.5,247.5C 250.5,250.167 250.5,252.833 250.5,255.5C 249.71,254.391 249.21,253.058 249,251.5C 245.667,254.833 242.333,258.167 239,261.5C 238.667,260.5 238.333,259.5 238,258.5C 234.667,261.833 231.333,265.167 228,268.5C 227.667,267.5 227.333,266.5 227,265.5C 223.333,269.167 219.667,272.833 216,276.5C 215.667,275.167 215.333,273.833 215,272.5C 211.667,275.833 208.333,279.167 205,282.5C 204.344,278.998 203.011,278.998 201,282.5C 200.502,279.518 200.335,276.518 200.5,273.5C 210.465,264.036 220.298,254.369 230,244.5C 230.333,245.833 230.667,247.167 231,248.5C 241,238.5 251,228.5 261,218.5C 261.333,219.5 261.667,220.5 262,221.5C 266,217.5 270,213.5 274,209.5C 274.333,210.5 274.667,211.5 275,212.5C 280.764,207.242 285.931,201.576 290.5,195.5 Z"/></g>
<g><path style="opacity:1" fill="#027db1" d="M 367.5,169.5 C 368.609,169.557 369.609,169.89 370.5,170.5C 387.83,189.164 405.497,207.497 423.5,225.5C 419.536,228.963 415.702,232.63 412,236.5C 411.667,234.5 411.333,232.5 411,230.5C 407.333,234.167 403.667,237.833 400,241.5C 399.667,240.5 399.333,239.5 399,238.5C 395.962,241.369 393.129,244.369 390.5,247.5C 374.5,247.5 358.5,247.5 342.5,247.5C 344.461,245.037 346.628,242.703 349,240.5C 349.333,241.833 349.667,243.167 350,244.5C 353.667,240.833 357.333,237.167 361,233.5C 361.333,234.5 361.667,235.5 362,236.5C 366,232.5 370,228.5 374,224.5C 374.333,225.5 374.667,226.5 375,227.5C 376.167,226.333 377.333,225.167 378.5,224C 383.019,223.825 387.353,223.325 391.5,222.5C 388.082,202.67 380.082,185.004 367.5,169.5 Z"/></g>
<g><path style="opacity:1" fill="#0077a5" d="M 310.5,213.5 C 312.924,216.008 314.59,219.008 315.5,222.5C 321.987,223.328 328.654,223.828 335.5,224C 332,227.5 328.5,231 325,234.5C 324.667,233.5 324.333,232.5 324,231.5C 320,235.5 316,239.5 312,243.5C 311.667,242.167 311.333,240.833 311,239.5C 308.295,242.036 305.795,244.703 303.5,247.5C 289.833,247.5 276.167,247.5 262.5,247.5C 266.13,243.369 269.963,239.369 274,235.5C 274.333,236.5 274.667,237.5 275,238.5C 278.667,234.833 282.333,231.167 286,227.5C 286.333,228.833 286.667,230.167 287,231.5C 291,227.5 295,223.5 299,219.5C 299.333,220.5 299.667,221.5 300,222.5C 303.098,218.893 306.598,215.893 310.5,213.5 Z"/></g>
<g><path style="opacity:1" fill="#127ead" d="M 315.5,222.5 C 340.833,222.5 366.167,222.5 391.5,222.5C 387.353,223.325 383.019,223.825 378.5,224C 377.333,225.167 376.167,226.333 375,227.5C 374.667,226.5 374.333,225.5 374,224.5C 370,228.5 366,232.5 362,236.5C 361.667,235.5 361.333,234.5 361,233.5C 357.333,237.167 353.667,240.833 350,244.5C 349.667,243.167 349.333,241.833 349,240.5C 346.628,242.703 344.461,245.037 342.5,247.5C 329.5,247.5 316.5,247.5 303.5,247.5C 305.795,244.703 308.295,242.036 311,239.5C 311.333,240.833 311.667,242.167 312,243.5C 316,239.5 320,235.5 324,231.5C 324.333,232.5 324.667,233.5 325,234.5C 328.5,231 332,227.5 335.5,224C 328.654,223.828 321.987,223.328 315.5,222.5 Z"/></g>
<g><path style="opacity:1" fill="#0081b8" d="M 423.5,225.5 C 425.5,227.167 427.5,228.833 429.5,230.5C 433.833,235.167 438.167,239.833 442.5,244.5C 440.873,246.63 439.04,248.63 437,250.5C 436.667,249.167 436.333,247.833 436,246.5C 432.333,250.167 428.667,253.833 425,257.5C 424.667,256.5 424.333,255.5 424,254.5C 420,258.5 416,262.5 412,266.5C 411.667,265.5 411.333,264.5 411,263.5C 407.333,267.167 403.667,270.833 400,274.5C 399.667,273.167 399.333,271.833 399,270.5C 396.963,272.706 394.797,274.706 392.5,276.5C 393.918,267.228 394.585,257.895 394.5,248.5C 393.432,247.566 392.099,247.232 390.5,247.5C 393.129,244.369 395.962,241.369 399,238.5C 399.333,239.5 399.667,240.5 400,241.5C 403.667,237.833 407.333,234.167 411,230.5C 411.333,232.5 411.667,234.5 412,236.5C 415.702,232.63 419.536,228.963 423.5,225.5 Z"/></g>
<g><path style="opacity:1" fill="#d6eaf2" d="M 262.5,247.5 C 276.167,247.5 289.833,247.5 303.5,247.5C 316.5,247.5 329.5,247.5 342.5,247.5C 358.5,247.5 374.5,247.5 390.5,247.5C 392.099,247.232 393.432,247.566 394.5,248.5C 346.833,248.5 299.167,248.5 251.5,248.5C 251.5,263.167 251.5,277.833 251.5,292.5C 273.007,292.169 294.34,292.503 315.5,293.5C 303.167,293.5 290.833,293.5 278.5,293.5C 269.167,293.5 259.833,293.5 250.5,293.5C 250.5,291.5 250.5,289.5 250.5,287.5C 250.5,278.167 250.5,268.833 250.5,259.5C 250.5,258.167 250.5,256.833 250.5,255.5C 250.5,252.833 250.5,250.167 250.5,247.5C 254.5,247.5 258.5,247.5 262.5,247.5 Z"/></g>
<g><path style="opacity:1" fill="#0286c0" d="M 442.5,244.5 C 455.14,255.806 467.14,267.806 478.5,280.5C 472.869,285.63 467.369,290.964 462,296.5C 461.802,294.618 461.302,292.952 460.5,291.5C 460.664,288.813 460.497,286.146 460,283.5C 457,286.5 454,289.5 451,292.5C 450.667,291.5 450.333,290.5 450,289.5C 447,292.5 444,295.5 441,298.5C 440.667,295.833 440.333,293.167 440,290.5C 437,293.5 434,296.5 431,299.5C 430.667,298.5 430.333,297.5 430,296.5C 427,299.5 424,302.5 421,305.5C 420.667,302.833 420.333,300.167 420,297.5C 417,300.5 414,303.5 411,306.5C 410.667,305.5 410.333,304.5 410,303.5C 407,306.5 404,309.5 401,312.5C 400.667,311.167 400.333,309.833 400,308.5C 397,311.5 394,314.5 391,317.5C 390.667,315.167 390.333,312.833 390,310.5C 389,311.5 388,312.5 387,313.5C 387.035,309.755 386.035,309.088 384,311.5C 383.601,311.272 383.435,310.938 383.5,310.5C 387.151,299.225 390.151,287.891 392.5,276.5C 394.797,274.706 396.963,272.706 399,270.5C 399.333,271.833 399.667,273.167 400,274.5C 403.667,270.833 407.333,267.167 411,263.5C 411.333,264.5 411.667,265.5 412,266.5C 416,262.5 420,258.5 424,254.5C 424.333,255.5 424.667,256.5 425,257.5C 428.667,253.833 432.333,250.167 436,246.5C 436.333,247.833 436.667,249.167 437,250.5C 439.04,248.63 440.873,246.63 442.5,244.5 Z"/></g>
<g><path style="opacity:1" fill="#0977a0" d="M 194.5,231.5 C 194.761,238.538 194.428,245.538 193.5,252.5C 194.269,260.138 194.769,267.805 195,275.5C 196.667,273.833 198.333,272.167 200,270.5C 200.483,271.448 200.649,272.448 200.5,273.5C 200.335,276.518 200.502,279.518 201,282.5C 203.011,278.998 204.344,278.998 205,282.5C 208.333,279.167 211.667,275.833 215,272.5C 215.333,273.833 215.667,275.167 216,276.5C 219.667,272.833 223.333,269.167 227,265.5C 227.333,266.5 227.667,267.5 228,268.5C 231.333,265.167 234.667,261.833 238,258.5C 238.333,259.5 238.667,260.5 239,261.5C 242.333,258.167 245.667,254.833 249,251.5C 249.21,253.058 249.71,254.391 250.5,255.5C 250.5,256.833 250.5,258.167 250.5,259.5C 243.869,265.631 237.369,271.964 231,278.5C 230.667,277.5 230.333,276.5 230,275.5C 221.298,284.369 212.465,293.036 203.5,301.5C 201.678,298.528 199.844,295.528 198,292.5C 189.624,272.417 188.458,252.084 194.5,231.5 Z"/></g>
<g><path style="opacity:1" fill="#047aa5" d="M 250.5,259.5 C 250.5,268.833 250.5,278.167 250.5,287.5C 243.869,293.631 237.369,299.964 231,306.5C 230.667,304.833 230.333,303.167 230,301.5C 225.631,306.037 221.131,310.37 216.5,314.5C 211.167,311.167 206.833,306.833 203.5,301.5C 212.465,293.036 221.298,284.369 230,275.5C 230.333,276.5 230.667,277.5 231,278.5C 237.369,271.964 243.869,265.631 250.5,259.5 Z"/></g>
<g><path style="opacity:1" fill="#008dcb" d="M 478.5,280.5 C 486.826,287.159 494.492,294.493 501.5,302.5C 500.883,307.584 499.883,312.584 498.5,317.5C 495.606,318.882 493.106,320.882 491,323.5C 490.667,322.5 490.333,321.5 490,320.5C 487,323.5 484,326.5 481,329.5C 480.667,326.833 480.333,324.167 480,321.5C 477,324.5 474,327.5 471,330.5C 470.667,329.5 470.333,328.5 470,327.5C 467,330.5 464,333.5 461,336.5C 460.667,333.833 460.333,331.167 460,328.5C 456.667,331.833 453.333,335.167 450,338.5C 449.667,337.5 449.333,336.5 449,335.5C 446.297,338.371 443.464,341.038 440.5,343.5C 440.664,340.813 440.497,338.146 440,335.5C 437,338.5 434,341.5 431,344.5C 430.667,343.5 430.333,342.5 430,341.5C 427,344.5 424,347.5 421,350.5C 420.667,347.833 420.333,345.167 420,342.5C 417,345.5 414,348.5 411,351.5C 410.667,350.5 410.333,349.5 410,348.5C 407,351.5 404,354.5 401,357.5C 400.667,354.167 400.333,350.833 400,347.5C 397,350.5 394,353.5 391,356.5C 390.667,355.5 390.333,354.5 390,353.5C 387,356.5 384,359.5 381,362.5C 380.667,359.833 380.333,357.167 380,354.5C 377,357.5 374,360.5 371,363.5C 370.667,362.5 370.333,361.5 370,360.5C 367,363.5 364,366.5 361,369.5C 360.667,368.5 360.333,367.5 360,366.5C 357,369.5 354,372.5 351,375.5C 350.503,372.854 350.336,370.187 350.5,367.5C 353.796,363.702 357.296,360.036 361,356.5C 361.333,357.5 361.667,358.5 362,359.5C 366,355.5 370,351.5 374,347.5C 374.333,348.833 374.667,350.167 375,351.5C 378.667,347.833 382.333,344.167 386,340.5C 386.333,341.5 386.667,342.5 387,343.5C 391,339.5 395,335.5 399,331.5C 399.333,332.5 399.667,333.5 400,334.5C 403.667,330.833 407.333,327.167 411,323.5C 411.333,324.833 411.667,326.167 412,327.5C 416,323.5 420,319.5 424,315.5C 424.333,316.5 424.667,317.5 425,318.5C 428.667,314.833 432.333,311.167 436,307.5C 436.333,308.5 436.667,309.5 437,310.5C 441,306.5 445,302.5 449,298.5C 449.333,299.833 449.667,301.167 450,302.5C 453.704,298.964 457.204,295.298 460.5,291.5C 461.302,292.952 461.802,294.618 462,296.5C 467.369,290.964 472.869,285.63 478.5,280.5 Z"/></g>
<g><path style="opacity:1" fill="#038bc6" d="M 460.5,291.5 C 457.204,295.298 453.704,298.964 450,302.5C 449.667,301.167 449.333,299.833 449,298.5C 445,302.5 441,306.5 437,310.5C 436.667,309.5 436.333,308.5 436,307.5C 432.333,311.167 428.667,314.833 425,318.5C 424.667,317.5 424.333,316.5 424,315.5C 420,319.5 416,323.5 412,327.5C 411.667,326.167 411.333,324.833 411,323.5C 407.333,327.167 403.667,330.833 400,334.5C 399.667,333.5 399.333,332.5 399,331.5C 395,335.5 391,339.5 387,343.5C 386.667,342.5 386.333,341.5 386,340.5C 382.333,344.167 378.667,347.833 375,351.5C 374.667,350.167 374.333,348.833 374,347.5C 370,351.5 366,355.5 362,359.5C 361.667,358.5 361.333,357.5 361,356.5C 357.296,360.036 353.796,363.702 350.5,367.5C 349.732,366.737 349.232,365.737 349,364.5C 345,368.5 341,372.5 337,376.5C 336.79,374.942 336.29,373.609 335.5,372.5C 335.5,372.167 335.5,371.833 335.5,371.5C 357.474,355.86 373.474,335.527 383.5,310.5C 383.435,310.938 383.601,311.272 384,311.5C 386.035,309.088 387.035,309.755 387,313.5C 388,312.5 389,311.5 390,310.5C 390.333,312.833 390.667,315.167 391,317.5C 394,314.5 397,311.5 400,308.5C 400.333,309.833 400.667,311.167 401,312.5C 404,309.5 407,306.5 410,303.5C 410.333,304.5 410.667,305.5 411,306.5C 414,303.5 417,300.5 420,297.5C 420.333,300.167 420.667,302.833 421,305.5C 424,302.5 427,299.5 430,296.5C 430.333,297.5 430.667,298.5 431,299.5C 434,296.5 437,293.5 440,290.5C 440.333,293.167 440.667,295.833 441,298.5C 444,295.5 447,292.5 450,289.5C 450.333,290.5 450.667,291.5 451,292.5C 454,289.5 457,286.5 460,283.5C 460.497,286.146 460.664,288.813 460.5,291.5 Z"/></g>
<g><path style="opacity:1" fill="#067eac" d="M 250.5,287.5 C 250.5,289.5 250.5,291.5 250.5,293.5C 259.833,293.5 269.167,293.5 278.5,293.5C 277.542,294.962 276.376,296.295 275,297.5C 274.667,296.5 274.333,295.5 274,294.5C 270,298.5 266,302.5 262,306.5C 261.667,305.167 261.333,303.833 261,302.5C 253.833,309.667 246.667,316.833 239.5,324C 240.056,324.383 240.389,324.883 240.5,325.5C 231.694,323.428 223.694,319.761 216.5,314.5C 221.131,310.37 225.631,306.037 230,301.5C 230.333,303.167 230.667,304.833 231,306.5C 237.369,299.964 243.869,293.631 250.5,287.5 Z"/></g>
<g><path style="opacity:1" fill="#0482b2" d="M 278.5,293.5 C 290.833,293.5 303.167,293.5 315.5,293.5C 311.938,301.58 306.604,308.414 299.5,314C 281.359,325.474 261.693,329.308 240.5,325.5C 240.389,324.883 240.056,324.383 239.5,324C 246.667,316.833 253.833,309.667 261,302.5C 261.333,303.833 261.667,305.167 262,306.5C 266,302.5 270,298.5 274,294.5C 274.333,295.5 274.667,296.5 275,297.5C 276.376,296.295 277.542,294.962 278.5,293.5 Z"/></g>
<g><path style="opacity:0.999" fill="#0092d1" d="M 498.5,317.5 C 496.274,327.176 493.274,336.51 489.5,345.5C 488.603,344.402 487.77,344.402 487,345.5C 486.667,344.167 486.333,342.833 486,341.5C 482.333,345.167 478.667,348.833 475,352.5C 474.667,351.5 474.333,350.5 474,349.5C 470,353.5 466,357.5 462,361.5C 461.667,360.5 461.333,359.5 461,358.5C 457.333,362.167 453.667,365.833 450,369.5C 449.667,366.833 449.333,364.167 449,361.5C 445,365.5 441,369.5 437,373.5C 436.667,372.5 436.333,371.5 436,370.5C 432.333,374.167 428.667,377.833 425,381.5C 424.667,380.167 424.333,378.833 424,377.5C 420,381.5 416,385.5 412,389.5C 411.841,387.657 411.341,386.991 410.5,387.5C 407.203,390.296 404.036,393.296 401,396.5C 400.667,395.5 400.333,394.5 400,393.5C 396.964,396.704 393.797,399.704 390.5,402.5C 390.664,399.813 390.497,397.146 390,394.5C 387,397.5 384,400.5 381,403.5C 380.667,402.5 380.333,401.5 380,400.5C 377,403.5 374,406.5 371,409.5C 370.667,406.833 370.333,404.167 370,401.5C 367,404.5 364,407.5 361,410.5C 360.667,409.5 360.333,408.5 360,407.5C 357,410.5 354,413.5 351,416.5C 350.667,415.167 350.333,413.833 350,412.5C 347,415.5 344,418.5 341,421.5C 340.667,418.5 340.333,415.5 340,412.5C 337,415.5 334,418.5 331,421.5C 330.667,420.167 330.333,418.833 330,417.5C 327,420.5 324,423.5 321,426.5C 320.667,424.167 320.333,421.833 320,419.5C 317,422.5 314,425.5 311,428.5C 310.51,427.207 310.343,425.873 310.5,424.5C 314.797,419.702 319.297,415.035 324,410.5C 324.333,411.833 324.667,413.167 325,414.5C 328.667,410.833 332.333,407.167 336,403.5C 336.333,404.5 336.667,405.5 337,406.5C 341,402.5 345,398.5 349,394.5C 349.333,395.5 349.667,396.5 350,397.5C 353.667,393.833 357.333,390.167 361,386.5C 361.333,387.833 361.667,389.167 362,390.5C 366,386.5 370,382.5 374,378.5C 374.333,380.167 374.667,381.833 375,383.5C 378.667,379.833 382.333,376.167 386,372.5C 386.333,373.5 386.667,374.5 387,375.5C 391,371.5 395,367.5 399,363.5C 399.333,364.833 399.667,366.167 400,367.5C 403.667,363.833 407.333,360.167 411,356.5C 411.333,358.833 411.667,361.167 412,363.5C 416,359.5 420,355.5 424,351.5C 424.333,352.833 424.667,354.167 425,355.5C 428.667,351.833 432.333,348.167 436,344.5C 436.333,345.5 436.667,346.5 437,347.5C 438.376,346.295 439.542,344.962 440.5,343.5C 443.464,341.038 446.297,338.371 449,335.5C 449.333,336.5 449.667,337.5 450,338.5C 453.333,335.167 456.667,331.833 460,328.5C 460.333,331.167 460.667,333.833 461,336.5C 464,333.5 467,330.5 470,327.5C 470.333,328.5 470.667,329.5 471,330.5C 474,327.5 477,324.5 480,321.5C 480.333,324.167 480.667,326.833 481,329.5C 484,326.5 487,323.5 490,320.5C 490.333,321.5 490.667,322.5 491,323.5C 493.106,320.882 495.606,318.882 498.5,317.5 Z"/></g>
<g><path style="opacity:1" fill="#0092cb" d="M 440.5,343.5 C 439.542,344.962 438.376,346.295 437,347.5C 436.667,346.5 436.333,345.5 436,344.5C 432.333,348.167 428.667,351.833 425,355.5C 424.667,354.167 424.333,352.833 424,351.5C 420,355.5 416,359.5 412,363.5C 411.667,361.167 411.333,358.833 411,356.5C 407.333,360.167 403.667,363.833 400,367.5C 399.667,366.167 399.333,364.833 399,363.5C 395,367.5 391,371.5 387,375.5C 386.667,374.5 386.333,373.5 386,372.5C 382.333,376.167 378.667,379.833 375,383.5C 374.667,381.833 374.333,380.167 374,378.5C 370,382.5 366,386.5 362,390.5C 361.667,389.167 361.333,387.833 361,386.5C 357.333,390.167 353.667,393.833 350,397.5C 349.667,396.5 349.333,395.5 349,394.5C 345,398.5 341,402.5 337,406.5C 336.667,405.5 336.333,404.5 336,403.5C 332.333,407.167 328.667,410.833 325,414.5C 324.667,413.167 324.333,411.833 324,410.5C 319.297,415.035 314.797,419.702 310.5,424.5C 307.203,427.296 304.036,430.296 301,433.5C 300.667,432.5 300.333,431.5 300,430.5C 297,433.5 294,436.5 291,439.5C 290.667,436.833 290.333,434.167 290,431.5C 287,434.5 284,437.5 281,440.5C 280.667,439.5 280.333,438.5 280,437.5C 277,440.5 274,443.5 271,446.5C 270.667,445.5 270.333,444.5 270,443.5C 267,446.5 264,449.5 261,452.5C 260.667,451.167 260.333,449.833 260,448.5C 258.296,450.373 256.463,452.04 254.5,453.5C 252.833,452.167 251.167,450.833 249.5,449.5C 247.167,446.833 244.833,444.167 242.5,441.5C 248.071,434.423 254.238,427.756 261,421.5C 261.333,422.833 261.667,424.167 262,425.5C 266,421.5 270,417.5 274,413.5C 274.333,414.5 274.667,415.5 275,416.5C 278.667,412.833 282.333,409.167 286,405.5C 286.333,406.5 286.667,407.5 287,408.5C 291,404.5 295,400.5 299,396.5C 299.333,397.833 299.667,399.167 300,400.5C 303.667,396.833 307.333,393.167 311,389.5C 311.333,390.5 311.667,391.5 312,392.5C 316,388.5 320,384.5 324,380.5C 324.333,381.5 324.667,382.5 325,383.5C 328.704,379.964 332.204,376.298 335.5,372.5C 336.29,373.609 336.79,374.942 337,376.5C 341,372.5 345,368.5 349,364.5C 349.232,365.737 349.732,366.737 350.5,367.5C 350.336,370.187 350.503,372.854 351,375.5C 354,372.5 357,369.5 360,366.5C 360.333,367.5 360.667,368.5 361,369.5C 364,366.5 367,363.5 370,360.5C 370.333,361.5 370.667,362.5 371,363.5C 374,360.5 377,357.5 380,354.5C 380.333,357.167 380.667,359.833 381,362.5C 384,359.5 387,356.5 390,353.5C 390.333,354.5 390.667,355.5 391,356.5C 394,353.5 397,350.5 400,347.5C 400.333,350.833 400.667,354.167 401,357.5C 404,354.5 407,351.5 410,348.5C 410.333,349.5 410.667,350.5 411,351.5C 414,348.5 417,345.5 420,342.5C 420.333,345.167 420.667,347.833 421,350.5C 424,347.5 427,344.5 430,341.5C 430.333,342.5 430.667,343.5 431,344.5C 434,341.5 437,338.5 440,335.5C 440.497,338.146 440.664,340.813 440.5,343.5 Z"/></g>
<g><path style="opacity:0.993" fill="#0094d6" d="M 489.5,345.5 C 487.287,352.916 484.287,359.916 480.5,366.5C 480.565,366.062 480.399,365.728 480,365.5C 477,368.5 474,371.5 471,374.5C 470.667,373.167 470.333,371.833 470,370.5C 467,373.5 464,376.5 461,379.5C 460.667,377.167 460.333,374.833 460,372.5C 457,375.5 454,378.5 451,381.5C 450.667,378.833 450.333,376.167 450,373.5C 447,376.5 444,379.5 441,382.5C 440.667,381.5 440.333,380.5 440,379.5C 437,382.5 434,385.5 431,388.5C 430.667,385.833 430.333,383.167 430,380.5C 427,383.5 424,386.5 421,389.5C 420.667,388.5 420.333,387.5 420,386.5C 417,389.5 414,392.5 411,395.5C 410.503,392.854 410.336,390.187 410.5,387.5C 411.341,386.991 411.841,387.657 412,389.5C 416,385.5 420,381.5 424,377.5C 424.333,378.833 424.667,380.167 425,381.5C 428.667,377.833 432.333,374.167 436,370.5C 436.333,371.5 436.667,372.5 437,373.5C 441,369.5 445,365.5 449,361.5C 449.333,364.167 449.667,366.833 450,369.5C 453.667,365.833 457.333,362.167 461,358.5C 461.333,359.5 461.667,360.5 462,361.5C 466,357.5 470,353.5 474,349.5C 474.333,350.5 474.667,351.5 475,352.5C 478.667,348.833 482.333,345.167 486,341.5C 486.333,342.833 486.667,344.167 487,345.5C 487.77,344.402 488.603,344.402 489.5,345.5 Z"/></g>
<g><path style="opacity:0.997" fill="#11b6ef" d="M 148.5,347.5 C 153.833,353.5 159.5,359.167 165.5,364.5C 167.114,366.456 168.781,368.456 170.5,370.5C 170.5,411.167 170.5,451.833 170.5,492.5C 162.431,489.928 154.764,486.594 147.5,482.5C 147.175,437.636 147.508,392.636 148.5,347.5 Z"/></g>
<g><path style="opacity:0.999" fill="#0098d7" d="M 480.5,366.5 C 477.767,372.298 474.767,377.965 471.5,383.5C 467.933,385.557 464.766,388.223 462,391.5C 461.667,389.167 461.333,386.833 461,384.5C 457.333,388.167 453.667,391.833 450,395.5C 449.667,394.167 449.333,392.833 449,391.5C 445,395.5 441,399.5 437,403.5C 436.667,402.5 436.333,401.5 436,400.5C 432.333,404.167 428.667,407.833 425,411.5C 424.667,410.5 424.333,409.5 424,408.5C 420,412.5 416,416.5 412,420.5C 411.667,419.167 411.333,417.833 411,416.5C 407.333,420.167 403.667,423.833 400,427.5C 399.667,426.5 399.333,425.5 399,424.5C 395,428.5 391,432.5 387,436.5C 386.667,435.5 386.333,434.5 386,433.5C 382.333,437.167 378.667,440.833 375,444.5C 374.667,443.167 374.333,441.833 374,440.5C 370,444.5 366,448.5 362,452.5C 361.667,451.5 361.333,450.5 361,449.5C 357.631,453.037 354.131,456.371 350.5,459.5C 350.649,458.448 350.483,457.448 350,456.5C 347,459.5 344,462.5 341,465.5C 340.667,464.167 340.333,462.833 340,461.5C 337,464.5 334,467.5 331,470.5C 330.667,468.167 330.333,465.833 330,463.5C 327,466.5 324,469.5 321,472.5C 320.667,471.167 320.333,469.833 320,468.5C 317,471.5 314,474.5 311,477.5C 310.667,476.5 310.333,475.5 310,474.5C 307,477.5 304,480.5 301,483.5C 300.667,480.833 300.333,478.167 300,475.5C 297,478.5 294,481.5 291,484.5C 290.667,483.5 290.333,482.5 290,481.5C 288.871,483.141 287.371,484.141 285.5,484.5C 282.5,482.167 279.833,479.5 277.5,476.5C 279.725,472.765 282.558,469.432 286,466.5C 286.333,468.167 286.667,469.833 287,471.5C 291,467.5 295,463.5 299,459.5C 299.333,460.5 299.667,461.5 300,462.5C 303.667,458.833 307.333,455.167 311,451.5C 311.333,452.833 311.667,454.167 312,455.5C 316,451.5 320,447.5 324,443.5C 324.333,444.5 324.667,445.5 325,446.5C 328.667,442.833 332.333,439.167 336,435.5C 336.333,436.5 336.667,437.5 337,438.5C 341,434.5 345,430.5 349,426.5C 349.333,427.833 349.667,429.167 350,430.5C 353.667,426.833 357.333,423.167 361,419.5C 361.333,420.5 361.667,421.5 362,422.5C 366,418.5 370,414.5 374,410.5C 374.333,411.5 374.667,412.5 375,413.5C 378.667,409.833 382.333,406.167 386,402.5C 386.604,407.219 388.104,407.219 390.5,402.5C 393.797,399.704 396.964,396.704 400,393.5C 400.333,394.5 400.667,395.5 401,396.5C 404.036,393.296 407.203,390.296 410.5,387.5C 410.336,390.187 410.503,392.854 411,395.5C 414,392.5 417,389.5 420,386.5C 420.333,387.5 420.667,388.5 421,389.5C 424,386.5 427,383.5 430,380.5C 430.333,383.167 430.667,385.833 431,388.5C 434,385.5 437,382.5 440,379.5C 440.333,380.5 440.667,381.5 441,382.5C 444,379.5 447,376.5 450,373.5C 450.333,376.167 450.667,378.833 451,381.5C 454,378.5 457,375.5 460,372.5C 460.333,374.833 460.667,377.167 461,379.5C 464,376.5 467,373.5 470,370.5C 470.333,371.833 470.667,373.167 471,374.5C 474,371.5 477,368.5 480,365.5C 480.399,365.728 480.565,366.062 480.5,366.5 Z"/></g>
<g><path style="opacity:0.997" fill="#0ab3ef" d="M 170.5,370.5 C 186.5,385.833 202.167,401.5 217.5,417.5C 217.5,446.5 217.5,475.5 217.5,504.5C 201.461,501.907 185.794,497.907 170.5,492.5C 170.5,451.833 170.5,411.167 170.5,370.5 Z"/></g>
<g><path style="opacity:0.989" fill="#009adc" d="M 471.5,383.5 C 456.481,409.522 437.148,431.856 413.5,450.5C 413.062,450.565 412.728,450.399 412.5,450C 415,447.5 417.5,445 420,442.5C 420.667,439.5 420.667,436.5 420,433.5C 417,436.5 414,439.5 411,442.5C 410.667,440.167 410.333,437.833 410,435.5C 407,438.5 404,441.5 401,444.5C 400.667,443.167 400.333,441.833 400,440.5C 397,443.5 394,446.5 391,449.5C 390.667,447.167 390.333,444.833 390,442.5C 387,445.5 384,448.5 381,451.5C 380.667,450.167 380.333,448.833 380,447.5C 377,450.5 374,453.5 371,456.5C 370.667,454.167 370.333,451.833 370,449.5C 367,452.5 364,455.5 361,458.5C 360.667,457.167 360.333,455.833 360,454.5C 357,457.5 354,460.5 351,463.5C 350.51,462.207 350.343,460.873 350.5,459.5C 354.131,456.371 357.631,453.037 361,449.5C 361.333,450.5 361.667,451.5 362,452.5C 366,448.5 370,444.5 374,440.5C 374.333,441.833 374.667,443.167 375,444.5C 378.667,440.833 382.333,437.167 386,433.5C 386.333,434.5 386.667,435.5 387,436.5C 391,432.5 395,428.5 399,424.5C 399.333,425.5 399.667,426.5 400,427.5C 403.667,423.833 407.333,420.167 411,416.5C 411.333,417.833 411.667,419.167 412,420.5C 416,416.5 420,412.5 424,408.5C 424.333,409.5 424.667,410.5 425,411.5C 428.667,407.833 432.333,404.167 436,400.5C 436.333,401.5 436.667,402.5 437,403.5C 441,399.5 445,395.5 449,391.5C 449.333,392.833 449.667,394.167 450,395.5C 453.667,391.833 457.333,388.167 461,384.5C 461.333,386.833 461.667,389.167 462,391.5C 464.766,388.223 467.933,385.557 471.5,383.5 Z"/></g>
<g><path style="opacity:1" fill="#0690c5" d="M 335.5,371.5 C 335.5,371.833 335.5,372.167 335.5,372.5C 332.204,376.298 328.704,379.964 325,383.5C 324.667,382.5 324.333,381.5 324,380.5C 320,384.5 316,388.5 312,392.5C 311.667,391.5 311.333,390.5 311,389.5C 307.333,393.167 303.667,396.833 300,400.5C 299.667,399.167 299.333,397.833 299,396.5C 295,400.5 291,404.5 287,408.5C 286.667,407.5 286.333,406.5 286,405.5C 282.333,409.167 278.667,412.833 275,416.5C 274.667,415.5 274.333,414.5 274,413.5C 270,417.5 266,421.5 262,425.5C 261.667,424.167 261.333,422.833 261,421.5C 254.238,427.756 248.071,434.423 242.5,441.5C 236.833,436.5 231.5,431.167 226.5,425.5C 227.794,424.71 228.961,423.71 230,422.5C 230.333,423.5 230.667,424.5 231,425.5C 241,415.5 251,405.5 261,395.5C 261.333,396.833 261.667,398.167 262,399.5C 263.5,398 265,396.5 266.5,395C 265.906,394.536 265.239,394.369 264.5,394.5C 290.106,393.076 313.773,385.41 335.5,371.5 Z"/></g>
<g><path style="opacity:1" fill="#068cbc" d="M 165.5,364.5 C 194.788,386.303 227.788,396.303 264.5,394.5C 265.239,394.369 265.906,394.536 266.5,395C 265,396.5 263.5,398 262,399.5C 261.667,398.167 261.333,396.833 261,395.5C 251,405.5 241,415.5 231,425.5C 230.667,424.5 230.333,423.5 230,422.5C 228.961,423.71 227.794,424.71 226.5,425.5C 223.5,422.833 220.5,420.167 217.5,417.5C 202.167,401.5 186.5,385.833 170.5,370.5C 168.781,368.456 167.114,366.456 165.5,364.5 Z"/></g>
<g><path style="opacity:1" fill="#0097d1" d="M 390.5,402.5 C 388.104,407.219 386.604,407.219 386,402.5C 382.333,406.167 378.667,409.833 375,413.5C 374.667,412.5 374.333,411.5 374,410.5C 370,414.5 366,418.5 362,422.5C 361.667,421.5 361.333,420.5 361,419.5C 357.333,423.167 353.667,426.833 350,430.5C 349.667,429.167 349.333,427.833 349,426.5C 345,430.5 341,434.5 337,438.5C 336.667,437.5 336.333,436.5 336,435.5C 332.333,439.167 328.667,442.833 325,446.5C 324.667,445.5 324.333,444.5 324,443.5C 320,447.5 316,451.5 312,455.5C 311.667,454.167 311.333,452.833 311,451.5C 307.333,455.167 303.667,458.833 300,462.5C 299.667,461.5 299.333,460.5 299,459.5C 295,463.5 291,467.5 287,471.5C 286.667,469.833 286.333,468.167 286,466.5C 282.558,469.432 279.725,472.765 277.5,476.5C 269.5,469.167 261.833,461.5 254.5,453.5C 256.463,452.04 258.296,450.373 260,448.5C 260.333,449.833 260.667,451.167 261,452.5C 264,449.5 267,446.5 270,443.5C 270.333,444.5 270.667,445.5 271,446.5C 274,443.5 277,440.5 280,437.5C 280.333,438.5 280.667,439.5 281,440.5C 284,437.5 287,434.5 290,431.5C 290.333,434.167 290.667,436.833 291,439.5C 294,436.5 297,433.5 300,430.5C 300.333,431.5 300.667,432.5 301,433.5C 304.036,430.296 307.203,427.296 310.5,424.5C 310.343,425.873 310.51,427.207 311,428.5C 314,425.5 317,422.5 320,419.5C 320.333,421.833 320.667,424.167 321,426.5C 324,423.5 327,420.5 330,417.5C 330.333,418.833 330.667,420.167 331,421.5C 334,418.5 337,415.5 340,412.5C 340.333,415.5 340.667,418.5 341,421.5C 344,418.5 347,415.5 350,412.5C 350.333,413.833 350.667,415.167 351,416.5C 354,413.5 357,410.5 360,407.5C 360.333,408.5 360.667,409.5 361,410.5C 364,407.5 367,404.5 370,401.5C 370.333,404.167 370.667,406.833 371,409.5C 374,406.5 377,403.5 380,400.5C 380.333,401.5 380.667,402.5 381,403.5C 384,400.5 387,397.5 390,394.5C 390.497,397.146 390.664,399.813 390.5,402.5 Z"/></g>
<g><path style="opacity:0.996" fill="#03b0ee" d="M 217.5,417.5 C 220.5,420.167 223.5,422.833 226.5,425.5C 231.5,431.167 236.833,436.5 242.5,441.5C 244.833,444.167 247.167,446.833 249.5,449.5C 249.82,468.909 249.487,488.243 248.5,507.5C 238.166,506.708 227.833,505.708 217.5,504.5C 217.5,475.5 217.5,446.5 217.5,417.5 Z"/></g>
<g><path style="opacity:0.996" fill="#009edd" d="M 413.5,450.5 C 381.37,477.726 344.37,495.059 302.5,502.5C 296.833,496.5 291.167,490.5 285.5,484.5C 287.371,484.141 288.871,483.141 290,481.5C 290.333,482.5 290.667,483.5 291,484.5C 294,481.5 297,478.5 300,475.5C 300.333,478.167 300.667,480.833 301,483.5C 304,480.5 307,477.5 310,474.5C 310.333,475.5 310.667,476.5 311,477.5C 314,474.5 317,471.5 320,468.5C 320.333,469.833 320.667,471.167 321,472.5C 324,469.5 327,466.5 330,463.5C 330.333,465.833 330.667,468.167 331,470.5C 334,467.5 337,464.5 340,461.5C 340.333,462.833 340.667,464.167 341,465.5C 344,462.5 347,459.5 350,456.5C 350.483,457.448 350.649,458.448 350.5,459.5C 350.343,460.873 350.51,462.207 351,463.5C 354,460.5 357,457.5 360,454.5C 360.333,455.833 360.667,457.167 361,458.5C 364,455.5 367,452.5 370,449.5C 370.333,451.833 370.667,454.167 371,456.5C 374,453.5 377,450.5 380,447.5C 380.333,448.833 380.667,450.167 381,451.5C 384,448.5 387,445.5 390,442.5C 390.333,444.833 390.667,447.167 391,449.5C 394,446.5 397,443.5 400,440.5C 400.333,441.833 400.667,443.167 401,444.5C 404,441.5 407,438.5 410,435.5C 410.333,437.833 410.667,440.167 411,442.5C 414,439.5 417,436.5 420,433.5C 420.667,436.5 420.667,439.5 420,442.5C 417.5,445 415,447.5 412.5,450C 412.728,450.399 413.062,450.565 413.5,450.5 Z"/></g>
<g><path style="opacity:0.986" fill="#00acec" d="M 249.5,449.5 C 251.167,450.833 252.833,452.167 254.5,453.5C 261.833,461.5 269.5,469.167 277.5,476.5C 279.833,479.5 282.5,482.167 285.5,484.5C 291.167,490.5 296.833,496.5 302.5,502.5C 284.713,505.905 266.713,507.572 248.5,507.5C 249.487,488.243 249.82,468.909 249.5,449.5 Z"/></g>
</svg>
