<?xml version="1.0" encoding="UTF-8"?>
<!DOCTYPE svg PUBLIC "-//W3C//DTD SVG 1.1//EN" "http://www.w3.org/Graphics/SVG/1.1/DTD/svg11.dtd">
<svg xmlns="http://www.w3.org/2000/svg" version="1.1" width="512px" height="512px" style="shape-rendering:geometricPrecision; text-rendering:geometricPrecision; image-rendering:optimizeQuality; fill-rule:evenodd; clip-rule:evenodd" xmlns:xlink="http://www.w3.org/1999/xlink">
<g><path style="opacity:0.97" fill="#22c1f2" d="M 241.5,0.5 C 241.5,0.166667 241.5,-0.166667 241.5,-0.5C 250.833,-0.5 260.167,-0.5 269.5,-0.5C 304.316,6.13623 329.483,25.4696 345,57.5C 347.807,63.9213 349.807,70.588 351,77.5C 352.416,95.4584 352.916,113.458 352.5,131.5C 348.443,126.41 344.61,121.077 341,115.5C 340.809,117.708 340.309,119.708 339.5,121.5C 344.192,91.9022 337.692,65.2355 320,41.5C 301.457,20.9828 278.29,10.9828 250.5,11.5C 248.952,7.93933 246.952,4.606 244.5,1.5C 243.675,0.614324 242.675,0.28099 241.5,0.5 Z"/></g>
<g><path style="opacity:0.952" fill="#2cb7ea" d="M 241.5,0.5 C 242.675,0.28099 243.675,0.614324 244.5,1.5C 246.952,4.606 248.952,7.93933 250.5,11.5C 232.006,13.1034 215.672,19.7701 201.5,31.5C 199.416,27.6641 197.083,23.9974 194.5,20.5C 208.092,9.21038 223.759,2.54372 241.5,0.5 Z"/></g>
<g><path style="opacity:0.991" fill="#3ba7de" d="M 194.5,20.5 C 197.083,23.9974 199.416,27.6641 201.5,31.5C 184.937,45.2806 175.104,62.9473 172,84.5C 171.5,103.497 171.333,122.497 171.5,141.5C 176.5,141.5 181.5,141.5 186.5,141.5C 187.268,140.737 187.768,139.737 188,138.5C 205.177,164.195 222.344,189.862 239.5,215.5C 226.252,226.936 224.085,240.269 233,255.5C 237.386,260.772 242.886,264.105 249.5,265.5C 249.5,272.5 249.5,279.5 249.5,286.5C 216.808,238.462 184.475,190.129 152.5,141.5C 154.5,141.5 156.5,141.5 158.5,141.5C 158.333,122.164 158.5,102.83 159,83.5C 162.554,57.7141 174.388,36.7141 194.5,20.5 Z"/></g>
<g><path style="opacity:0.987" fill="#28bbed" d="M 339.5,121.5 C 340.309,119.708 340.809,117.708 341,115.5C 344.61,121.077 348.443,126.41 352.5,131.5C 352.5,134.833 352.5,138.167 352.5,141.5C 364.89,139.521 375.057,143.188 383,152.5C 384.275,154.717 385.275,157.051 386,159.5C 386.5,192.165 386.667,224.832 386.5,257.5C 361.196,220.01 336.03,182.343 311,144.5C 310.53,143.423 310.697,142.423 311.5,141.5C 311.667,123.83 311.5,106.164 311,88.5C 305.71,61.5433 289.543,45.7099 262.5,41C 255.816,40.4536 249.149,40.6203 242.5,41.5C 239.917,38.0026 237.584,34.3359 235.5,30.5C 268.956,22.0412 295.456,32.0412 315,60.5C 318.453,66.8592 321.119,73.5258 323,80.5C 324.427,100.793 324.927,121.126 324.5,141.5C 329.5,141.5 334.5,141.5 339.5,141.5C 339.5,134.833 339.5,128.167 339.5,121.5 Z"/></g>
<g><path style="opacity:0.992" fill="#36abe1" d="M 235.5,30.5 C 237.584,34.3359 239.917,38.0026 242.5,41.5C 219.188,48.7248 205.022,64.3915 200,88.5C 199.5,106.164 199.333,123.83 199.5,141.5C 206.833,141.5 214.167,141.5 221.5,141.5C 226.651,142.327 231.984,142.827 237.5,143C 285.908,215.008 333.908,287.174 381.5,359.5C 377.988,364.095 373.322,366.929 367.5,368C 358.506,368.5 349.506,368.666 340.5,368.5C 319.602,336.386 298.436,304.386 277,272.5C 274.607,269.048 272.774,265.381 271.5,261.5C 285.167,249.52 287,235.854 277,220.5C 265.736,209.446 253.236,207.78 239.5,215.5C 222.344,189.862 205.177,164.195 188,138.5C 187.768,139.737 187.268,140.737 186.5,141.5C 186.333,123.164 186.5,104.83 187,86.5C 190.463,65.0518 201.297,48.5518 219.5,37C 224.525,33.9845 229.858,31.8178 235.5,30.5 Z"/></g>
<g><path style="opacity:0.989" fill="#32afe4" d="M 221.5,141.5 C 239.833,141.5 258.167,141.5 276.5,141.5C 271.349,142.327 266.016,142.827 260.5,143C 302,205.167 343.5,267.333 385,329.5C 385.179,325.975 385.679,322.641 386.5,319.5C 386.666,329.839 386.5,340.172 386,350.5C 385.014,353.806 383.514,356.806 381.5,359.5C 333.908,287.174 285.908,215.008 237.5,143C 231.984,142.827 226.651,142.327 221.5,141.5 Z"/></g>
<g><path style="opacity:0.998" fill="#2fb3e7" d="M 276.5,141.5 C 288.167,141.5 299.833,141.5 311.5,141.5C 310.697,142.423 310.53,143.423 311,144.5C 336.03,182.343 361.196,220.01 386.5,257.5C 386.5,278.167 386.5,298.833 386.5,319.5C 385.679,322.641 385.179,325.975 385,329.5C 343.5,267.333 302,205.167 260.5,143C 266.016,142.827 271.349,142.327 276.5,141.5 Z"/></g>
<g><path style="opacity:0.997" fill="#41a0d9" d="M 152.5,141.5 C 184.475,190.129 216.808,238.462 249.5,286.5C 249.239,290.342 249.906,294.009 251.5,297.5C 253.173,299.086 255.173,299.753 257.5,299.5C 272.366,322.057 287.366,344.557 302.5,367C 299.635,367.183 296.969,367.683 294.5,368.5C 281.5,368.5 268.5,368.5 255.5,368.5C 253.696,367.619 252.196,366.286 251,364.5C 209.667,302.5 168.333,240.5 127,178.5C 126.155,176.389 125.322,174.389 124.5,172.5C 122.669,152 132.003,141.667 152.5,141.5 Z"/></g>
<g><path style="opacity:0.995" fill="#459bd5" d="M 124.5,172.5 C 125.322,174.389 126.155,176.389 127,178.5C 168.333,240.5 209.667,302.5 251,364.5C 252.196,366.286 253.696,367.619 255.5,368.5C 250.5,368.5 245.5,368.5 240.5,368.5C 237.023,367.677 233.356,367.177 229.5,367C 194.601,314.682 159.601,262.515 124.5,210.5C 124.5,197.833 124.5,185.167 124.5,172.5 Z"/></g>
<g><path style="opacity:0.994" fill="#4998d2" d="M 124.5,210.5 C 159.601,262.515 194.601,314.682 229.5,367C 233.356,367.177 237.023,367.677 240.5,368.5C 222.167,368.5 203.833,368.5 185.5,368.5C 187.631,367.686 189.964,367.186 192.5,367C 169.97,332.99 147.304,299.156 124.5,265.5C 124.5,247.167 124.5,228.833 124.5,210.5 Z"/></g>
<g><path style="opacity:0.958" fill="#3aa8df" d="M 251.5,221.5 C 261.904,220.441 268.738,224.774 272,234.5C 272.068,253.066 263.234,259.233 245.5,253C 236.979,244.629 236.312,235.629 243.5,226C 246.099,224.205 248.766,222.705 251.5,221.5 Z"/></g>
<g><path style="opacity:0.991" fill="#3ca6dd" d="M 271.5,261.5 C 272.774,265.381 274.607,269.048 277,272.5C 298.436,304.386 319.602,336.386 340.5,368.5C 325.167,368.5 309.833,368.5 294.5,368.5C 296.969,367.683 299.635,367.183 302.5,367C 287.366,344.557 272.366,322.057 257.5,299.5C 259.41,298.025 260.576,296.025 261,293.5C 261.5,284.173 261.666,274.839 261.5,265.5C 265.259,265.138 268.593,263.805 271.5,261.5 Z"/></g>
<g><path style="opacity:0.992" fill="#4e93cf" d="M 124.5,265.5 C 147.304,299.156 169.97,332.99 192.5,367C 189.964,367.186 187.631,367.686 185.5,368.5C 171.496,368.667 157.496,368.5 143.5,368C 133.778,365.945 127.611,360.112 125,350.5C 124.5,322.169 124.333,293.835 124.5,265.5 Z"/></g>
<g><path style="opacity:0.965" fill="#548cca" d="M 182.5,386.5 C 175.011,387.329 167.344,387.829 159.5,388C 169.477,402.132 178.811,416.632 187.5,431.5C 184.569,433.091 181.902,435.091 179.5,437.5C 178.672,433.204 178.172,428.871 178,424.5C 174.171,420.337 170.837,420.671 168,425.5C 167.667,429.5 167.333,433.5 167,437.5C 164.5,435.667 162,433.833 159.5,432C 155.061,430.765 152.394,432.432 151.5,437C 154.88,442.047 159.214,446.047 164.5,449C 162.559,451.454 160.225,453.287 157.5,454.5C 144.167,434.5 130.833,414.5 117.5,394.5C 122.726,391.475 128.393,389.309 134.5,388C 150.467,386.655 166.467,386.155 182.5,386.5 Z"/></g>
<g><path style="opacity:0.992" fill="#4e92ce" d="M 182.5,386.5 C 182.833,386.5 183.167,386.5 183.5,386.5C 190.989,387.329 198.656,387.829 206.5,388C 216.829,402.844 226.496,418.011 235.5,433.5C 234.489,435.402 234.322,437.402 235,439.5C 239.006,442.676 242.84,446.009 246.5,449.5C 242.84,452.991 239.006,456.324 235,459.5C 234.167,465.333 236.667,467.833 242.5,467C 244.388,464.81 246.555,462.977 249,461.5C 249.208,465.918 249.874,470.251 251,474.5C 255.752,478.389 259.252,477.389 261.5,471.5C 270.982,484.451 279.982,497.784 288.5,511.5C 272.833,511.5 257.167,511.5 241.5,511.5C 226.23,487.278 210.23,463.611 193.5,440.5C 195.239,434.974 193.239,431.974 187.5,431.5C 178.811,416.632 169.477,402.132 159.5,388C 167.344,387.829 175.011,387.329 182.5,386.5 Z"/></g>
<g><path style="opacity:0.998" fill="#459cd6" d="M 183.5,386.5 C 222.167,386.5 260.833,386.5 299.5,386.5C 301.788,387.074 303.955,388.074 306,389.5C 314.362,402.912 323.195,415.912 332.5,428.5C 332.817,431.572 332.484,434.572 331.5,437.5C 328.254,433.705 324.254,431.872 319.5,432C 316.455,434.448 315.955,437.281 318,440.5C 321.672,443.342 325.172,446.342 328.5,449.5C 325.172,452.658 321.672,455.658 318,458.5C 315.708,464.751 317.875,467.584 324.5,467C 326.977,465.357 329.31,463.524 331.5,461.5C 332.327,465.459 332.827,469.459 333,473.5C 336.118,478.658 339.451,478.658 343,473.5C 343.333,469.5 343.667,465.5 344,461.5C 346.5,463.333 349,465.167 351.5,467C 353.545,467.49 355.545,467.323 357.5,466.5C 366.526,480.518 375.526,494.518 384.5,508.5C 381.449,509.632 378.449,510.632 375.5,511.5C 358.5,511.5 341.5,511.5 324.5,511.5C 308.856,486.538 292.856,461.872 276.5,437.5C 276.243,434.075 274.41,432.075 271,431.5C 267.72,432.981 264.72,434.981 262,437.5C 260.731,433.351 260.065,429.018 260,424.5C 257,420.5 254,420.5 251,424.5C 249.874,428.749 249.208,433.082 249,437.5C 245.938,433.707 242.104,431.874 237.5,432C 236.956,432.717 236.289,433.217 235.5,433.5C 226.496,418.011 216.829,402.844 206.5,388C 198.656,387.829 190.989,387.329 183.5,386.5 Z"/></g>
<g><path style="opacity:0.995" fill="#3ca5dd" d="M 299.5,386.5 C 317.5,386.5 335.5,386.5 353.5,386.5C 374.103,418.722 395.437,450.388 417.5,481.5C 409.828,494.5 398.828,503.5 384.5,508.5C 375.526,494.518 366.526,480.518 357.5,466.5C 358.39,464.218 358.556,461.885 358,459.5C 354.072,456.117 350.239,452.617 346.5,449C 350.61,446.191 354.443,443.025 358,439.5C 359.668,433.507 357.502,431.007 351.5,432C 349,433.833 346.5,435.667 344,437.5C 343.667,433.5 343.333,429.5 343,425.5C 340.163,420.671 336.829,420.337 333,424.5C 332.51,425.793 332.343,427.127 332.5,428.5C 323.195,415.912 314.362,402.912 306,389.5C 303.955,388.074 301.788,387.074 299.5,386.5 Z"/></g>
<g><path style="opacity:0.982" fill="#37abe1" d="M 353.5,386.5 C 389.65,384.527 413.483,400.527 425,434.5C 428.737,451.292 426.237,466.958 417.5,481.5C 395.437,450.388 374.103,418.722 353.5,386.5 Z"/></g>
<g><path style="opacity:0.996" fill="#5986c5" d="M 117.5,394.5 C 130.833,414.5 144.167,434.5 157.5,454.5C 156.207,456.296 154.707,457.963 153,459.5C 151.28,465.444 153.447,467.944 159.5,467C 162,465.167 164.5,463.333 167,461.5C 167.333,465.5 167.667,469.5 168,473.5C 169.432,475.439 171.265,476.772 173.5,477.5C 180.413,489.085 187.747,500.418 195.5,511.5C 179.833,511.5 164.167,511.5 148.5,511.5C 129.167,482.167 109.833,452.833 90.5,423.5C 95.7146,410.286 104.715,400.62 117.5,394.5 Z"/></g>
<g><path style="opacity:0.99" fill="#5e81c2" d="M 90.5,423.5 C 109.833,452.833 129.167,482.167 148.5,511.5C 144.167,511.5 139.833,511.5 135.5,511.5C 97.3971,500.003 80.8971,474.337 86,434.5C 87.0377,430.532 88.5377,426.865 90.5,423.5 Z"/></g>
<g><path style="opacity:0.99" fill="#4998d3" d="M 276.5,437.5 C 292.856,461.872 308.856,486.538 324.5,511.5C 312.5,511.5 300.5,511.5 288.5,511.5C 279.982,497.784 270.982,484.451 261.5,471.5C 259.577,460.702 261.911,459.202 268.5,467C 274.333,467.833 276.833,465.333 276,459.5C 271.994,456.324 268.16,452.991 264.5,449.5C 267.329,446.841 270.329,444.341 273.5,442C 275.141,440.871 276.141,439.371 276.5,437.5 Z"/></g>
<g><path style="opacity:0.989" fill="#548cca" d="M 193.5,440.5 C 210.23,463.611 226.23,487.278 241.5,511.5C 226.167,511.5 210.833,511.5 195.5,511.5C 187.747,500.418 180.413,489.085 173.5,477.5C 175.708,476.977 177.208,475.644 178,473.5C 178.173,469.459 178.673,465.459 179.5,461.5C 181.69,463.524 184.023,465.357 186.5,467C 193.152,467.517 195.319,464.684 193,458.5C 189.328,455.658 185.828,452.658 182.5,449.5C 185.871,446.129 189.537,443.129 193.5,440.5 Z"/></g>
</svg>
