<?xml version="1.0" encoding="UTF-8"?>
<!DOCTYPE svg PUBLIC "-//W3C//DTD SVG 1.1//EN" "http://www.w3.org/Graphics/SVG/1.1/DTD/svg11.dtd">
<svg xmlns="http://www.w3.org/2000/svg" version="1.1" width="512px" height="512px" style="shape-rendering:geometricPrecision; text-rendering:geometricPrecision; image-rendering:optimizeQuality; fill-rule:evenodd; clip-rule:evenodd" xmlns:xlink="http://www.w3.org/1999/xlink">
<g><path style="opacity:0.984" fill="#e6f7ff" d="M 243.5,-0.5 C 247.5,-0.5 251.5,-0.5 255.5,-0.5C 255.5,9.83333 255.5,20.1667 255.5,30.5C 234.677,31.6653 220.51,41.9987 213,61.5C 211.97,65.7727 211.303,70.106 211,74.5C 210.5,89.4963 210.333,104.496 210.5,119.5C 200.5,119.5 190.5,119.5 180.5,119.5C 180.333,100.164 180.5,80.8305 181,61.5C 186.143,35.0527 200.976,16.2194 225.5,5C 231.519,2.83459 237.519,1.00126 243.5,-0.5 Z"/></g>
<g><path style="opacity:1" fill="#cce6ff" d="M 255.5,-0.5 C 259.5,-0.5 263.5,-0.5 267.5,-0.5C 301.046,7.212 321.879,27.8787 330,61.5C 330.5,80.8305 330.667,100.164 330.5,119.5C 320.5,119.5 310.5,119.5 300.5,119.5C 300.667,104.496 300.5,89.4963 300,74.5C 298.368,53.7278 287.868,39.5611 268.5,32C 264.249,30.8054 259.915,30.3054 255.5,30.5C 255.5,20.1667 255.5,9.83333 255.5,-0.5 Z"/></g>
<g><path style="opacity:1" fill="#f9be2b" d="M 180.5,119.5 C 190.5,119.5 200.5,119.5 210.5,119.5C 225.5,119.5 240.5,119.5 255.5,119.5C 255.5,139.833 255.5,160.167 255.5,180.5C 250.5,180.5 245.5,180.5 240.5,180.5C 240.5,190.5 240.5,200.5 240.5,210.5C 245.5,210.5 250.5,210.5 255.5,210.5C 255.5,230.833 255.5,251.167 255.5,271.5C 220.5,271.5 185.5,271.5 150.5,271.5C 150.5,220.833 150.5,170.167 150.5,119.5C 160.5,119.5 170.5,119.5 180.5,119.5 Z"/></g>
<g><path style="opacity:1" fill="#fe9100" d="M 255.5,119.5 C 270.5,119.5 285.5,119.5 300.5,119.5C 310.5,119.5 320.5,119.5 330.5,119.5C 340.5,119.5 350.5,119.5 360.5,119.5C 360.5,170.167 360.5,220.833 360.5,271.5C 325.5,271.5 290.5,271.5 255.5,271.5C 255.5,251.167 255.5,230.833 255.5,210.5C 260.5,210.5 265.5,210.5 270.5,210.5C 270.5,200.5 270.5,190.5 270.5,180.5C 265.5,180.5 260.5,180.5 255.5,180.5C 255.5,160.167 255.5,139.833 255.5,119.5 Z"/></g>
<g><path style="opacity:1" fill="#464f53" d="M 255.5,180.5 C 255.5,190.5 255.5,200.5 255.5,210.5C 250.5,210.5 245.5,210.5 240.5,210.5C 240.5,200.5 240.5,190.5 240.5,180.5C 245.5,180.5 250.5,180.5 255.5,180.5 Z"/></g>
<g><path style="opacity:1" fill="#31393e" d="M 255.5,180.5 C 260.5,180.5 265.5,180.5 270.5,180.5C 270.5,190.5 270.5,200.5 270.5,210.5C 265.5,210.5 260.5,210.5 255.5,210.5C 255.5,200.5 255.5,190.5 255.5,180.5 Z"/></g>
<g><path style="opacity:0.984" fill="#464f54" d="M 60.5,316.5 C 70.5,316.5 80.5,316.5 90.5,316.5C 90.3335,326.839 90.5002,337.172 91,347.5C 98,342.833 105,338.167 112,333.5C 117.957,341.913 123.79,350.413 129.5,359C 119.659,365.42 109.993,372.087 100.5,379C 106.015,384.348 111.348,389.848 116.5,395.5C 109.5,403.167 102.167,410.5 94.5,417.5C 88.1667,411.5 81.8333,405.5 75.5,399.5C 69.3479,405.152 63.3479,410.985 57.5,417C 56.8333,417.667 56.1667,417.667 55.5,417C 48.3187,409.986 41.3187,402.819 34.5,395.5C 39.6517,389.848 44.985,384.348 50.5,379C 41.0074,372.087 31.3407,365.42 21.5,359C 27.2098,350.413 33.0432,341.913 39,333.5C 46,338.167 53,342.833 60,347.5C 60.4998,337.172 60.6665,326.839 60.5,316.5 Z"/></g>
<g><path style="opacity:0.984" fill="#464f54" d="M 180.5,316.5 C 190.5,316.5 200.5,316.5 210.5,316.5C 210.334,326.839 210.5,337.172 211,347.5C 218,342.833 225,338.167 232,333.5C 237.957,341.913 243.79,350.413 249.5,359C 239.659,365.42 229.993,372.087 220.5,379C 226.015,384.348 231.348,389.848 236.5,395.5C 229.5,403.167 222.167,410.5 214.5,417.5C 208.167,411.5 201.833,405.5 195.5,399.5C 189.348,405.152 183.348,410.985 177.5,417C 176.833,417.667 176.167,417.667 175.5,417C 168.319,409.986 161.319,402.819 154.5,395.5C 159.652,389.848 164.985,384.348 170.5,379C 161.007,372.087 151.341,365.42 141.5,359C 147.21,350.413 153.043,341.913 159,333.5C 166,338.167 173,342.833 180,347.5C 180.5,337.172 180.666,326.839 180.5,316.5 Z"/></g>
<g><path style="opacity:0.992" fill="#31393e" d="M 300.5,316.5 C 310.5,316.5 320.5,316.5 330.5,316.5C 330.334,326.839 330.5,337.172 331,347.5C 338,342.833 345,338.167 352,333.5C 357.957,341.913 363.79,350.413 369.5,359C 359.659,365.42 349.993,372.087 340.5,379C 346.015,384.348 351.348,389.848 356.5,395.5C 349.5,403.167 342.167,410.5 334.5,417.5C 328.167,411.5 321.833,405.5 315.5,399.5C 309.348,405.152 303.348,410.985 297.5,417C 296.833,417.667 296.167,417.667 295.5,417C 288.319,409.986 281.319,402.819 274.5,395.5C 279.652,389.848 284.985,384.348 290.5,379C 281.007,372.087 271.341,365.42 261.5,359C 267.21,350.413 273.043,341.913 279,333.5C 286,338.167 293,342.833 300,347.5C 300.5,337.172 300.666,326.839 300.5,316.5 Z"/></g>
<g><path style="opacity:0.992" fill="#31393e" d="M 420.5,316.5 C 430.5,316.5 440.5,316.5 450.5,316.5C 450.334,326.839 450.5,337.172 451,347.5C 458,342.833 465,338.167 472,333.5C 477.957,341.913 483.79,350.413 489.5,359C 479.659,365.42 469.993,372.087 460.5,379C 466.015,384.348 471.348,389.848 476.5,395.5C 469.5,403.167 462.167,410.5 454.5,417.5C 448.167,411.5 441.833,405.5 435.5,399.5C 429.348,405.152 423.348,410.985 417.5,417C 416.833,417.667 416.167,417.667 415.5,417C 408.319,409.986 401.319,402.819 394.5,395.5C 399.652,389.848 404.985,384.348 410.5,379C 401.007,372.087 391.341,365.42 381.5,359C 387.21,350.413 393.043,341.913 399,333.5C 406,338.167 413,342.833 420,347.5C 420.5,337.172 420.666,326.839 420.5,316.5 Z"/></g>
<g><path style="opacity:1" fill="#464f53" d="M 105.5,511.5 C 85.5,511.5 65.5,511.5 45.5,511.5C 45.5,501.5 45.5,491.5 45.5,481.5C 65.5,481.5 85.5,481.5 105.5,481.5C 105.5,491.5 105.5,501.5 105.5,511.5 Z"/></g>
<g><path style="opacity:1" fill="#464f53" d="M 225.5,511.5 C 205.5,511.5 185.5,511.5 165.5,511.5C 165.5,501.5 165.5,491.5 165.5,481.5C 185.5,481.5 205.5,481.5 225.5,481.5C 225.5,491.5 225.5,501.5 225.5,511.5 Z"/></g>
<g><path style="opacity:1" fill="#31393e" d="M 345.5,511.5 C 325.5,511.5 305.5,511.5 285.5,511.5C 285.5,501.5 285.5,491.5 285.5,481.5C 305.5,481.5 325.5,481.5 345.5,481.5C 345.5,491.5 345.5,501.5 345.5,511.5 Z"/></g>
<g><path style="opacity:1" fill="#31393e" d="M 465.5,511.5 C 445.5,511.5 425.5,511.5 405.5,511.5C 405.5,501.5 405.5,491.5 405.5,481.5C 425.5,481.5 445.5,481.5 465.5,481.5C 465.5,491.5 465.5,501.5 465.5,511.5 Z"/></g>
</svg>
