<?xml version="1.0" encoding="UTF-8"?>
<!DOCTYPE svg PUBLIC "-//W3C//DTD SVG 1.1//EN" "http://www.w3.org/Graphics/SVG/1.1/DTD/svg11.dtd">
<svg xmlns="http://www.w3.org/2000/svg" version="1.1" width="400px" height="400px" style="shape-rendering:geometricPrecision; text-rendering:geometricPrecision; image-rendering:optimizeQuality; fill-rule:evenodd; clip-rule:evenodd" xmlns:xlink="http://www.w3.org/1999/xlink">
<g><path style="opacity:0.682" fill="#5e5063" d="M 214.5,56.5 C 211.223,56.7839 208.057,56.4505 205,55.5C 204.536,56.0944 204.369,56.7611 204.5,57.5C 203.761,57.631 203.094,57.4643 202.5,57C 203.09,55.7011 204.09,54.8678 205.5,54.5C 208.674,54.9908 211.674,55.6575 214.5,56.5 Z"/></g>
<g><path style="opacity:0.792" fill="#3d3545" d="M 189.5,54.5 C 190.991,54.9014 192.658,55.068 194.5,55C 195.784,56.2975 195.617,57.4642 194,58.5C 193.667,58.1667 193.333,57.8333 193,57.5C 189.255,58.4884 185.422,59.155 181.5,59.5C 181.281,58.325 181.614,57.325 182.5,56.5C 184.982,55.9329 187.316,55.2663 189.5,54.5 Z"/></g>
<g><path style="opacity:0.733" fill="#332b3a" d="M 214.5,56.5 C 216.048,56.8212 216.715,57.8212 216.5,59.5C 212.336,59.0443 208.336,58.3777 204.5,57.5C 204.369,56.7611 204.536,56.0944 205,55.5C 208.057,56.4505 211.223,56.7839 214.5,56.5 Z"/></g>
<g><path style="opacity:0.871" fill="#42394a" d="M 170.5,58.5 C 174.327,58.4401 174.994,59.6068 172.5,62C 169.256,62.97 166.09,64.1366 163,65.5C 160.8,65.107 160.3,64.107 161.5,62.5C 164.601,61.1432 167.601,59.8099 170.5,58.5 Z"/></g>
<g><path style="opacity:0.824" fill="#40334b" d="M 146.5,51.5 C 155.034,53.2693 157.868,58.2693 155,66.5C 151.146,70.6706 146.646,71.5039 141.5,69C 135.587,60.9124 137.253,55.079 146.5,51.5 Z M 144.5,55.5 C 149.076,54.787 152.076,56.6203 153.5,61C 151.319,67.9647 147.486,69.1314 142,64.5C 140.927,60.9003 141.76,57.9003 144.5,55.5 Z"/></g>
<g><path style="opacity:0.937" fill="#403749" d="M 225.5,58.5 C 229.28,59.4276 232.947,60.7609 236.5,62.5C 237.386,63.325 237.719,64.325 237.5,65.5C 233.314,64.7713 229.314,63.4379 225.5,61.5C 224.438,60.5754 224.438,59.5754 225.5,58.5 Z"/></g>
<g><path style="opacity:0.753" fill="#3b3144" d="M 244.5,67.5 C 248.024,67.9289 251.024,69.4289 253.5,72C 255.421,73.2408 255.754,74.7408 254.5,76.5C 250.833,74 247.167,71.5 243.5,69C 244.056,68.6174 244.389,68.1174 244.5,67.5 Z"/></g>
<g><path style="opacity:0.976" fill="#433c68" d="M 160.5,81.5 C 161.167,84.8333 161.833,88.1667 162.5,91.5C 162.5,91.8333 162.5,92.1667 162.5,92.5C 160.167,93.1667 157.833,93.8333 155.5,94.5C 150.5,93.8333 145.5,93.1667 140.5,92.5C 147.09,92.811 153.59,92.4777 160,91.5C 159.91,77.8334 153.077,73.0001 139.5,77C 135.164,80.8392 133.497,85.6725 134.5,91.5C 133.698,90.0484 133.198,88.3817 133,86.5C 132.505,88.4727 132.338,90.4727 132.5,92.5C 129.606,80.4178 134.439,74.0845 147,73.5C 149.824,74.0539 152.657,74.5539 155.5,75C 158.493,76.1585 160.16,78.3252 160.5,81.5 Z"/></g>
<g><path style="opacity:0.332" fill="#c9bddb" d="M 202.5,78.5 C 202.5,80.8333 202.5,83.1667 202.5,85.5C 201.596,84.791 201.263,83.791 201.5,82.5C 193.908,82.5791 186.575,83.5791 179.5,85.5C 178.5,85.1667 177.833,84.5 177.5,83.5C 186.079,82.3525 194.413,80.6858 202.5,78.5 Z"/></g>
<g><path style="opacity:0.961" fill="#46384f" d="M 269.5,86.5 C 268.577,87.3029 267.577,87.4696 266.5,87C 267.71,85.9609 268.71,84.7942 269.5,83.5C 270.599,80.6646 272.599,78.6646 275.5,77.5C 276.308,77.8076 276.975,78.3076 277.5,79C 274.943,81.7267 272.277,84.2267 269.5,86.5 Z"/></g>
<g><path style="opacity:1" fill="#9fa6e8" d="M 140.5,92.5 C 138.265,92.7947 136.265,92.4614 134.5,91.5C 133.497,85.6725 135.164,80.8392 139.5,77C 153.077,73.0001 159.91,77.8334 160,91.5C 153.59,92.4777 147.09,92.811 140.5,92.5 Z"/></g>
<g><path style="opacity:1" fill="#9facfc" d="M 146.5,77.5 C 148.527,77.3379 150.527,77.5045 152.5,78C 153.424,82.0963 155.424,85.5963 158.5,88.5C 157.624,89.2508 156.624,89.7508 155.5,90C 148.842,90.4996 142.175,90.6663 135.5,90.5C 135.215,88.712 135.548,87.0453 136.5,85.5C 138.636,84.5276 139.803,82.8609 140,80.5C 142.63,80.1408 144.797,79.1408 146.5,77.5 Z"/></g>
<g><path style="opacity:0.027" fill="#685684" d="M 160.5,81.5 C 162.554,84.0076 163.554,87.0076 163.5,90.5C 163.5,91.1667 163.167,91.5 162.5,91.5C 161.833,88.1667 161.167,84.8333 160.5,81.5 Z"/></g>
<g><path style="opacity:0.094" fill="#68547e" d="M 237.5,81.5 C 245.305,83.525 253.305,84.025 261.5,83C 262.044,82.2828 262.711,81.7828 263.5,81.5C 263.5,81.8333 263.5,82.1667 263.5,82.5C 259.285,84.4364 254.619,85.1031 249.5,84.5C 245.774,84.8226 242.107,84.4892 238.5,83.5C 238.137,82.8165 237.804,82.1499 237.5,81.5 Z"/></g>
<g><path style="opacity:1" fill="#dddefa" d="M 202.5,85.5 C 202.989,88.4665 204.155,91.1332 206,93.5C 210.062,97.7312 214.229,101.731 218.5,105.5C 218.666,112.508 218.5,119.508 218,126.5C 212.606,131.558 207.606,136.891 203,142.5C 201.734,146.395 201.234,150.395 201.5,154.5C 199.846,159.185 196.513,160.685 191.5,159C 191.07,158.08 190.736,157.247 190.5,156.5C 186.544,157.329 182.544,157.995 178.5,158.5C 174.166,158.448 169.832,158.115 165.5,157.5C 165.5,156.5 165.5,155.5 165.5,154.5C 168.495,154.706 171.162,154.04 173.5,152.5C 180.284,152.92 186.95,152.42 193.5,151C 194.17,135.692 186.837,129.692 171.5,133C 168.344,135.14 166.01,137.974 164.5,141.5C 163.5,141.5 162.5,141.5 161.5,141.5C 161.201,139.396 161.534,137.396 162.5,135.5C 165.256,133.909 167.089,131.576 168,128.5C 169.4,127.252 170.9,126.252 172.5,125.5C 178.244,129.851 183.078,128.851 187,122.5C 188.219,116.601 186.052,112.601 180.5,110.5C 179.708,109.482 178.041,109.149 175.5,109.5C 175.539,107.641 174.706,106.308 173,105.5C 171.331,107.861 169.665,110.194 168,112.5C 167.667,111.5 167.333,110.5 167,109.5C 166.583,110.756 165.75,111.423 164.5,111.5C 164.5,109.5 164.5,107.5 164.5,105.5C 165.552,105.649 166.552,105.483 167.5,105C 165.845,103.556 165.178,101.722 165.5,99.5C 167.92,99.2924 170.253,99.6258 172.5,100.5C 173.192,99.9747 173.692,99.3081 174,98.5C 176.254,104.818 178.754,104.985 181.5,99C 180.089,95.7405 178.423,92.5739 176.5,89.5C 174.253,88.6258 171.92,88.2924 169.5,88.5C 171.279,87.3303 172.279,85.6636 172.5,83.5C 180.808,89.0763 186.475,96.743 189.5,106.5C 189.833,105.833 190.167,105.167 190.5,104.5C 188.074,97.4168 184.407,91.0835 179.5,85.5C 186.575,83.5791 193.908,82.5791 201.5,82.5C 201.263,83.791 201.596,84.791 202.5,85.5 Z"/></g>
<g><path style="opacity:0.949" fill="#3c304a" d="M 237.5,81.5 C 237.804,82.1499 238.137,82.8165 238.5,83.5C 242.107,84.4892 245.774,84.8226 249.5,84.5C 245.558,84.8746 241.891,85.8746 238.5,87.5C 235.879,89.9987 233.379,89.6654 231,86.5C 229.57,86.6938 228.07,86.6938 226.5,86.5C 224.491,87.0654 222.824,88.0654 221.5,89.5C 220.507,97.9839 220.174,106.651 220.5,115.5C 220.5,116.167 220.5,116.833 220.5,117.5C 220.167,117.5 219.833,117.5 219.5,117.5C 219.817,113.298 219.483,109.298 218.5,105.5C 214.229,101.731 210.062,97.7312 206,93.5C 204.155,91.1332 202.989,88.4665 202.5,85.5C 202.5,83.1667 202.5,80.8333 202.5,78.5C 203.172,75.6572 204.505,73.1572 206.5,71C 212.554,66.5553 218.887,65.8887 225.5,69C 229.816,72.9641 233.816,77.1308 237.5,81.5 Z M 218.5,99.5 C 217.5,99.5 216.5,99.5 215.5,99.5C 212.538,96.0359 209.371,92.7025 206,89.5C 202.747,78.9921 206.414,72.6587 217,70.5C 219.3,70.4944 221.466,70.9944 223.5,72C 228.315,75.648 232.648,79.8147 236.5,84.5C 235.635,85.5827 234.635,85.7494 233.5,85C 230.952,82.1149 228.118,79.6149 225,77.5C 222.738,78.3825 220.571,79.3825 218.5,80.5C 216.971,80.4712 215.804,79.8045 215,78.5C 212.176,79.8333 212.343,81.3333 215.5,83C 218.711,83.7982 221.711,83.2982 224.5,81.5C 225.308,81.8076 225.975,82.3076 226.5,83C 222.88,83.2838 220.38,85.1171 219,88.5C 218.501,92.1516 218.335,95.8183 218.5,99.5 Z"/></g>
<g><path style="opacity:0.982" fill="#63567e" d="M 264.5,82.5 C 265.167,82.5 265.833,82.5 266.5,82.5C 267.209,83.404 268.209,83.7373 269.5,83.5C 268.71,84.7942 267.71,85.9609 266.5,87C 267.577,87.4696 268.577,87.3029 269.5,86.5C 268.92,88.7488 267.587,90.4154 265.5,91.5C 265.672,90.5084 265.338,89.8417 264.5,89.5C 264.443,88.391 264.11,87.391 263.5,86.5C 264.239,86.631 264.906,86.4643 265.5,86C 264.663,84.9887 264.33,83.8221 264.5,82.5 Z"/></g>
<g><path style="opacity:0.337" fill="#6f5a73" d="M 221.5,89.5 C 221.776,97.986 221.776,106.319 221.5,114.5C 224.211,114.815 226.544,114.148 228.5,112.5C 228.5,113.5 228.5,114.5 228.5,115.5C 225.833,115.5 223.167,115.5 220.5,115.5C 220.174,106.651 220.507,97.9839 221.5,89.5 Z"/></g>
<g><path style="opacity:0.884" fill="#231c4b" d="M 134.5,91.5 C 136.265,92.4614 138.265,92.7947 140.5,92.5C 145.5,93.1667 150.5,93.8333 155.5,94.5C 155.167,94.5 154.833,94.5 154.5,94.5C 147.798,94.6643 141.131,94.331 134.5,93.5C 133.508,93.6716 132.842,93.3382 132.5,92.5C 132.338,90.4727 132.505,88.4727 133,86.5C 133.198,88.3817 133.698,90.0484 134.5,91.5 Z"/></g>
<g><path style="opacity:1" fill="#dcdefa" d="M 169.5,88.5 C 171.92,88.2924 174.253,88.6258 176.5,89.5C 178.423,92.5739 180.089,95.7405 181.5,99C 178.754,104.985 176.254,104.818 174,98.5C 173.692,99.3081 173.192,99.9747 172.5,100.5C 170.253,99.6258 167.92,99.2924 165.5,99.5C 165.178,101.722 165.845,103.556 167.5,105C 166.552,105.483 165.552,105.649 164.5,105.5C 164.5,107.5 164.5,109.5 164.5,111.5C 163.668,111.246 163.001,110.246 162.5,108.5C 160.304,106.455 157.97,106.122 155.5,107.5C 153.738,108.262 152.738,109.596 152.5,111.5C 149.666,113.502 147.333,116.002 145.5,119C 143.86,119.348 142.527,118.848 141.5,117.5C 145.95,107.048 152.95,98.7147 162.5,92.5C 162.5,92.1667 162.5,91.8333 162.5,91.5C 163.167,91.5 163.5,91.1667 163.5,90.5C 165.5,89.8333 167.5,89.1667 169.5,88.5 Z"/></g>
<g><path style="opacity:0.965" fill="#43394d" d="M 265.5,98.5 C 264.833,98.5 264.5,98.1667 264.5,97.5C 264.5,97.1667 264.5,96.8333 264.5,96.5C 267.28,92.0473 270.946,88.714 275.5,86.5C 273.358,91.3248 270.025,95.3248 265.5,98.5 Z"/></g>
<g><path style="opacity:0.252" fill="#64578a" d="M 134.5,93.5 C 141.131,94.331 147.798,94.6643 154.5,94.5C 154.5,94.8333 154.5,95.1667 154.5,95.5C 148.824,95.6661 143.157,95.4994 137.5,95C 136.263,94.7679 135.263,94.2679 134.5,93.5 Z"/></g>
<g><path style="opacity:0.796" fill="#40364b" d="M 121.5,79.5 C 123.103,79.3118 124.437,79.8118 125.5,81C 115.38,87.7499 108.547,96.9166 105,108.5C 103.513,106.728 103.18,104.728 104,102.5C 107.439,92.9279 113.273,85.2613 121.5,79.5 Z"/></g>
<g><path style="opacity:0.333" fill="#8378a4" d="M 263.5,93.5 C 262.185,94.8946 262.519,95.8946 264.5,96.5C 264.5,96.8333 264.5,97.1667 264.5,97.5C 263.5,97.5 262.5,97.5 261.5,97.5C 261.157,95.5168 261.824,94.1834 263.5,93.5 Z"/></g>
<g><path style="opacity:0.824" fill="#42374c" d="M 282.5,105.5 C 282.167,105.5 281.833,105.5 281.5,105.5C 280.833,105.5 280.5,105.167 280.5,104.5C 285.803,98.3555 290.969,92.0222 296,85.5C 296.894,73.7242 291.727,68.5576 280.5,70C 278.228,70.9411 276.228,72.2745 274.5,74C 271.629,76.7028 268.962,79.5361 266.5,82.5C 265.833,82.5 265.167,82.5 264.5,82.5C 264.167,82.5 263.833,82.5 263.5,82.5C 263.5,82.1667 263.5,81.8333 263.5,81.5C 267.72,75.7787 272.72,70.9453 278.5,67C 290.475,64.3003 297.808,68.967 300.5,81C 299.67,83.8017 298.837,86.635 298,89.5C 293.33,95.3367 288.163,100.67 282.5,105.5 Z"/></g>
<g><path style="opacity:1" fill="#46405e" d="M 177.5,83.5 C 177.833,84.5 178.5,85.1667 179.5,85.5C 184.407,91.0835 188.074,97.4168 190.5,104.5C 190.167,105.167 189.833,105.833 189.5,106.5C 186.475,96.743 180.808,89.0763 172.5,83.5C 170.107,82.6473 168.774,80.9806 168.5,78.5C 172.244,78.928 175.244,80.5947 177.5,83.5 Z"/></g>
<g><path style="opacity:1" fill="#433d6b" d="M 264.5,89.5 C 265.338,89.8417 265.672,90.5084 265.5,91.5C 265.167,92.5 264.5,93.1667 263.5,93.5C 261.824,94.1834 261.157,95.5168 261.5,97.5C 262.5,97.5 263.5,97.5 264.5,97.5C 264.5,98.1667 264.833,98.5 265.5,98.5C 264.266,102.566 265.266,103.233 268.5,100.5C 268.263,101.791 268.596,102.791 269.5,103.5C 269.735,104.097 270.235,104.43 271,104.5C 272.303,104.022 273.469,103.355 274.5,102.5C 273.31,105.906 273.977,106.239 276.5,103.5C 276.821,105.048 277.821,105.715 279.5,105.5C 279.389,106.117 279.056,106.617 278.5,107C 280.321,109.456 280.988,112.289 280.5,115.5C 280.167,115.5 279.833,115.5 279.5,115.5C 279.5,113.167 279.5,110.833 279.5,108.5C 277.173,108.753 275.173,108.086 273.5,106.5C 272.707,106.931 271.873,107.265 271,107.5C 267.773,106.228 264.607,104.894 261.5,103.5C 260.888,99.837 260.721,96.1703 261,92.5C 262.039,91.2899 263.206,90.2899 264.5,89.5 Z"/></g>
<g><path style="opacity:0.929" fill="#3d3246" d="M 276.5,103.5 C 273.977,106.239 273.31,105.906 274.5,102.5C 276.999,99.8314 279.332,96.9981 281.5,94C 282.9,92.5619 284.567,91.7286 286.5,91.5C 284.328,96.3501 280.994,100.35 276.5,103.5 Z"/></g>
<g><path style="opacity:0.961" fill="#3e3346" d="M 269.5,103.5 C 268.596,102.791 268.263,101.791 268.5,100.5C 271.604,96.3889 275.271,93.0555 279.5,90.5C 279.649,91.552 279.483,92.552 279,93.5C 275.629,96.7025 272.462,100.036 269.5,103.5 Z"/></g>
<g><path style="opacity:0.018" fill="#9286a9" d="M 215.5,99.5 C 216.5,99.5 217.5,99.5 218.5,99.5C 219.132,104.583 218.132,104.583 215.5,99.5 Z"/></g>
<g><path style="opacity:1" fill="#9fa2e2" d="M 263.5,86.5 C 264.11,87.391 264.443,88.391 264.5,89.5C 263.206,90.2899 262.039,91.2899 261,92.5C 260.721,96.1703 260.888,99.837 261.5,103.5C 260.17,107.918 257.17,109.585 252.5,108.5C 252.737,109.791 252.404,110.791 251.5,111.5C 251.5,110.167 251.5,108.833 251.5,107.5C 258.369,107.462 260.869,104.129 259,97.5C 257.152,94.9586 254.652,93.9586 251.5,94.5C 251.5,91.8333 251.5,89.1667 251.5,86.5C 255.5,86.5 259.5,86.5 263.5,86.5 Z"/></g>
<g><path style="opacity:1" fill="#3b335f" d="M 263.5,82.5 C 263.833,82.5 264.167,82.5 264.5,82.5C 264.33,83.8221 264.663,84.9887 265.5,86C 264.906,86.4643 264.239,86.631 263.5,86.5C 259.5,86.5 255.5,86.5 251.5,86.5C 251.5,89.1667 251.5,91.8333 251.5,94.5C 254.652,93.9586 257.152,94.9586 259,97.5C 260.869,104.129 258.369,107.462 251.5,107.5C 251.5,108.833 251.5,110.167 251.5,111.5C 251.157,113.483 251.824,114.817 253.5,115.5C 252.295,116.686 250.961,116.686 249.5,115.5C 249.5,112.5 249.5,109.5 249.5,106.5C 251.343,105.717 253.343,105.05 255.5,104.5C 258.08,102.287 258.08,100.12 255.5,98C 253.655,96.872 251.655,96.372 249.5,96.5C 248.955,93.1869 248.455,89.8536 248,86.5C 244.785,87.1913 241.619,87.5246 238.5,87.5C 241.891,85.8746 245.558,84.8746 249.5,84.5C 254.619,85.1031 259.285,84.4364 263.5,82.5 Z"/></g>
<g><path style="opacity:0.373" fill="#cabfe2" d="M 162.5,92.5 C 152.95,98.7147 145.95,107.048 141.5,117.5C 140.833,117.5 140.5,117.167 140.5,116.5C 140.5,115.833 140.5,115.167 140.5,114.5C 141.376,114.631 142.043,114.298 142.5,113.5C 145.07,106.42 149.403,100.587 155.5,96C 155.272,95.6012 154.938,95.4346 154.5,95.5C 154.5,95.1667 154.5,94.8333 154.5,94.5C 154.833,94.5 155.167,94.5 155.5,94.5C 157.833,93.8333 160.167,93.1667 162.5,92.5 Z"/></g>
<g><path style="opacity:0.929" fill="#553635" d="M 240.5,109.5 C 241.15,111.435 241.483,113.435 241.5,115.5C 243.833,115.5 246.167,115.5 248.5,115.5C 248.833,116.167 249.167,116.833 249.5,117.5C 246.833,117.5 244.167,117.5 241.5,117.5C 239.692,116.082 239.025,114.082 239.5,111.5C 237.749,108.805 235.416,108.139 232.5,109.5C 230.771,111.851 230.104,114.518 230.5,117.5C 227.167,117.5 223.833,117.5 220.5,117.5C 220.5,116.833 220.5,116.167 220.5,115.5C 223.167,115.5 225.833,115.5 228.5,115.5C 228.5,114.5 228.5,113.5 228.5,112.5C 229.797,107.345 233.13,105.512 238.5,107C 239.381,107.708 240.047,108.542 240.5,109.5 Z"/></g>
<g><path style="opacity:1" fill="#554235" d="M 155.5,107.5 C 157.099,107.232 158.432,107.566 159.5,108.5C 156.697,108.961 154.363,110.295 152.5,112.5C 152.5,112.167 152.5,111.833 152.5,111.5C 152.738,109.596 153.738,108.262 155.5,107.5 Z"/></g>
<g><path style="opacity:1" fill="#e5c48f" d="M 239.5,111.5 C 237.167,111.5 234.833,111.5 232.5,111.5C 232.946,114.01 232.28,116.01 230.5,117.5C 230.104,114.518 230.771,111.851 232.5,109.5C 235.416,108.139 237.749,108.805 239.5,111.5 Z"/></g>
<g><path style="opacity:0.004" fill="#8b7291" d="M 133.5,114.5 C 135.688,113.377 138.021,113.377 140.5,114.5C 140.5,115.167 140.5,115.833 140.5,116.5C 138.412,115.061 136.079,114.394 133.5,114.5 Z"/></g>
<g><path style="opacity:1" fill="#a2abf6" d="M 261.5,103.5 C 264.607,104.894 267.773,106.228 271,107.5C 271.873,107.265 272.707,106.931 273.5,106.5C 275.173,108.086 277.173,108.753 279.5,108.5C 279.5,110.833 279.5,113.167 279.5,115.5C 276.5,115.5 273.5,115.5 270.5,115.5C 271.196,122.997 268.363,124.997 262,121.5C 261.505,119.527 261.338,117.527 261.5,115.5C 258.833,115.5 256.167,115.5 253.5,115.5C 251.824,114.817 251.157,113.483 251.5,111.5C 252.404,110.791 252.737,109.791 252.5,108.5C 257.17,109.585 260.17,107.918 261.5,103.5 Z"/></g>
<g><path style="opacity:0.137" fill="#755976" d="M 249.5,106.5 C 249.5,109.5 249.5,112.5 249.5,115.5C 249.167,115.5 248.833,115.5 248.5,115.5C 246.167,115.5 243.833,115.5 241.5,115.5C 241.483,113.435 241.15,111.435 240.5,109.5C 242.213,110.635 242.88,112.302 242.5,114.5C 244.5,114.5 246.5,114.5 248.5,114.5C 248.194,111.615 248.527,108.948 249.5,106.5 Z"/></g>
<g><path style="opacity:1" fill="#533c41" d="M 155.5,107.5 C 157.97,106.122 160.304,106.455 162.5,108.5C 162.628,110.655 162.128,112.655 161,114.5C 156.167,120 151.333,125.5 146.5,131C 142.453,129.167 138.453,127 134.5,124.5C 129.668,121.403 129.335,118.069 133.5,114.5C 136.079,114.394 138.412,115.061 140.5,116.5C 140.5,117.167 140.833,117.5 141.5,117.5C 142.527,118.848 143.86,119.348 145.5,119C 147.333,116.002 149.666,113.502 152.5,111.5C 152.5,111.833 152.5,112.167 152.5,112.5C 150.526,116.114 147.859,119.114 144.5,121.5C 142.173,120.177 139.84,118.843 137.5,117.5C 136.432,116.566 135.099,116.232 133.5,116.5C 133.232,118.099 133.566,119.432 134.5,120.5C 137.669,124.535 141.669,127.035 146.5,128C 151,122.833 155.5,117.667 160,112.5C 160.765,110.934 160.598,109.601 159.5,108.5C 158.432,107.566 157.099,107.232 155.5,107.5 Z"/></g>
<g><path style="opacity:1" fill="#e4c7b0" d="M 137.5,117.5 C 135.5,117.5 134.5,118.5 134.5,120.5C 133.566,119.432 133.232,118.099 133.5,116.5C 135.099,116.232 136.432,116.566 137.5,117.5 Z"/></g>
<g><path style="opacity:1" fill="#f6ce7c" d="M 239.5,111.5 C 239.025,114.082 239.692,116.082 241.5,117.5C 243.292,118.309 245.292,118.809 247.5,119C 248.801,120.616 248.801,122.116 247.5,123.5C 247.5,122.5 247.5,121.5 247.5,120.5C 244.428,120.817 241.428,120.484 238.5,119.5C 237.833,117.5 237.167,115.5 236.5,113.5C 235.675,112.614 234.675,112.281 233.5,112.5C 234.024,120.307 230.691,122.64 223.5,119.5C 223.5,120.5 223.5,121.5 223.5,122.5C 222.566,121.432 222.232,120.099 222.5,118.5C 225.385,118.806 228.052,118.473 230.5,117.5C 232.28,116.01 232.946,114.01 232.5,111.5C 234.833,111.5 237.167,111.5 239.5,111.5 Z"/></g>
<g><path style="opacity:0.98" fill="#443c54" d="M 180.5,110.5 C 186.052,112.601 188.219,116.601 187,122.5C 183.078,128.851 178.244,129.851 172.5,125.5C 172.068,124.29 171.401,123.29 170.5,122.5C 169.628,114.883 172.961,110.883 180.5,110.5 Z M 180.5,113.5 C 181.702,115.392 183.035,117.226 184.5,119C 183.871,121.375 182.871,123.541 181.5,125.5C 179.097,125.552 176.764,125.219 174.5,124.5C 173.735,121.904 173.401,119.237 173.5,116.5C 175.213,114.15 177.547,113.15 180.5,113.5 Z"/></g>
<g><path style="opacity:0.192" fill="#9684a3" d="M 180.5,113.5 C 185.662,115.697 186.829,119.364 184,124.5C 183.329,125.252 182.496,125.586 181.5,125.5C 182.871,123.541 183.871,121.375 184.5,119C 183.035,117.226 181.702,115.392 180.5,113.5 Z"/></g>
<g><path style="opacity:0.016" fill="#8b7a95" d="M 173.5,116.5 C 173.401,119.237 173.735,121.904 174.5,124.5C 172.974,123.508 172.307,122.008 172.5,120C 172.514,118.615 172.848,117.449 173.5,116.5 Z"/></g>
<g><path style="opacity:1" fill="#e2c298" d="M 220.5,117.5 C 223.833,117.5 227.167,117.5 230.5,117.5C 228.052,118.473 225.385,118.806 222.5,118.5C 222.232,120.099 222.566,121.432 223.5,122.5C 223.5,122.833 223.5,123.167 223.5,123.5C 222.5,123.5 221.5,123.5 220.5,123.5C 220.5,121.5 220.5,119.5 220.5,117.5 Z"/></g>
<g><path style="opacity:1" fill="#ebc885" d="M 159.5,108.5 C 160.598,109.601 160.765,110.934 160,112.5C 155.5,117.667 151,122.833 146.5,128C 141.669,127.035 137.669,124.535 134.5,120.5C 134.5,118.5 135.5,117.5 137.5,117.5C 139.84,118.843 142.173,120.177 144.5,121.5C 147.859,119.114 150.526,116.114 152.5,112.5C 154.363,110.295 156.697,108.961 159.5,108.5 Z"/></g>
<g><path style="opacity:1" fill="#f9cd69" d="M 247.5,123.5 C 245.801,123.34 244.134,123.506 242.5,124C 241.748,124.671 241.414,125.504 241.5,126.5C 240.167,126.5 238.833,126.5 237.5,126.5C 237.5,125.5 237.5,124.5 237.5,123.5C 232.881,122.686 228.214,122.353 223.5,122.5C 223.5,121.5 223.5,120.5 223.5,119.5C 230.691,122.64 234.024,120.307 233.5,112.5C 234.675,112.281 235.675,112.614 236.5,113.5C 237.167,115.5 237.833,117.5 238.5,119.5C 241.428,120.484 244.428,120.817 247.5,120.5C 247.5,121.5 247.5,122.5 247.5,123.5 Z"/></g>
<g><path style="opacity:1" fill="#f6cc81" d="M 223.5,123.5 C 223.5,123.167 223.5,122.833 223.5,122.5C 228.214,122.353 232.881,122.686 237.5,123.5C 237.5,124.5 237.5,125.5 237.5,126.5C 238.833,126.5 240.167,126.5 241.5,126.5C 241.5,126.833 241.5,127.167 241.5,127.5C 240.209,127.263 239.209,127.596 238.5,128.5C 236.858,126.919 234.858,126.253 232.5,126.5C 231.833,126.5 231.5,126.167 231.5,125.5C 228.997,124.629 226.33,123.963 223.5,123.5 Z"/></g>
<g><path style="opacity:1" fill="#623769" d="M 248.5,115.5 C 248.833,115.5 249.167,115.5 249.5,115.5C 250.961,116.686 252.295,116.686 253.5,115.5C 256.167,115.5 258.833,115.5 261.5,115.5C 261.338,117.527 261.505,119.527 262,121.5C 268.363,124.997 271.196,122.997 270.5,115.5C 273.5,115.5 276.5,115.5 279.5,115.5C 279.833,115.5 280.167,115.5 280.5,115.5C 280.5,116.167 280.5,116.833 280.5,117.5C 277.5,117.5 274.5,117.5 271.5,117.5C 271.423,125.682 267.756,127.682 260.5,123.5C 259.539,121.735 259.205,119.735 259.5,117.5C 256.302,116.964 253.635,117.631 251.5,119.5C 250.833,119.167 250.167,118.833 249.5,118.5C 249.5,118.167 249.5,117.833 249.5,117.5C 249.167,116.833 248.833,116.167 248.5,115.5 Z"/></g>
<g><path style="opacity:0.4" fill="#684673" d="M 281.5,105.5 C 281.833,105.5 282.167,105.5 282.5,105.5C 282.334,112.508 282.5,119.508 283,126.5C 284.045,127.373 284.878,128.373 285.5,129.5C 284.833,129.5 284.167,129.5 283.5,129.5C 283.217,128.711 282.717,128.044 282,127.5C 281.5,120.174 281.334,112.841 281.5,105.5 Z"/></g>
<g><path style="opacity:1" fill="#402c2c" d="M 219.5,117.5 C 219.833,117.5 220.167,117.5 220.5,117.5C 220.5,119.5 220.5,121.5 220.5,123.5C 221.5,123.5 222.5,123.5 223.5,123.5C 223.833,124.167 224.167,124.833 224.5,125.5C 224.167,125.5 223.833,125.5 223.5,125.5C 222.5,125.5 221.5,125.5 220.5,125.5C 219.527,123.052 219.194,120.385 219.5,117.5 Z"/></g>
<g><path style="opacity:1" fill="#9b7858" d="M 223.5,123.5 C 226.33,123.963 228.997,124.629 231.5,125.5C 229.167,125.5 226.833,125.5 224.5,125.5C 224.167,124.833 223.833,124.167 223.5,123.5 Z"/></g>
<g><path style="opacity:1" fill="#eec28f" d="M 241.5,117.5 C 244.167,117.5 246.833,117.5 249.5,117.5C 249.5,117.833 249.5,118.167 249.5,118.5C 249.5,120.833 249.5,123.167 249.5,125.5C 246.579,125.283 243.913,125.949 241.5,127.5C 241.5,127.167 241.5,126.833 241.5,126.5C 241.414,125.504 241.748,124.671 242.5,124C 244.134,123.506 245.801,123.34 247.5,123.5C 248.801,122.116 248.801,120.616 247.5,119C 245.292,118.809 243.292,118.309 241.5,117.5 Z"/></g>
<g><path style="opacity:0.078" fill="#8c7594" d="M 174.5,124.5 C 176.764,125.219 179.097,125.552 181.5,125.5C 180.726,126.147 179.726,126.48 178.5,126.5C 176.645,126.66 175.312,125.993 174.5,124.5 Z"/></g>
<g><path style="opacity:0.863" fill="#40304d" d="M 111.5,110.5 C 121.746,110.015 125.579,114.681 123,124.5C 119.297,129.35 114.797,130.35 109.5,127.5C 103.912,121.105 104.579,115.438 111.5,110.5 Z M 119.5,124.5 C 114.496,126.64 110.83,125.307 108.5,120.5C 110.382,113.099 114.215,111.766 120,116.5C 120.602,119.221 120.435,121.887 119.5,124.5 Z"/></g>
<g><path style="opacity:0.224" fill="#765f80" d="M 108.5,120.5 C 110.83,125.307 114.496,126.64 119.5,124.5C 119.389,125.117 119.056,125.617 118.5,126C 112.893,127.929 109.56,126.095 108.5,120.5 Z"/></g>
<g><path style="opacity:1" fill="#6e3338" d="M 249.5,118.5 C 250.167,118.833 250.833,119.167 251.5,119.5C 251.5,122.167 251.5,124.833 251.5,127.5C 249.143,127.337 246.81,127.503 244.5,128C 241.64,131.03 241.973,133.697 245.5,136C 247.708,136.191 249.708,136.691 251.5,137.5C 251.5,140.5 251.5,143.5 251.5,146.5C 250.833,146.5 250.167,146.5 249.5,146.5C 249.5,143.833 249.5,141.167 249.5,138.5C 242.36,138.337 239.694,134.67 241.5,127.5C 243.913,125.949 246.579,125.283 249.5,125.5C 249.5,123.167 249.5,120.833 249.5,118.5 Z"/></g>
<g><path style="opacity:0.031" fill="#857097" d="M 220.5,125.5 C 221.5,125.5 222.5,125.5 223.5,125.5C 224.954,127.263 224.62,128.597 222.5,129.5C 221.833,128.833 221.167,128.167 220.5,127.5C 220.5,126.833 220.5,126.167 220.5,125.5 Z"/></g>
<g><path style="opacity:1" fill="#fc8098" d="M 252.5,137.5 C 253.467,132.778 253.8,128.111 253.5,123.5C 254.281,122.263 255.281,121.263 256.5,120.5C 257.134,122.772 258.468,124.439 260.5,125.5C 261.312,126.993 262.645,127.66 264.5,127.5C 267.14,126.905 269.807,126.572 272.5,126.5C 272.338,124.473 272.505,122.473 273,120.5C 274.299,120.034 275.799,120.034 277.5,120.5C 277.815,128.42 277.482,136.253 276.5,144C 275.391,144.638 274.225,145.138 273,145.5C 270.991,144.396 268.824,143.729 266.5,143.5C 262.829,144.115 259.162,144.281 255.5,144C 254.269,141.834 253.269,139.667 252.5,137.5 Z"/></g>
<g><path style="opacity:0.059" fill="#957e9d" d="M 235.5,128.5 C 236.434,129.568 236.768,130.901 236.5,132.5C 235.167,133.5 233.833,134.5 232.5,135.5C 232.703,133.956 233.37,132.622 234.5,131.5C 233.767,130.913 232.767,130.913 231.5,131.5C 232.262,129.738 233.596,128.738 235.5,128.5 Z"/></g>
<g><path style="opacity:1" fill="#dddffd" d="M 170.5,122.5 C 171.401,123.29 172.068,124.29 172.5,125.5C 170.9,126.252 169.4,127.252 168,128.5C 167.089,131.576 165.256,133.909 162.5,135.5C 161.534,137.396 161.201,139.396 161.5,141.5C 162.5,141.5 163.5,141.5 164.5,141.5C 161.23,150.233 164.23,153.9 173.5,152.5C 171.162,154.04 168.495,154.706 165.5,154.5C 165.5,155.5 165.5,156.5 165.5,157.5C 157.398,160.113 149.064,161.113 140.5,160.5C 141.725,158.551 141.058,157.218 138.5,156.5C 138.977,155.522 139.643,154.689 140.5,154C 139.534,150.565 139.534,147.065 140.5,143.5C 138.833,143.5 137.167,143.5 135.5,143.5C 134.846,139.161 135.846,135.327 138.5,132C 141.173,132.063 141.173,132.729 138.5,134C 140.081,134.707 141.581,135.54 143,136.5C 143.779,135.272 144.779,134.272 146,133.5C 147.465,134.33 148.965,134.496 150.5,134C 150.167,133.667 149.833,133.333 149.5,133C 152.83,130 155.996,126.833 159,123.5C 159.72,121.888 159.554,120.388 158.5,119C 159.793,118.51 161.127,118.343 162.5,118.5C 162.5,117.5 162.5,116.5 162.5,115.5C 163.552,115.351 164.552,115.517 165.5,116C 166.648,118.638 168.315,120.804 170.5,122.5 Z"/></g>
<g><path style="opacity:0.871" fill="#3b2941" d="M 223.5,125.5 C 223.833,125.5 224.167,125.5 224.5,125.5C 226.833,125.5 229.167,125.5 231.5,125.5C 231.5,126.167 231.833,126.5 232.5,126.5C 233.5,127.167 234.5,127.833 235.5,128.5C 233.596,128.738 232.262,129.738 231.5,131.5C 228.747,135.924 225.08,139.257 220.5,141.5C 222.334,136.988 225.334,133.321 229.5,130.5C 231.466,129.745 231.8,128.579 230.5,127C 228.648,126.227 227.314,126.727 226.5,128.5C 224.882,130.785 222.882,132.785 220.5,134.5C 218.323,135.504 217.989,134.838 219.5,132.5C 220.167,131.167 221.167,130.167 222.5,129.5C 224.62,128.597 224.954,127.263 223.5,125.5 Z"/></g>
<g><path style="opacity:0.004" fill="#7c607a" d="M 229.5,130.5 C 229.649,129.448 229.483,128.448 229,127.5C 228.329,128.252 227.496,128.586 226.5,128.5C 227.314,126.727 228.648,126.227 230.5,127C 231.8,128.579 231.466,129.745 229.5,130.5 Z"/></g>
<g><path style="opacity:1" fill="#dbdcf4" d="M 180.5,110.5 C 172.961,110.883 169.628,114.883 170.5,122.5C 168.315,120.804 166.648,118.638 165.5,116C 164.552,115.517 163.552,115.351 162.5,115.5C 162.5,116.5 162.5,117.5 162.5,118.5C 161.127,118.343 159.793,118.51 158.5,119C 159.554,120.388 159.72,121.888 159,123.5C 155.996,126.833 152.83,130 149.5,133C 149.833,133.333 150.167,133.667 150.5,134C 148.965,134.496 147.465,134.33 146,133.5C 144.779,134.272 143.779,135.272 143,136.5C 141.581,135.54 140.081,134.707 138.5,134C 141.173,132.729 141.173,132.063 138.5,132C 135.846,135.327 134.846,139.161 135.5,143.5C 137.167,143.5 138.833,143.5 140.5,143.5C 139.534,147.065 139.534,150.565 140.5,154C 139.643,154.689 138.977,155.522 138.5,156.5C 141.058,157.218 141.725,158.551 140.5,160.5C 137.084,160.472 134.084,159.472 131.5,157.5C 132.167,150.5 132.833,143.5 133.5,136.5C 133.748,133.42 134.414,130.42 135.5,127.5C 135.315,126.416 134.982,125.416 134.5,124.5C 138.453,127 142.453,129.167 146.5,131C 151.333,125.5 156.167,120 161,114.5C 162.128,112.655 162.628,110.655 162.5,108.5C 163.001,110.246 163.668,111.246 164.5,111.5C 165.75,111.423 166.583,110.756 167,109.5C 167.333,110.5 167.667,111.5 168,112.5C 169.665,110.194 171.331,107.861 173,105.5C 174.706,106.308 175.539,107.641 175.5,109.5C 178.041,109.149 179.708,109.482 180.5,110.5 Z"/></g>
<g><path style="opacity:1" fill="#593e3e" d="M 232.5,126.5 C 234.858,126.253 236.858,126.919 238.5,128.5C 238.284,131.432 238.951,134.098 240.5,136.5C 239.611,138.898 238.111,140.898 236,142.5C 235.333,143.5 235.333,144.5 236,145.5C 239.73,146.46 243.563,146.793 247.5,146.5C 242.594,147.848 237.594,147.682 232.5,146C 233.252,145.329 233.586,144.496 233.5,143.5C 234.793,141.704 236.293,140.037 238,138.5C 238.773,136.648 238.273,135.314 236.5,134.5C 237.506,133.604 237.506,132.938 236.5,132.5C 236.768,130.901 236.434,129.568 235.5,128.5C 234.5,127.833 233.5,127.167 232.5,126.5 Z"/></g>
<g><path style="opacity:1" fill="#ed84a5" d="M 260.5,123.5 C 260.5,124.167 260.5,124.833 260.5,125.5C 258.468,124.439 257.134,122.772 256.5,120.5C 255.281,121.263 254.281,122.263 253.5,123.5C 253.8,128.111 253.467,132.778 252.5,137.5C 252.167,137.5 251.833,137.5 251.5,137.5C 249.708,136.691 247.708,136.191 245.5,136C 241.973,133.697 241.64,131.03 244.5,128C 246.81,127.503 249.143,127.337 251.5,127.5C 251.5,124.833 251.5,122.167 251.5,119.5C 253.635,117.631 256.302,116.964 259.5,117.5C 259.205,119.735 259.539,121.735 260.5,123.5 Z"/></g>
<g><path style="opacity:0.784" fill="#58475e" d="M 217.5,132.5 C 218.167,132.5 218.833,132.5 219.5,132.5C 217.989,134.838 218.323,135.504 220.5,134.5C 219.545,137.456 217.545,139.456 214.5,140.5C 213.417,139.635 213.251,138.635 214,137.5C 215.802,136.211 216.969,134.544 217.5,132.5 Z"/></g>
<g><path style="opacity:0.988" fill="#5c2f49" d="M 130.5,145.5 C 130.739,147.467 130.406,149.301 129.5,151C 126.883,151.822 124.216,152.322 121.5,152.5C 114.759,152.829 108.092,152.329 101.5,151C 100.215,146.429 100.548,141.929 102.5,137.5C 102.916,135.248 104.249,133.748 106.5,133C 112.167,132.333 117.833,132.333 123.5,133C 127.775,136.047 130.108,140.214 130.5,145.5 Z"/></g>
<g><path style="opacity:1" fill="#663d5d" d="M 173.5,152.5 C 164.23,153.9 161.23,150.233 164.5,141.5C 166.01,137.974 168.344,135.14 171.5,133C 186.837,129.692 194.17,135.692 193.5,151C 186.95,152.42 180.284,152.92 173.5,152.5 Z"/></g>
<g><path style="opacity:0.635" fill="#473b57" d="M 218.5,105.5 C 219.483,109.298 219.817,113.298 219.5,117.5C 219.194,120.385 219.527,123.052 220.5,125.5C 220.5,126.167 220.5,126.833 220.5,127.5C 217.953,128.621 216.953,130.288 217.5,132.5C 216.761,132.369 216.094,132.536 215.5,133C 211.659,136.508 208.159,140.341 205,144.5C 202.331,157.168 207.497,163.001 220.5,162C 224.282,158.898 227.948,155.731 231.5,152.5C 233.129,151.375 234.629,150.041 236,148.5C 236.399,148.728 236.565,149.062 236.5,149.5C 232.148,154.25 227.815,158.916 223.5,163.5C 219.649,165.169 215.649,165.669 211.5,165C 207.26,162.262 203.926,158.762 201.5,154.5C 201.234,150.395 201.734,146.395 203,142.5C 207.606,136.891 212.606,131.558 218,126.5C 218.5,119.508 218.666,112.508 218.5,105.5 Z"/></g>
<g><path style="opacity:0.114" fill="#ab92a8" d="M 236.5,134.5 C 238.273,135.314 238.773,136.648 238,138.5C 236.293,140.037 234.793,141.704 233.5,143.5C 233.167,143.5 232.833,143.5 232.5,143.5C 232.557,142.391 232.89,141.391 233.5,140.5C 234.338,140.158 234.672,139.492 234.5,138.5C 235.833,137.833 235.833,137.167 234.5,136.5C 234.833,135.5 235.5,134.833 236.5,134.5 Z"/></g>
<g><path style="opacity:0.812" fill="#3a2e40" d="M 236.5,132.5 C 237.506,132.938 237.506,133.604 236.5,134.5C 235.5,134.833 234.833,135.5 234.5,136.5C 234.5,137.167 234.5,137.833 234.5,138.5C 232.302,138.409 231.969,139.075 233.5,140.5C 230.337,141.321 227.67,142.988 225.5,145.5C 225.167,145 224.833,144.5 224.5,144C 226.654,140.679 229.321,137.846 232.5,135.5C 233.833,134.5 235.167,133.5 236.5,132.5 Z"/></g>
<g><path style="opacity:1" fill="#d7809e" d="M 280.5,117.5 C 280.666,126.173 280.5,134.84 280,143.5C 277.454,146.186 274.287,147.186 270.5,146.5C 269.833,146.5 269.167,146.5 268.5,146.5C 268.038,145.12 267.038,144.453 265.5,144.5C 261.007,146.248 256.34,146.915 251.5,146.5C 251.5,143.5 251.5,140.5 251.5,137.5C 251.833,137.5 252.167,137.5 252.5,137.5C 253.269,139.667 254.269,141.834 255.5,144C 259.162,144.281 262.829,144.115 266.5,143.5C 268.824,143.729 270.991,144.396 273,145.5C 274.225,145.138 275.391,144.638 276.5,144C 277.482,136.253 277.815,128.42 277.5,120.5C 275.799,120.034 274.299,120.034 273,120.5C 272.505,122.473 272.338,124.473 272.5,126.5C 269.807,126.572 267.14,126.905 264.5,127.5C 262.645,127.66 261.312,126.993 260.5,125.5C 260.5,124.833 260.5,124.167 260.5,123.5C 267.756,127.682 271.423,125.682 271.5,117.5C 274.5,117.5 277.5,117.5 280.5,117.5 Z"/></g>
<g><path style="opacity:1" fill="#dcb893" d="M 241.5,127.5 C 239.694,134.67 242.36,138.337 249.5,138.5C 249.5,141.167 249.5,143.833 249.5,146.5C 248.833,146.5 248.167,146.5 247.5,146.5C 243.563,146.793 239.73,146.46 236,145.5C 235.333,144.5 235.333,143.5 236,142.5C 238.111,140.898 239.611,138.898 240.5,136.5C 238.951,134.098 238.284,131.432 238.5,128.5C 239.209,127.596 240.209,127.263 241.5,127.5 Z"/></g>
<g><path style="opacity:1" fill="#f6cf73" d="M 240.5,139.5 C 243.167,139.5 245.833,139.5 248.5,139.5C 248.5,141.5 248.5,143.5 248.5,145.5C 245.482,145.665 242.482,145.498 239.5,145C 238.243,142.924 238.576,141.09 240.5,139.5 Z"/></g>
<g><path style="opacity:1" fill="#d985a5" d="M 170.5,136.5 C 170.611,135.883 170.944,135.383 171.5,135C 185.238,131.347 191.904,136.514 191.5,150.5C 183.493,150.666 175.493,150.5 167.5,150C 166.383,146.927 166.216,143.76 167,140.5C 167.66,138.676 168.827,137.343 170.5,136.5 Z"/></g>
<g><path style="opacity:1" fill="#fa7f9b" d="M 170.5,136.5 C 175.511,136.334 180.511,136.501 185.5,137C 188.434,140.36 190.101,144.194 190.5,148.5C 183.504,149.676 176.504,149.676 169.5,148.5C 168.96,147.252 168.293,146.085 167.5,145C 168.191,142.02 169.191,139.186 170.5,136.5 Z"/></g>
<g><path style="opacity:1" fill="#5b2b4c" d="M 268.5,146.5 C 263.99,146.884 259.657,147.551 255.5,148.5C 254.167,148.5 252.833,148.5 251.5,148.5C 250.833,147.833 250.167,147.167 249.5,146.5C 250.167,146.5 250.833,146.5 251.5,146.5C 256.34,146.915 261.007,146.248 265.5,144.5C 267.038,144.453 268.038,145.12 268.5,146.5 Z"/></g>
<g><path style="opacity:0.788" fill="#492240" d="M 280.5,104.5 C 280.5,105.167 280.833,105.5 281.5,105.5C 281.334,112.841 281.5,120.174 282,127.5C 282.717,128.044 283.217,128.711 283.5,129.5C 283.5,130.167 283.5,130.833 283.5,131.5C 282.167,131.833 282.167,132.167 283.5,132.5C 282.864,137.166 282.031,141.832 281,146.5C 280.329,147.252 279.496,147.586 278.5,147.5C 275.615,147.806 272.948,147.473 270.5,146.5C 274.287,147.186 277.454,146.186 280,143.5C 280.5,134.84 280.666,126.173 280.5,117.5C 280.5,116.833 280.5,116.167 280.5,115.5C 280.988,112.289 280.321,109.456 278.5,107C 279.056,106.617 279.389,106.117 279.5,105.5C 279.5,104.833 279.833,104.5 280.5,104.5 Z"/></g>
<g><path style="opacity:1" fill="#d783a1" d="M 104.5,138.5 C 105.29,137.206 106.29,136.039 107.5,135C 120.579,131.446 127.413,136.279 128,149.5C 119.912,150.648 111.746,150.815 103.5,150C 102.484,149.481 101.818,148.647 101.5,147.5C 101.885,144.169 102.885,141.169 104.5,138.5 Z"/></g>
<g><path style="opacity:1" fill="#fb8098" d="M 104.5,138.5 C 109.923,136.492 115.59,135.992 121.5,137C 123.913,140.557 125.579,144.39 126.5,148.5C 119.514,149.332 112.514,149.499 105.5,149C 104.422,148.326 103.755,147.326 103.5,146C 104.159,143.538 104.493,141.038 104.5,138.5 Z"/></g>
<g><path style="opacity:0.847" fill="#563f62" d="M 268.5,146.5 C 269.167,146.5 269.833,146.5 270.5,146.5C 272.948,147.473 275.615,147.806 278.5,147.5C 278.5,148.5 278.5,149.5 278.5,150.5C 277.849,149.909 277.182,149.243 276.5,148.5C 275.335,149.86 275.668,150.86 277.5,151.5C 277.217,152.289 276.717,152.956 276,153.5C 274.649,151.981 273.149,150.648 271.5,149.5C 270.537,149.97 270.537,150.637 271.5,151.5C 269.867,150.055 268.034,148.721 266,147.5C 265.805,148.819 265.972,150.153 266.5,151.5C 265.075,149.969 264.409,150.302 264.5,152.5C 262.896,151.713 262.229,150.38 262.5,148.5C 260.167,148.5 257.833,148.5 255.5,148.5C 259.657,147.551 263.99,146.884 268.5,146.5 Z"/></g>
<g><path style="opacity:0.314" fill="#41354d" d="M 283.5,129.5 C 284.167,129.5 284.833,129.5 285.5,129.5C 290.875,133.708 295.375,138.708 299,144.5C 300.936,154.129 297.436,160.962 288.5,165C 282.115,166.684 276.781,165.184 272.5,160.5C 273.239,160.631 273.906,160.464 274.5,160C 273.29,158.961 272.29,157.794 271.5,156.5C 273.886,157.373 275.886,158.873 277.5,161C 288.168,164.333 294.501,160.499 296.5,149.5C 296.308,147.423 295.808,145.423 295,143.5C 291.351,139.685 287.517,136.018 283.5,132.5C 283.5,132.167 283.5,131.833 283.5,131.5C 283.5,130.833 283.5,130.167 283.5,129.5 Z"/></g>
<g><path style="opacity:0.369" fill="#74607f" d="M 232.5,143.5 C 232.833,143.5 233.167,143.5 233.5,143.5C 233.586,144.496 233.252,145.329 232.5,146C 237.594,147.682 242.594,147.848 247.5,146.5C 248.167,146.5 248.833,146.5 249.5,146.5C 250.167,147.167 250.833,147.833 251.5,148.5C 246.405,148.221 241.405,148.555 236.5,149.5C 236.565,149.062 236.399,148.728 236,148.5C 234.629,150.041 233.129,151.375 231.5,152.5C 232.521,148.849 231.521,148.516 228.5,151.5C 228.859,149.629 229.859,148.129 231.5,147C 230.423,146.53 229.423,146.697 228.5,147.5C 228.389,146.883 228.056,146.383 227.5,146C 229.249,145.215 230.916,144.382 232.5,143.5 Z"/></g>
<g><path style="opacity:0.698" fill="#332a49" d="M 228.5,151.5 C 227.185,152.476 225.852,153.476 224.5,154.5C 223.902,151.355 225.235,149.022 228.5,147.5C 229.423,146.697 230.423,146.53 231.5,147C 229.859,148.129 228.859,149.629 228.5,151.5 Z"/></g>
<g><path style="opacity:0.349" fill="#895b82" d="M 102.5,137.5 C 100.548,141.929 100.215,146.429 101.5,151C 108.092,152.329 114.759,152.829 121.5,152.5C 121.5,152.833 121.5,153.167 121.5,153.5C 114.426,153.839 107.426,153.339 100.5,152C 99.5697,150.806 98.9031,149.473 98.5,148C 99.2067,144.8 100.04,141.633 101,138.5C 101.383,137.944 101.883,137.611 102.5,137.5 Z"/></g>
<g><path style="opacity:0.769" fill="#31233e" d="M 277.5,151.5 C 278.167,151.5 278.5,151.167 278.5,150.5C 282.346,148.807 285.679,149.473 288.5,152.5C 288.192,153.308 287.692,153.975 287,154.5C 285.687,153.427 284.187,152.76 282.5,152.5C 280.429,153.618 278.262,154.618 276,155.5C 274.02,154.685 272.52,153.352 271.5,151.5C 270.537,150.637 270.537,149.97 271.5,149.5C 273.149,150.648 274.649,151.981 276,153.5C 276.717,152.956 277.217,152.289 277.5,151.5 Z"/></g>
<g><path style="opacity:0.024" fill="#bfa9cc" d="M 133.5,136.5 C 132.833,143.5 132.167,150.5 131.5,157.5C 130.5,157.5 129.5,157.5 128.5,157.5C 128.389,156.883 128.056,156.383 127.5,156C 128.624,155.751 129.624,155.251 130.5,154.5C 130.333,154.167 130.167,153.833 130,153.5C 127.25,154.291 124.417,154.291 121.5,153.5C 121.5,153.167 121.5,152.833 121.5,152.5C 124.216,152.322 126.883,151.822 129.5,151C 130.406,149.301 130.739,147.467 130.5,145.5C 131.816,142.592 132.816,139.592 133.5,136.5 Z"/></g>
<g><path style="opacity:1" fill="#dcddf9" d="M 251.5,148.5 C 252.833,148.5 254.167,148.5 255.5,148.5C 257.833,148.5 260.167,148.5 262.5,148.5C 262.229,150.38 262.896,151.713 264.5,152.5C 266.167,153.5 267.5,154.833 268.5,156.5C 267.504,156.414 266.671,156.748 266,157.5C 263.918,169.261 259.418,179.928 252.5,189.5C 248.024,182.565 243.524,175.565 239,168.5C 235.021,171.238 230.855,173.571 226.5,175.5C 223.253,174.583 219.586,173.916 215.5,173.5C 212.803,173.703 210.136,174.036 207.5,174.5C 207.137,172.089 208.137,170.589 210.5,170C 214.575,169.482 218.575,169.482 222.5,170C 223.423,167.959 223.756,165.792 223.5,163.5C 227.815,158.916 232.148,154.25 236.5,149.5C 241.405,148.555 246.405,148.221 251.5,148.5 Z"/></g>
<g><path style="opacity:0.063" fill="#71607b" d="M 271.5,156.5 C 269.5,155.167 267.833,153.5 266.5,151.5C 267.117,151.389 267.617,151.056 268,150.5C 269.821,152.146 270.987,154.146 271.5,156.5 Z"/></g>
<g><path style="opacity:0.808" fill="#251f30" d="M 266.5,151.5 C 267.833,153.5 269.5,155.167 271.5,156.5C 272.29,157.794 273.29,158.961 274.5,160C 273.906,160.464 273.239,160.631 272.5,160.5C 270.833,159.5 269.5,158.167 268.5,156.5C 267.5,154.833 266.167,153.5 264.5,152.5C 264.409,150.302 265.075,149.969 266.5,151.5 Z"/></g>
<g><path style="opacity:1" fill="#dbdcfa" d="M 201.5,154.5 C 203.926,158.762 207.26,162.262 211.5,165C 215.649,165.669 219.649,165.169 223.5,163.5C 223.756,165.792 223.423,167.959 222.5,170C 218.575,169.482 214.575,169.482 210.5,170C 208.137,170.589 207.137,172.089 207.5,174.5C 210.136,174.036 212.803,173.703 215.5,173.5C 219.586,173.916 223.253,174.583 226.5,175.5C 224.927,178.893 222.26,180.226 218.5,179.5C 209.797,180.077 201.131,180.077 192.5,179.5C 188.5,179.5 184.5,179.5 180.5,179.5C 180.5,179.167 180.5,178.833 180.5,178.5C 184.846,178.666 189.179,178.499 193.5,178C 193,177.5 192.5,177 192,176.5C 189.936,177.591 187.769,177.758 185.5,177C 186.978,174.961 188.978,174.128 191.5,174.5C 191.5,172.167 191.5,169.833 191.5,167.5C 188.482,167.335 185.482,167.502 182.5,168C 183.451,168.718 183.617,169.551 183,170.5C 178.908,168.486 175.074,165.986 171.5,163C 166.52,161.631 162.353,162.797 159,166.5C 154.983,166.183 150.983,166.183 147,166.5C 145.775,166.138 144.609,165.638 143.5,165C 147.167,164.667 150.833,164.333 154.5,164C 149.981,163.825 145.647,163.325 141.5,162.5C 148.987,162.942 156.32,162.108 163.5,160C 164.756,159.583 165.423,158.75 165.5,157.5C 169.832,158.115 174.166,158.448 178.5,158.5C 182.544,157.995 186.544,157.329 190.5,156.5C 190.736,157.247 191.07,158.08 191.5,159C 196.513,160.685 199.846,159.185 201.5,154.5 Z"/></g>
<g><path style="opacity:1" fill="#4a4362" d="M 128.5,157.5 C 129.5,157.5 130.5,157.5 131.5,157.5C 134.084,159.472 137.084,160.472 140.5,160.5C 149.064,161.113 157.398,160.113 165.5,157.5C 165.423,158.75 164.756,159.583 163.5,160C 156.32,162.108 148.987,162.942 141.5,162.5C 138.167,161.833 134.833,161.167 131.5,160.5C 129.5,160.5 128.5,159.5 128.5,157.5 Z"/></g>
<g><path style="opacity:1" fill="#dcdef9" d="M 131.5,160.5 C 134.833,161.167 138.167,161.833 141.5,162.5C 145.647,163.325 149.981,163.825 154.5,164C 150.833,164.333 147.167,164.667 143.5,165C 144.609,165.638 145.775,166.138 147,166.5C 150.983,166.183 154.983,166.183 159,166.5C 162.353,162.797 166.52,161.631 171.5,163C 175.074,165.986 178.908,168.486 183,170.5C 183.617,169.551 183.451,168.718 182.5,168C 185.482,167.502 188.482,167.335 191.5,167.5C 191.5,169.833 191.5,172.167 191.5,174.5C 188.978,174.128 186.978,174.961 185.5,177C 187.769,177.758 189.936,177.591 192,176.5C 192.5,177 193,177.5 193.5,178C 189.179,178.499 184.846,178.666 180.5,178.5C 176.153,174.836 171.487,171.502 166.5,168.5C 160.829,176.825 154.829,184.825 148.5,192.5C 141.261,182.69 135.594,172.023 131.5,160.5 Z"/></g>
<g><path style="opacity:0.855" fill="#443b4c" d="M 109.5,167.5 C 111.614,168.36 112.78,170.027 113,172.5C 114.19,175.194 114.356,177.861 113.5,180.5C 110.988,177.495 109.321,173.995 108.5,170C 108.743,169.098 109.077,168.265 109.5,167.5 Z"/></g>
<g><path style="opacity:0.959" fill="#2c243c" d="M 180.5,179.5 C 184.5,179.5 188.5,179.5 192.5,179.5C 189.038,180.482 185.371,180.815 181.5,180.5C 181.5,181.5 181.5,182.5 181.5,183.5C 181.5,184.167 181.167,184.5 180.5,184.5C 180.5,182.833 180.5,181.167 180.5,179.5 Z"/></g>
<g><path style="opacity:0.788" fill="#3e3446" d="M 285.5,172.5 C 286.5,172.5 287.5,172.5 288.5,172.5C 287.815,177.223 286.148,181.557 283.5,185.5C 282.5,185.167 281.833,184.5 281.5,183.5C 283.234,179.963 284.568,176.296 285.5,172.5 Z"/></g>
<g><path style="opacity:0.188" fill="#9782a6" d="M 192.5,181.5 C 194.199,181.34 195.866,181.506 197.5,182C 195.024,184.571 192.024,186.071 188.5,186.5C 190.1,185.356 191.767,184.189 193.5,183C 192.944,182.617 192.611,182.117 192.5,181.5 Z"/></g>
<g><path style="opacity:0.008" fill="#785675" d="M 179.5,186.5 C 177.938,190.392 175.605,193.725 172.5,196.5C 174.062,192.608 176.395,189.275 179.5,186.5 Z"/></g>
<g><path style="opacity:1" fill="#403864" d="M 252.5,189.5 C 255.544,194.582 258.378,199.915 261,205.5C 261.667,206.5 261.667,207.5 261,208.5C 254.162,213.178 246.995,216.511 239.5,218.5C 238.828,219.949 238.161,221.282 237.5,222.5C 237.141,220.234 237.808,218.401 239.5,217C 238.552,216.517 237.552,216.351 236.5,216.5C 236.768,218.099 236.434,219.432 235.5,220.5C 235.371,218.784 235.038,217.117 234.5,215.5C 235.625,214.652 235.625,213.652 234.5,212.5C 236.371,212.859 237.871,213.859 239,215.5C 239.52,213.711 239.187,212.044 238,210.5C 232.415,201.665 227.081,192.665 222,183.5C 220.698,182.915 219.531,182.249 218.5,181.5C 219.552,181.649 220.552,181.483 221.5,181C 220.263,180.768 219.263,180.268 218.5,179.5C 222.26,180.226 224.927,178.893 226.5,175.5C 230.855,173.571 235.021,171.238 239,168.5C 243.524,175.565 248.024,182.565 252.5,189.5 Z"/></g>
<g><path style="opacity:1" fill="#a1a7e9" d="M 241.5,176.5 C 240.153,175.972 238.819,175.805 237.5,176C 236.379,182.566 234.046,183.066 230.5,177.5C 225.838,183.101 227.005,187.767 234,191.5C 234.492,192.549 234.326,193.549 233.5,194.5C 235.868,198.374 238.034,202.374 240,206.5C 241.648,207.717 243.481,208.55 245.5,209C 244.833,209.333 244.167,209.667 243.5,210C 245.462,209.859 247.296,210.026 249,210.5C 251.084,209.231 253.251,208.231 255.5,207.5C 254.626,204.211 253.959,200.877 253.5,197.5C 255.319,200.174 256.986,203.007 258.5,206C 254.324,209.591 249.657,212.424 244.5,214.5C 242.912,213.99 241.745,212.99 241,211.5C 235.667,202.167 230.333,192.833 225,183.5C 224.219,182.056 224.386,180.723 225.5,179.5C 229.598,176.702 233.765,174.036 238,171.5C 240.138,172.43 241.305,174.097 241.5,176.5 Z"/></g>
<g><path style="opacity:1" fill="#9eacfb" d="M 241.5,176.5 C 245.763,183.361 249.763,190.361 253.5,197.5C 253.959,200.877 254.626,204.211 255.5,207.5C 253.251,208.231 251.084,209.231 249,210.5C 247.296,210.026 245.462,209.859 243.5,210C 244.167,209.667 244.833,209.333 245.5,209C 243.481,208.55 241.648,207.717 240,206.5C 238.034,202.374 235.868,198.374 233.5,194.5C 234.326,193.549 234.492,192.549 234,191.5C 227.005,187.767 225.838,183.101 230.5,177.5C 234.046,183.066 236.379,182.566 237.5,176C 238.819,175.805 240.153,175.972 241.5,176.5 Z"/></g>
<g><path style="opacity:0.129" fill="#493c52" d="M 116.5,187.5 C 121.066,190.094 123.733,194.094 124.5,199.5C 122.61,199.703 121.11,199.037 120,197.5C 117.965,194.439 116.799,191.105 116.5,187.5 Z"/></g>
<g><path style="opacity:0.753" fill="#3b2c48" d="M 192.5,179.5 C 201.131,180.077 209.797,180.077 218.5,179.5C 219.263,180.268 220.263,180.768 221.5,181C 220.552,181.483 219.552,181.649 218.5,181.5C 212.322,181.107 206.322,181.94 200.5,184C 194.713,186.394 189.046,189.06 183.5,192C 178.139,196 178.639,199.167 185,201.5C 192.001,198.75 198.834,195.584 205.5,192C 206.833,191.333 208.167,191.333 209.5,192C 218.271,198.374 226.605,205.207 234.5,212.5C 235.625,213.652 235.625,214.652 234.5,215.5C 225.711,208.267 216.711,201.267 207.5,194.5C 201.167,197.667 194.833,200.833 188.5,204C 180.844,205.224 176.844,202.224 176.5,195C 179.257,190.439 183.257,187.606 188.5,186.5C 192.024,186.071 195.024,184.571 197.5,182C 195.866,181.506 194.199,181.34 192.5,181.5C 188.498,181.036 184.831,181.702 181.5,183.5C 181.5,182.5 181.5,181.5 181.5,180.5C 185.371,180.815 189.038,180.482 192.5,179.5 Z"/></g>
<g><path style="opacity:0.816" fill="#342d3b" d="M 277.5,191.5 C 279.273,192.314 279.773,193.648 279,195.5C 276.908,198.681 274.575,201.681 272,204.5C 271.333,203.167 271.333,201.833 272,200.5C 273.844,197.472 275.678,194.472 277.5,191.5 Z"/></g>
<g><path style="opacity:0.808" fill="#543a3c" d="M 180.5,178.5 C 180.5,178.833 180.5,179.167 180.5,179.5C 180.5,181.167 180.5,182.833 180.5,184.5C 180.672,185.492 180.338,186.158 179.5,186.5C 176.395,189.275 174.062,192.608 172.5,196.5C 169.415,201.672 166.081,206.672 162.5,211.5C 160.565,212.15 158.565,212.483 156.5,212.5C 151.9,209.748 147.4,206.748 143,203.5C 143.718,199.396 145.552,195.73 148.5,192.5C 154.829,184.825 160.829,176.825 166.5,168.5C 171.487,171.502 176.153,174.836 180.5,178.5 Z"/></g>
<g><path style="opacity:1" fill="#f9cd70" d="M 171.5,193.5 C 168.216,199.229 164.549,204.729 160.5,210C 157.519,210.838 155.186,210.005 153.5,207.5C 153.5,206.5 153.5,205.5 153.5,204.5C 149.395,204.504 147.895,202.504 149,198.5C 152.865,194.554 156.198,190.221 159,185.5C 159.49,184.207 159.657,182.873 159.5,181.5C 159.5,180.833 159.833,180.5 160.5,180.5C 163.152,178.796 165.486,176.796 167.5,174.5C 171.215,175.691 174.548,177.357 177.5,179.5C 176.929,183.309 175.262,186.643 172.5,189.5C 171.754,190.736 171.421,192.07 171.5,193.5 Z"/></g>
<g><path style="opacity:1" fill="#e2c28e" d="M 159.5,181.5 C 159.657,182.873 159.49,184.207 159,185.5C 156.198,190.221 152.865,194.554 149,198.5C 147.895,202.504 149.395,204.504 153.5,204.5C 153.5,205.5 153.5,206.5 153.5,207.5C 150.14,206.48 147.473,204.48 145.5,201.5C 150.189,194.767 154.856,188.1 159.5,181.5 Z"/></g>
<g><path style="opacity:1" fill="#e4c591" d="M 171.5,193.5 C 171.421,192.07 171.754,190.736 172.5,189.5C 175.262,186.643 176.929,183.309 177.5,179.5C 174.548,177.357 171.215,175.691 167.5,174.5C 165.486,176.796 163.152,178.796 160.5,180.5C 161.677,176.822 163.844,173.822 167,171.5C 171.006,174.25 175.173,176.583 179.5,178.5C 178.585,184.42 175.918,189.42 171.5,193.5 Z"/></g>
<g><path style="opacity:0.808" fill="#382e40" d="M 128.5,205.5 C 132.027,207.509 135.194,210.176 138,213.5C 138.483,214.448 138.649,215.448 138.5,216.5C 136.097,216.607 134.264,215.607 133,213.5C 132.047,211.545 130.713,209.878 129,208.5C 128.517,207.552 128.351,206.552 128.5,205.5 Z"/></g>
<g><path style="opacity:0.765" fill="#3a3242" d="M 263.5,209.5 C 264.5,209.5 265.5,209.5 266.5,209.5C 265.221,213.302 262.888,216.469 259.5,219C 258.552,219.483 257.552,219.649 256.5,219.5C 256.351,218.448 256.517,217.448 257,216.5C 259.422,214.25 261.589,211.917 263.5,209.5 Z"/></g>
<g><path style="opacity:0.584" fill="#41324e" d="M 180.5,215.5 C 178.969,216.925 179.302,217.591 181.5,217.5C 177.161,221.173 173.161,225.173 169.5,229.5C 171.405,232.786 174.072,233.453 177.5,231.5C 176.942,232.79 175.942,233.623 174.5,234C 175.973,234.71 176.64,235.876 176.5,237.5C 175.778,237.082 175.278,236.416 175,235.5C 170.47,236.626 167.637,234.793 166.5,230C 166.833,229.667 167.167,229.333 167.5,229C 160.403,226.74 158.736,222.407 162.5,216C 160.743,214.25 158.743,213.084 156.5,212.5C 158.565,212.483 160.565,212.15 162.5,211.5C 163.261,212.391 164.261,213.058 165.5,213.5C 171.538,207.713 176.538,208.38 180.5,215.5 Z M 172.5,212.5 C 176.171,213.184 177.171,215.184 175.5,218.5C 173.35,220.149 171.35,221.982 169.5,224C 165.105,225.95 163.271,224.45 164,219.5C 166.628,216.79 169.461,214.456 172.5,212.5 Z"/></g>
<g><path style="opacity:0.561" fill="#32273f" d="M 144.5,220.5 C 148.903,222.21 152.903,224.71 156.5,228C 151.362,227.934 147.029,225.934 143.5,222C 144.056,221.617 144.389,221.117 144.5,220.5 Z"/></g>
<g><path style="opacity:0.882" fill="#3b3242" d="M 246.5,223.5 C 247.978,223.238 249.311,223.571 250.5,224.5C 247.378,227.568 243.711,229.902 239.5,231.5C 238.692,231.192 238.025,230.692 237.5,230C 240.567,227.812 243.567,225.645 246.5,223.5 Z"/></g>
<g><path style="opacity:0.923" fill="#3c3248" d="M 235.5,220.5 C 236.434,219.432 236.768,218.099 236.5,216.5C 237.552,216.351 238.552,216.517 239.5,217C 237.808,218.401 237.141,220.234 237.5,222.5C 237.586,223.496 237.252,224.329 236.5,225C 234.779,225.739 233.113,226.573 231.5,227.5C 231.932,233.505 228.932,236.505 222.5,236.5C 221.509,242.748 218.009,244.748 212,242.5C 208.61,249.178 203.944,250.178 198,245.5C 192.596,247.762 188.429,246.429 185.5,241.5C 181.126,243.145 178.126,241.811 176.5,237.5C 176.64,235.876 175.973,234.71 174.5,234C 175.942,233.623 176.942,232.79 177.5,231.5C 179.834,228.334 182.667,225.667 186,223.5C 187.568,219.083 186.068,217.083 181.5,217.5C 179.302,217.591 178.969,216.925 180.5,215.5C 182.524,213.119 184.857,212.952 187.5,215C 188.5,216.667 189.5,218.333 190.5,220C 196.798,220.443 199.465,223.61 198.5,229.5C 204.106,233.18 204.772,237.513 200.5,242.5C 203.554,246.595 206.22,246.428 208.5,242C 203.575,232.631 205.242,231.964 213.5,240C 218.496,240.664 220.33,238.498 219,233.5C 215.688,231.355 212.854,228.688 210.5,225.5C 210.808,224.692 211.308,224.025 212,223.5C 216.059,227.23 220.392,230.564 225,233.5C 228.205,232.202 229.205,229.868 228,226.5C 224.019,223.687 220.519,220.353 217.5,216.5C 218.365,215.417 219.365,215.251 220.5,216C 223.859,219.008 227.526,221.508 231.5,223.5C 233.417,223.246 234.751,222.246 235.5,220.5 Z M 194.5,233.5 C 198.509,233.014 200.342,234.68 200,238.5C 197.416,241.545 194.25,243.045 190.5,243C 189.424,241.274 189.257,239.441 190,237.5C 191.667,236.267 193.167,234.933 194.5,233.5 Z M 190.5,223.5 C 195.068,223.083 196.568,225.083 195,229.5C 191.075,232.547 187.241,235.714 183.5,239C 179.075,238.653 177.909,236.486 180,232.5C 183.692,229.635 187.192,226.635 190.5,223.5 Z"/></g>
<g><path style="opacity:1" fill="#453657" d="M 172.5,266.5 C 173.873,266.343 175.207,266.51 176.5,267C 177.051,268.398 177.384,269.732 177.5,271C 182.859,271.124 185.193,273.957 184.5,279.5C 185.159,283.687 183.659,285.02 180,283.5C 179.818,280.774 179.318,278.107 178.5,275.5C 177.585,276.328 176.919,277.328 176.5,278.5C 177.485,280.098 177.651,281.765 177,283.5C 175.887,284.711 174.72,284.711 173.5,283.5C 172.505,277.872 172.171,272.206 172.5,266.5 Z"/></g>
<g><path style="opacity:0.8" fill="#413351" d="M 165.5,266.5 C 166.936,266.755 168.436,267.088 170,267.5C 170.774,269.403 170.44,271.07 169,272.5C 167.612,271.446 166.112,271.28 164.5,272C 169.533,273.345 171.7,276.511 171,281.5C 167.639,284.672 163.805,285.338 159.5,283.5C 159.324,279.842 160.824,278.842 164,280.5C 165.059,280.37 165.892,279.87 166.5,279C 163.006,277.767 160.673,275.433 159.5,272C 160.166,268.543 162.166,266.709 165.5,266.5 Z"/></g>
<g><path style="opacity:0.962" fill="#423255" d="M 187.5,271.5 C 190.119,271.232 192.619,271.565 195,272.5C 196.337,276.026 196.837,279.692 196.5,283.5C 194.116,283.443 191.782,283.777 189.5,284.5C 185.853,283.514 184.686,281.181 186,277.5C 186.75,276.874 187.584,276.374 188.5,276C 185.597,274.514 185.264,273.014 187.5,271.5 Z M 190.5,278.5 C 191.773,279.077 191.773,279.743 190.5,280.5C 189.537,280.03 189.537,279.363 190.5,278.5 Z"/></g>
<g><path style="opacity:1" fill="#443452" d="M 207.5,266.5 C 209.635,266.147 210.968,266.98 211.5,269C 211.495,273.674 211.329,278.508 211,283.5C 209.667,284.833 208.333,284.833 207,283.5C 206.667,280.5 206.333,277.5 206,274.5C 203.245,276.766 201.912,279.766 202,283.5C 201.586,283.957 201.086,284.291 200.5,284.5C 198.953,283.232 197.953,281.565 197.5,279.5C 198.061,277.574 198.227,275.574 198,273.5C 198.388,272.572 199.055,271.905 200,271.5C 202.091,271.579 204.258,271.913 206.5,272.5C 206.465,270.557 206.798,268.557 207.5,266.5 Z"/></g>
<g><path style="opacity:1" fill="#423356" d="M 213.5,271.5 C 216.898,271.18 220.232,271.513 223.5,272.5C 224.6,276.442 224.767,280.442 224,284.5C 223.259,283.359 222.425,283.359 221.5,284.5C 220.909,281.36 220.076,278.36 219,275.5C 217.784,277.962 217.118,280.629 217,283.5C 215.989,284.337 214.822,284.67 213.5,284.5C 213.095,279.684 213.095,275.351 213.5,271.5 Z"/></g>
<g><path style="opacity:0.88" fill="#403051" d="M 229.5,271.5 C 232.5,271.5 235.5,271.5 238.5,271.5C 238.752,276.385 238.419,281.219 237.5,286C 237.095,286.945 236.428,287.612 235.5,288C 232.854,288.497 230.187,288.664 227.5,288.5C 227.5,287.167 227.5,285.833 227.5,284.5C 228.552,284.649 229.552,284.483 230.5,284C 227.419,282.688 225.752,280.355 225.5,277C 226.036,274.492 227.369,272.659 229.5,271.5 Z M 231.5,275.5 C 232.649,275.791 233.316,276.624 233.5,278C 232.706,281.122 231.706,281.122 230.5,278C 230.743,277.098 231.077,276.265 231.5,275.5 Z"/></g>
<g><path style="opacity:0.082" fill="#584961" d="M 327.5,311.5 C 327.5,308.167 327.5,304.833 327.5,301.5C 324.15,301.335 320.817,301.502 317.5,302C 320.482,302.498 323.482,302.665 326.5,302.5C 326.5,305.167 326.5,307.833 326.5,310.5C 323.833,310.5 321.167,310.5 318.5,310.5C 318.663,308.143 318.497,305.81 318,303.5C 239.712,305.329 161.212,306.162 82.5,306C 91.3921,307.443 100.392,307.943 109.5,307.5C 100.682,308.493 91.6822,308.827 82.5,308.5C 82.5,309.833 82.5,311.167 82.5,312.5C 78.6286,312.815 74.9619,312.482 71.5,311.5C 70.5184,308.038 70.185,304.371 70.5,300.5C 74.2396,300.759 77.9062,300.426 81.5,299.5C 83.003,300.59 83.3363,301.757 82.5,303C 83.1667,303.333 83.8333,303.667 84.5,304C 161.167,304.667 237.833,304.667 314.5,304C 315.304,302.229 316.471,300.729 318,299.5C 321.135,300.799 324.301,300.799 327.5,299.5C 328.72,299.887 329.387,300.72 329.5,302C 328.95,305.324 328.283,308.491 327.5,311.5 Z M 320.5,303.5 C 324.701,303.426 326.035,305.259 324.5,309C 322.866,309.494 321.199,309.66 319.5,309.5C 319.325,307.379 319.659,305.379 320.5,303.5 Z M 75.5,303.5 C 79.0681,303.759 80.4015,305.759 79.5,309.5C 77.5,309.167 75.5,308.833 73.5,308.5C 73.3653,306.446 74.032,304.779 75.5,303.5 Z"/></g>
<g><path style="opacity:0.965" fill="#262332" d="M 327.5,311.5 C 323.704,311.838 320.704,311.505 318.5,310.5C 321.167,310.5 323.833,310.5 326.5,310.5C 326.5,307.833 326.5,305.167 326.5,302.5C 323.482,302.665 320.482,302.498 317.5,302C 320.817,301.502 324.15,301.335 327.5,301.5C 327.5,304.833 327.5,308.167 327.5,311.5 Z"/></g>
<g><path style="opacity:0.925" fill="#211d2c" d="M 71.5,311.5 C 71.5,308.167 71.5,304.833 71.5,301.5C 74.8499,301.335 78.1832,301.502 81.5,302C 78.5184,302.498 75.5184,302.665 72.5,302.5C 72.5,305.167 72.5,307.833 72.5,310.5C 75.5184,310.335 78.5184,310.502 81.5,311C 78.1832,311.498 74.8499,311.665 71.5,311.5 Z"/></g>
<g><path style="opacity:0.812" fill="#322a3c" d="M 318.5,310.5 C 320.704,311.505 323.704,311.838 327.5,311.5C 324.038,312.482 320.371,312.815 316.5,312.5C 316.5,311.167 316.5,309.833 316.5,308.5C 247.518,307.517 178.518,307.183 109.5,307.5C 100.392,307.943 91.3921,307.443 82.5,306C 161.212,306.162 239.712,305.329 318,303.5C 318.497,305.81 318.663,308.143 318.5,310.5 Z"/></g>
<g><path style="opacity:0.075" fill="#584863" d="M 119.5,328.5 C 117.167,328.5 114.833,328.5 112.5,328.5C 112.5,326.5 112.5,324.5 112.5,322.5C 114.857,322.663 117.19,322.497 119.5,322C 116.854,321.503 114.187,321.336 111.5,321.5C 111.5,326.833 111.5,332.167 111.5,337.5C 114.187,337.664 116.854,337.497 119.5,337C 117.1,336.814 114.766,336.314 112.5,335.5C 112.624,334.893 112.957,334.56 113.5,334.5C 116.285,335.017 118.952,335.85 121.5,337C 118.042,338.415 114.375,338.915 110.5,338.5C 110.5,332.5 110.5,326.5 110.5,320.5C 113.833,320.5 117.167,320.5 120.5,320.5C 120.5,321.5 120.5,322.5 120.5,323.5C 118.473,323.338 116.473,323.505 114.5,324C 113.663,325.011 113.33,326.178 113.5,327.5C 115.735,327.205 117.735,327.539 119.5,328.5 Z"/></g>
<g><path style="opacity:0.979" fill="#3e3447" d="M 214.5,320.5 C 222.837,320.666 231.17,320.666 239.5,320.5C 247.007,321.016 248.674,324.182 244.5,330C 246.336,332.493 247.336,335.326 247.5,338.5C 246.448,338.649 245.448,338.483 244.5,338C 243.76,336.215 243.093,334.382 242.5,332.5C 241.675,331.614 240.675,331.281 239.5,331.5C 239.146,333.541 239.146,335.374 239.5,337C 238.725,338.23 237.725,338.563 236.5,338C 235.693,332.917 235.193,327.75 235,322.5C 234.667,323.167 234.333,323.833 234,324.5C 232.951,323.483 231.784,323.316 230.5,324C 230.439,328.394 230.439,332.728 230.5,337C 229.725,338.23 228.725,338.563 227.5,338C 226.531,333.263 226.197,328.43 226.5,323.5C 224.856,323.714 223.356,323.38 222,322.5C 221.333,323.167 220.667,323.833 220,324.5C 218.612,323.446 217.112,323.28 215.5,324C 214.549,324.718 214.383,325.551 215,326.5C 218.86,327.693 221.36,330.193 222.5,334C 220.074,338.288 216.407,339.622 211.5,338C 210.167,337 210.167,336 211.5,335C 213.443,335.305 215.443,335.305 217.5,335C 218.022,334.439 218.355,333.772 218.5,333C 216.625,331.14 214.458,329.64 212,328.5C 210.837,325.029 211.67,322.362 214.5,320.5 Z M 239.5,323.5 C 243.161,323.35 244.161,324.85 242.5,328C 239.123,328.08 238.123,326.58 239.5,323.5 Z"/></g>
<g><path style="opacity:0.835" fill="#483b54" d="M 123.5,321.5 C 131.017,318.93 135.684,321.596 137.5,329.5C 135.577,337.305 130.577,340.305 122.5,338.5C 122.178,332.642 122.511,326.975 123.5,321.5 Z M 126.5,323.5 C 131.006,323.008 133.339,325.008 133.5,329.5C 132.863,334.131 130.196,336.131 125.5,335.5C 125.237,331.4 125.57,327.4 126.5,323.5 Z"/></g>
<g><path style="opacity:1" fill="#221930" d="M 123.5,321.5 C 125.527,321.338 127.527,321.505 129.5,322C 127.866,322.494 126.199,322.66 124.5,322.5C 124.5,327.167 124.5,331.833 124.5,336.5C 126.527,336.338 128.527,336.505 130.5,337C 128.19,337.497 125.857,337.663 123.5,337.5C 123.5,332.167 123.5,326.833 123.5,321.5 Z"/></g>
<g><path style="opacity:0.753" fill="#30293c" d="M 288.5,321.5 C 286.393,322.468 284.059,322.802 281.5,322.5C 281.5,324.5 281.5,326.5 281.5,328.5C 289.5,328.833 289.5,329.167 281.5,329.5C 281.5,331.833 281.5,334.167 281.5,336.5C 283.857,336.337 286.19,336.503 288.5,337C 285.518,337.498 282.518,337.665 279.5,337.5C 279.5,336.833 279.167,336.5 278.5,336.5C 279.449,331.26 279.782,325.927 279.5,320.5C 282.713,320.19 285.713,320.523 288.5,321.5 Z"/></g>
<g><path style="opacity:0.971" fill="#40354a" d="M 278.5,336.5 C 278.38,337.586 277.713,338.253 276.5,338.5C 274.115,336.096 271.949,333.429 270,330.5C 269.667,332.833 269.333,335.167 269,337.5C 268,338.833 267,338.833 266,337.5C 265.194,331.916 265.361,326.416 266.5,321C 267.449,320.383 268.282,320.549 269,321.5C 269.333,323.167 269.667,324.833 270,326.5C 271.141,324.391 272.641,322.558 274.5,321C 276.074,320.301 277.407,320.635 278.5,322C 276.316,324.016 274.316,326.183 272.5,328.5C 274.171,331.492 276.171,334.159 278.5,336.5 Z"/></g>
<g><path style="opacity:0.988" fill="#312740" d="M 119.5,328.5 C 120.043,328.56 120.376,328.893 120.5,329.5C 118.577,330.308 116.577,330.808 114.5,331C 113.663,332.011 113.33,333.178 113.5,334.5C 112.957,334.56 112.624,334.893 112.5,335.5C 114.766,336.314 117.1,336.814 119.5,337C 116.854,337.497 114.187,337.664 111.5,337.5C 111.5,332.167 111.5,326.833 111.5,321.5C 114.187,321.336 116.854,321.503 119.5,322C 117.19,322.497 114.857,322.663 112.5,322.5C 112.5,324.5 112.5,326.5 112.5,328.5C 114.833,328.5 117.167,328.5 119.5,328.5 Z"/></g>
<g><path style="opacity:0.894" fill="#3b3145" d="M 159.5,320.5 C 160.822,320.33 161.989,320.663 163,321.5C 164.944,327.165 166.778,332.832 168.5,338.5C 165.612,338.78 164.112,337.447 164,334.5C 163.107,333.919 162.107,333.585 161,333.5C 158.742,334.665 156.909,336.331 155.5,338.5C 154.692,338.192 154.025,337.692 153.5,337C 155.601,331.531 157.601,326.031 159.5,320.5 Z M 160.5,326.5 C 161.848,327.527 162.348,328.86 162,330.5C 161.08,330.07 160.247,329.736 159.5,329.5C 160.127,328.583 160.461,327.583 160.5,326.5 Z"/></g>
<g><path style="opacity:1" fill="#3c3346" d="M 253.5,320.5 C 261.838,320.147 265.338,324.147 264,332.5C 261.983,337.924 258.15,339.758 252.5,338C 250.667,337.5 249.5,336.333 249,334.5C 247.309,328.61 248.809,323.944 253.5,320.5 Z M 253.5,323.5 C 256.044,323.104 258.211,323.771 260,325.5C 261.004,328.993 260.504,332.159 258.5,335C 255.682,335.84 253.516,335.006 252,332.5C 251.212,329.228 251.712,326.228 253.5,323.5 Z"/></g>
<g><path style="opacity:0.69" fill="#453a4e" d="M 194.5,320.5 C 197.833,320.5 201.167,320.5 204.5,320.5C 204.5,321.5 204.5,322.5 204.5,323.5C 202.473,323.338 200.473,323.505 198.5,324C 197.663,325.011 197.33,326.178 197.5,327.5C 199.527,327.338 201.527,327.505 203.5,328C 204.784,329.297 204.617,330.464 203,331.5C 198.848,329.508 197.015,330.841 197.5,335.5C 199.833,335.5 202.167,335.5 204.5,335.5C 204.5,336.5 204.5,337.5 204.5,338.5C 201.167,338.5 197.833,338.5 194.5,338.5C 194.5,332.5 194.5,326.5 194.5,320.5 Z"/></g>
<g><path style="opacity:0.894" fill="#3d3348" d="M 170.5,320.5 C 173.93,320.107 177.096,320.773 180,322.5C 180.896,325.025 180.396,327.192 178.5,329C 181.722,331.177 182.389,334.01 180.5,337.5C 176.949,338.61 173.449,338.61 170,337.5C 169.215,331.751 169.382,326.084 170.5,320.5 Z M 173.5,330.5 C 177.161,330.35 178.161,331.85 176.5,335C 175.167,335.667 173.833,335.667 172.5,335C 173.38,333.644 173.714,332.144 173.5,330.5 Z M 173.5,323.5 C 176.166,323.066 177.333,324.066 177,326.5C 173.274,328.075 172.107,327.075 173.5,323.5 Z"/></g>
<g><path style="opacity:0.849" fill="#3f3448" d="M 139.5,320.5 C 144.722,320.578 150.055,320.745 155.5,321C 155.957,321.414 156.291,321.914 156.5,322.5C 154.376,323.149 152.376,323.983 150.5,325C 151.629,329.079 151.796,333.245 151,337.5C 149.989,338.337 148.822,338.67 147.5,338.5C 147.666,333.489 147.499,328.489 147,323.5C 145.887,324.711 144.72,324.711 143.5,323.5C 143.167,324 142.833,324.5 142.5,325C 142.382,329.07 142.215,333.236 142,337.5C 141,338.833 140,338.833 139,337.5C 138.215,331.751 138.382,326.084 139.5,320.5 Z"/></g>
<g><path style="opacity:0.912" fill="#473e4f" d="M 183.5,320.5 C 184.496,320.414 185.329,320.748 186,321.5C 186.499,326.155 186.666,330.821 186.5,335.5C 188.833,335.5 191.167,335.5 193.5,335.5C 193.5,336.5 193.5,337.5 193.5,338.5C 189.365,339.11 185.699,338.277 182.5,336C 182.913,330.888 183.246,325.722 183.5,320.5 Z"/></g>
<g><path style="opacity:0.447" fill="#584961" d="M 288.5,321.5 C 289.043,321.56 289.376,321.893 289.5,322.5C 287.257,323.474 284.924,323.808 282.5,323.5C 282.5,324.833 282.5,326.167 282.5,327.5C 284.5,327.5 286.5,327.5 288.5,327.5C 288.5,328.5 288.5,329.5 288.5,330.5C 286.5,330.5 284.5,330.5 282.5,330.5C 282.5,332.167 282.5,333.833 282.5,335.5C 284.833,335.5 287.167,335.5 289.5,335.5C 289.5,336.5 289.5,337.5 289.5,338.5C 285.958,338.813 282.625,338.479 279.5,337.5C 282.518,337.665 285.518,337.498 288.5,337C 286.19,336.503 283.857,336.337 281.5,336.5C 281.5,334.167 281.5,331.833 281.5,329.5C 289.5,329.167 289.5,328.833 281.5,328.5C 281.5,326.5 281.5,324.5 281.5,322.5C 284.059,322.802 286.393,322.468 288.5,321.5 Z"/></g>
</svg>
